<svg width="212" height="60" viewBox="0 0 212 60" fill="none" xmlns="http://www.w3.org/2000/svg">
<g clip-path="url(#clip0_1_250)">
<path d="M51.7058 32.6623H58.0206C60.8977 32.6623 62.9867 33.0744 64.2874 33.9001C65.5866 34.7258 66.237 36.0386 66.237 37.8383C66.237 39.0605 65.952 40.0626 65.3837 40.8462C64.8154 41.6297 64.0582 42.1011 63.1136 42.2588V42.3993C64.4004 42.688 65.328 43.2297 65.8963 44.0226C66.4661 44.8156 66.7495 45.8692 66.7495 47.185C66.7495 49.0503 66.0806 50.5051 64.7442 51.5509C63.4063 52.5952 61.5914 53.1181 59.2966 53.1181H51.7042V32.6639L51.7058 32.6623ZM56.0091 40.7634H58.5068C59.6728 40.7634 60.5168 40.5808 61.0402 40.2171C61.5636 39.8534 61.8237 39.2525 61.8237 38.4127C61.8237 37.6291 61.5388 37.0672 60.9705 36.7269C60.4022 36.3866 59.501 36.2165 58.2714 36.2165H56.0091V40.7634ZM56.0091 44.2053V49.5358H58.8134C59.998 49.5358 60.8729 49.3079 61.4366 48.8505C62.0003 48.3932 62.2836 47.6939 62.2836 46.7511C62.2836 45.0528 61.0804 44.2053 58.6756 44.2053H56.0106H56.0091Z" fill="#2B307F"/>
<path d="M84.5752 45.2682C84.5752 47.814 83.9094 49.8057 82.5761 51.2418C81.2444 52.6778 79.3877 53.3958 77.0108 53.3958C75.5211 53.3958 74.2064 53.0665 73.0683 52.4093C71.9301 51.7522 71.0552 50.8078 70.4451 49.5763C69.835 48.3447 69.5284 46.9087 69.5284 45.2666C69.5284 42.7114 70.1896 40.7243 71.5136 39.307C72.836 37.8897 74.6973 37.1811 77.0928 37.1811C78.5825 37.1811 79.8972 37.5073 81.0353 38.1598C82.1735 38.8122 83.0484 39.7503 83.6585 40.9725C84.2686 42.1947 84.5752 43.6261 84.5752 45.2682ZM73.8456 45.2682C73.8456 46.8166 74.098 47.9873 74.6013 48.7802C75.1061 49.5732 75.9268 49.9696 77.065 49.9696C78.2031 49.9696 79.0053 49.5763 79.5008 48.788C79.9963 47.9998 80.2441 46.8275 80.2441 45.2697C80.2441 43.7119 79.9947 42.56 79.4946 41.7858C78.9944 41.0115 78.1752 40.6244 77.0371 40.6244C75.8989 40.6244 75.0937 41.0084 74.5935 41.778C74.0934 42.5475 73.8441 43.7104 73.8441 45.2682H73.8456Z" fill="#2B307F"/>
<path d="M102.175 45.2682C102.175 47.814 101.509 49.8057 100.176 51.2418C98.8445 52.6778 96.9878 53.3958 94.6109 53.3958C93.1212 53.3958 91.8065 53.0665 90.6684 52.4093C89.5302 51.7522 88.6553 50.8078 88.0452 49.5763C87.4351 48.3447 87.1285 46.9087 87.1285 45.2666C87.1285 42.7114 87.7897 40.7243 89.1137 39.307C90.4361 37.8897 92.2974 37.1811 94.6929 37.1811C96.1826 37.1811 97.4973 37.5073 98.6354 38.1598C99.7736 38.8122 100.649 39.7503 101.259 40.9725C101.869 42.1947 102.175 43.6261 102.175 45.2682ZM91.4457 45.2682C91.4457 46.8166 91.6981 47.9873 92.2014 48.7802C92.7062 49.5732 93.5269 49.9696 94.6651 49.9696C95.8032 49.9696 96.6053 49.5763 97.1009 48.788C97.5964 47.9998 97.8441 46.8275 97.8441 45.2697C97.8441 43.7119 97.5948 42.56 97.0947 41.7858C96.5945 41.0115 95.7753 40.6244 94.6372 40.6244C93.499 40.6244 92.6938 41.0084 92.1936 41.778C91.6935 42.5475 91.4442 43.7104 91.4442 45.2682H91.4457Z" fill="#2B307F"/>
<path d="M109.738 44.6094L111.583 42.2306L115.929 37.4729H120.703L114.54 44.2582L121.077 53.1149H116.192L111.723 46.7775L109.905 48.2464V53.1149H105.671V31.3448H109.905V41.0552L109.683 44.6094H109.739H109.738Z" fill="#2B307F"/>
<path d="M137.826 53.1164H133.592V43.9804C133.592 42.8518 133.405 42.0058 133.03 41.4408C132.656 40.8757 132.066 40.5947 131.26 40.5947C130.178 40.5947 129.391 40.9959 128.9 41.7982C128.41 42.6005 128.165 43.9211 128.165 45.7583V53.118H123.931V37.476H127.165L127.733 39.4771H127.968C128.385 38.7591 128.986 38.1972 129.772 37.7913C130.559 37.3855 131.46 37.1826 132.479 37.1826C134.802 37.1826 136.375 37.9474 137.199 39.4771H137.574C137.99 38.7497 138.603 38.1847 139.413 37.7835C140.223 37.3824 141.137 37.1826 142.154 37.1826C143.912 37.1826 145.242 37.6368 146.145 38.5468C147.047 39.4568 147.498 40.9132 147.498 42.9189V53.118H143.251V43.9819C143.251 42.8534 143.063 42.0074 142.688 41.4423C142.314 40.8773 141.724 40.5963 140.918 40.5963C139.883 40.5963 139.107 40.9694 138.594 41.7155C138.08 42.4616 137.823 43.6463 137.823 45.2697V53.118L137.826 53.1164Z" fill="#3CA4DC"/>
<path d="M149.624 37.4745H154.26L157.189 46.2749C157.438 47.0397 157.61 47.9451 157.703 48.9893H157.786C157.889 48.0294 158.087 47.124 158.383 46.2749L161.255 37.4745H165.794L159.228 55.1175C158.627 56.7502 157.768 57.9708 156.653 58.7825C155.538 59.5942 154.236 60 152.746 60C152.015 60 151.298 59.9204 150.595 59.7628V56.3771C151.105 56.4989 151.659 56.5598 152.261 56.5598C153.011 56.5598 153.666 56.3287 154.225 55.8667C154.784 55.4047 155.222 54.707 155.536 53.7751L155.786 53.0056L149.623 37.476L149.624 37.4745Z" fill="#3CA4DC"/>
<path d="M176.537 53.3958C174.715 53.3958 173.284 52.7293 172.248 51.3948H172.027C172.175 52.7012 172.248 53.4567 172.248 53.6612V59.9985H168.014V37.473H171.457L172.053 39.5021H172.248C173.238 37.9537 174.704 37.1795 176.647 37.1795C178.479 37.1795 179.913 37.8928 180.951 39.3195C181.987 40.7462 182.505 42.7286 182.505 45.265C182.505 46.9352 182.262 48.3853 181.776 49.6169C181.29 50.8484 180.599 51.785 179.701 52.4296C178.803 53.0727 177.748 53.3943 176.536 53.3943L176.537 53.3958ZM175.288 40.5948C174.242 40.5948 173.479 40.9195 172.998 41.5672C172.516 42.215 172.267 43.2858 172.248 44.778V45.2401C172.248 46.9196 172.496 48.1215 172.99 48.8505C173.485 49.5778 174.269 49.9415 175.342 49.9415C177.239 49.9415 178.187 48.365 178.187 45.212C178.187 43.6729 177.953 42.5194 177.485 41.7499C177.017 40.9803 176.285 40.5963 175.285 40.5963L175.288 40.5948Z" fill="#3CA4DC"/>
<path d="M193.026 53.3959C190.528 53.3959 188.576 52.7013 187.168 51.3105C185.762 49.9213 185.059 47.953 185.059 45.4056C185.059 42.8582 185.71 40.7587 187.009 39.3258C188.308 37.8944 190.106 37.178 192.401 37.178C194.696 37.178 196.301 37.807 197.523 39.0667C198.745 40.3263 199.355 42.0652 199.355 44.2848V46.3562H189.347C189.393 47.569 189.75 48.5149 190.415 49.197C191.081 49.8776 192.017 50.2179 193.22 50.2179C194.154 50.2179 195.038 50.1195 195.871 49.9244C196.704 49.7277 197.573 49.4155 198.48 48.9863V52.2876C197.74 52.6607 196.949 52.9385 196.106 53.1196C195.264 53.3022 194.237 53.3928 193.025 53.3928L193.026 53.3959ZM192.43 40.2155C191.532 40.2155 190.829 40.5027 190.321 41.0756C189.812 41.6484 189.52 42.4632 189.446 43.5169H195.386C195.368 42.4632 195.095 41.6484 194.567 41.0756C194.039 40.5012 193.327 40.2155 192.43 40.2155Z" fill="#3CA4DC"/>
<path d="M209.336 49.9963C210.076 49.9963 210.965 49.834 212.001 49.5062V52.6826C210.946 53.1587 209.65 53.396 208.114 53.396C206.42 53.396 205.187 52.9651 204.415 52.102C203.642 51.2388 203.256 49.9448 203.256 48.22V40.6792H201.229V38.8748L203.562 37.4481L204.783 34.1468H207.49V37.4762H211.834V40.6807H207.49V48.2215C207.49 48.8272 207.659 49.2751 207.996 49.5639C208.334 49.8527 208.78 49.9978 209.336 49.9978V49.9963Z" fill="#3CA4DC"/>
<mask id="mask0_1_250" style="mask-type:luminance" maskUnits="userSpaceOnUse" x="0" y="-1" width="42" height="55">
<path d="M13.6677 7.976C13.1319 7.976 12.6968 8.41462 12.6968 8.9547C12.6968 9.49477 13.1319 9.93339 13.6677 9.93339C14.2035 9.93339 14.6386 9.49477 14.6386 8.9547C14.6386 8.41462 14.2035 7.976 13.6677 7.976ZM15.9363 13.2535C15.3571 13.2535 14.8879 13.7264 14.8879 14.3102C14.8879 14.894 15.3571 15.3669 15.9363 15.3669C16.5154 15.3669 16.9846 14.894 16.9846 14.3102C16.9846 13.7264 16.5154 13.2535 15.9363 13.2535ZM37.8059 30.294H37.8136C40.237 32.7368 41.7375 36.1131 41.7375 39.8405C41.7375 43.568 40.237 46.9349 37.8136 49.3793L37.8059 49.3871C35.3809 51.8299 32.0361 53.3424 28.3429 53.3424H6.52755V24.4967C8.0265 25.0462 9.45113 25.3256 10.5165 25.5847V49.3215H28.346C30.9475 49.3215 33.2997 48.2617 35.0015 46.5493C36.7002 44.8339 37.7517 42.4629 37.7517 39.8405C37.7517 37.2182 36.6987 34.8503 34.9984 33.1348L35.0031 33.1317C33.3012 31.4194 30.9475 30.3595 28.3476 30.3595H28.2624C24.6962 30.3595 23.606 30.3517 20.029 30.3783C29.1853 26.3932 32.9373 12.6884 21.0123 6.6102C20.8063 6.50406 20.3944 6.46504 20.1947 6.58835C19.9949 6.71166 19.9159 6.96297 19.9159 7.19867V9.28873C19.9159 9.61809 19.6821 9.89281 19.3585 9.9412C15.9827 10.4563 13.2976 11.6426 12.1564 14.574C11.393 15.5308 8.39969 16.2582 8.40589 16.5251C8.47402 24.5966 13.3689 19.3722 13.406 27.0316C11.9272 21.6855 0.434168 26.1388 0.000586222 11.8502C-0.0226414 11.0978 0.647862 10.5156 1.39269 10.4579C6.81712 10.038 7.74003 9.78354 8.76824 9.70394C9.00051 9.68677 9.19562 9.57438 9.33034 9.38083C11.5509 6.20593 14.5411 4.50921 18.2947 4.29537C18.6415 4.27508 18.9125 3.98631 18.9125 3.6351V0.64751C18.9125 0.405569 19.0302 0.197967 19.2377 0.0762155C19.4436 -0.0455359 19.6651 -0.00495209 19.8912 0.0730936C33.8541 4.86354 37.2453 20.5898 27.5532 26.412C30.0726 26.412 34.1096 26.5681 37.8059 30.294Z" fill="white"/>
</mask>
<g mask="url(#mask0_1_250)">
<path d="M41.7375 -0.0453186H-0.022644V53.3411H41.7375V-0.0453186Z" fill="url(#paint0_linear_1_250)"/>
</g>
</g>
<defs>
<linearGradient id="paint0_linear_1_250" x1="8.09773" y1="48.4991" x2="33.9067" y2="5.00325" gradientUnits="userSpaceOnUse">
<stop stop-color="#2B307F"/>
<stop offset="1" stop-color="#44B3E7"/>
</linearGradient>
<clipPath id="clip0_1_250">
<rect width="212" height="60" fill="white"/>
</clipPath>
</defs>
</svg>
