<svg width="137" height="29" viewBox="0 0 137 29" fill="none" xmlns="http://www.w3.org/2000/svg">
<path d="M0.324 23V3.4H9.9C12.364 3.4 14.212 3.86667 15.444 4.8C16.6947 5.73333 17.32 6.96533 17.32 8.496C17.32 9.52267 17.068 10.4187 16.564 11.184C16.06 11.9307 15.3693 12.5093 14.492 12.92C13.6147 13.3307 12.6067 13.536 11.468 13.536L12 12.388C13.232 12.388 14.324 12.5933 15.276 13.004C16.228 13.396 16.9653 13.984 17.488 14.768C18.0293 15.552 18.3 16.5133 18.3 17.652C18.3 19.332 17.6373 20.648 16.312 21.6C14.9867 22.5333 13.036 23 10.46 23H0.324ZM4.832 19.584H10.124C11.3 19.584 12.1867 19.3973 12.784 19.024C13.4 18.632 13.708 18.016 13.708 17.176C13.708 16.3547 13.4 15.748 12.784 15.356C12.1867 14.9453 11.3 14.74 10.124 14.74H4.496V11.436H9.34C10.4413 11.436 11.2813 11.2493 11.86 10.876C12.4573 10.484 12.756 9.896 12.756 9.112C12.756 8.34667 12.4573 7.77733 11.86 7.404C11.2813 7.012 10.4413 6.816 9.34 6.816H4.832V19.584ZM28.5942 23.224C26.9888 23.224 25.5608 22.888 24.3102 22.216C23.0782 21.544 22.0982 20.6293 21.3702 19.472C20.6608 18.296 20.3062 16.9613 20.3062 15.468C20.3062 13.956 20.6608 12.6213 21.3702 11.464C22.0982 10.288 23.0782 9.37333 24.3102 8.72C25.5608 8.048 26.9888 7.712 28.5942 7.712C30.1808 7.712 31.5995 8.048 32.8502 8.72C34.1008 9.37333 35.0808 10.2787 35.7902 11.436C36.4995 12.5933 36.8542 13.9373 36.8542 15.468C36.8542 16.9613 36.4995 18.296 35.7902 19.472C35.0808 20.6293 34.1008 21.544 32.8502 22.216C31.5995 22.888 30.1808 23.224 28.5942 23.224ZM28.5942 19.64C29.3222 19.64 29.9755 19.472 30.5542 19.136C31.1328 18.8 31.5902 18.324 31.9262 17.708C32.2622 17.0733 32.4302 16.3267 32.4302 15.468C32.4302 14.5907 32.2622 13.844 31.9262 13.228C31.5902 12.612 31.1328 12.136 30.5542 11.8C29.9755 11.464 29.3222 11.296 28.5942 11.296C27.8662 11.296 27.2128 11.464 26.6342 11.8C26.0555 12.136 25.5888 12.612 25.2342 13.228C24.8982 13.844 24.7302 14.5907 24.7302 15.468C24.7302 16.3267 24.8982 17.0733 25.2342 17.708C25.5888 18.324 26.0555 18.8 26.6342 19.136C27.2128 19.472 27.8662 19.64 28.5942 19.64ZM46.9418 23.224C45.3365 23.224 43.9085 22.888 42.6578 22.216C41.4258 21.544 40.4458 20.6293 39.7178 19.472C39.0085 18.296 38.6538 16.9613 38.6538 15.468C38.6538 13.956 39.0085 12.6213 39.7178 11.464C40.4458 10.288 41.4258 9.37333 42.6578 8.72C43.9085 8.048 45.3365 7.712 46.9418 7.712C48.5285 7.712 49.9471 8.048 51.1978 8.72C52.4485 9.37333 53.4285 10.2787 54.1378 11.436C54.8471 12.5933 55.2018 13.9373 55.2018 15.468C55.2018 16.9613 54.8471 18.296 54.1378 19.472C53.4285 20.6293 52.4485 21.544 51.1978 22.216C49.9471 22.888 48.5285 23.224 46.9418 23.224ZM46.9418 19.64C47.6698 19.64 48.3231 19.472 48.9018 19.136C49.4805 18.8 49.9378 18.324 50.2738 17.708C50.6098 17.0733 50.7778 16.3267 50.7778 15.468C50.7778 14.5907 50.6098 13.844 50.2738 13.228C49.9378 12.612 49.4805 12.136 48.9018 11.8C48.3231 11.464 47.6698 11.296 46.9418 11.296C46.2138 11.296 45.5605 11.464 44.9818 11.8C44.4031 12.136 43.9365 12.612 43.5818 13.228C43.2458 13.844 43.0778 14.5907 43.0778 15.468C43.0778 16.3267 43.2458 17.0733 43.5818 17.708C43.9365 18.324 44.4031 18.8 44.9818 19.136C45.5605 19.472 46.2138 19.64 46.9418 19.64ZM61.7335 19.92L61.8455 14.6L68.8735 7.936H74.0815L67.3335 14.796L65.0655 16.644L61.7335 19.92ZM58.1215 23V2.224H62.4895V23H58.1215ZM69.3495 23L64.2535 16.672L66.9975 13.284L74.6415 23H69.3495ZM76.6058 23V7.936H80.9738V23H76.6058ZM78.7898 5.836C77.9872 5.836 77.3338 5.60267 76.8298 5.136C76.3258 4.66933 76.0738 4.09067 76.0738 3.4C76.0738 2.70933 76.3258 2.13067 76.8298 1.664C77.3338 1.19733 77.9872 0.963998 78.7898 0.963998C79.5925 0.963998 80.2458 1.188 80.7498 1.636C81.2538 2.06533 81.5058 2.62533 81.5058 3.316C81.5058 4.044 81.2538 4.65067 80.7498 5.136C80.2645 5.60267 79.6112 5.836 78.7898 5.836ZM94.1837 7.712C95.3784 7.712 96.4424 7.95467 97.3757 8.44C98.3277 8.90667 99.0744 9.63467 99.6157 10.624C100.157 11.5947 100.428 12.8453 100.428 14.376V23H96.0597V15.048C96.0597 13.8347 95.7891 12.9387 95.2477 12.36C94.7251 11.7813 93.9784 11.492 93.0077 11.492C92.3171 11.492 91.6917 11.6413 91.1317 11.94C90.5904 12.22 90.1611 12.6587 89.8437 13.256C89.5451 13.8533 89.3957 14.6187 89.3957 15.552V23H85.0277V7.936H89.1997V12.108L88.4157 10.848C88.9571 9.84 89.7317 9.06533 90.7397 8.524C91.7477 7.98267 92.8957 7.712 94.1837 7.712ZM111.58 28.656C110.162 28.656 108.79 28.4787 107.464 28.124C106.158 27.788 105.066 27.2747 104.188 26.584L105.924 23.448C106.559 23.9707 107.362 24.3813 108.332 24.68C109.322 24.9973 110.292 25.156 111.244 25.156C112.794 25.156 113.914 24.8107 114.604 24.12C115.314 23.4293 115.668 22.4027 115.668 21.04V18.772L115.948 14.992L115.892 11.184V7.936H120.036V20.48C120.036 23.28 119.308 25.3427 117.852 26.668C116.396 27.9933 114.306 28.656 111.58 28.656ZM110.908 22.272C109.508 22.272 108.239 21.9733 107.1 21.376C105.98 20.76 105.075 19.9107 104.384 18.828C103.712 17.7267 103.376 16.448 103.376 14.992C103.376 13.5173 103.712 12.2387 104.384 11.156C105.075 10.0547 105.98 9.20533 107.1 8.608C108.239 8.01067 109.508 7.712 110.908 7.712C112.178 7.712 113.298 7.97333 114.268 8.496C115.239 9 115.995 9.79333 116.536 10.876C117.078 11.94 117.348 13.312 117.348 14.992C117.348 16.6533 117.078 18.0253 116.536 19.108C115.995 20.172 115.239 20.9653 114.268 21.488C113.298 22.0107 112.178 22.272 110.908 22.272ZM111.776 18.688C112.542 18.688 113.223 18.5387 113.82 18.24C114.418 17.9227 114.884 17.484 115.22 16.924C115.556 16.364 115.724 15.72 115.724 14.992C115.724 14.2453 115.556 13.6013 115.22 13.06C114.884 12.5 114.418 12.0707 113.82 11.772C113.223 11.4547 112.542 11.296 111.776 11.296C111.011 11.296 110.33 11.4547 109.732 11.772C109.135 12.0707 108.659 12.5 108.304 13.06C107.968 13.6013 107.8 14.2453 107.8 14.992C107.8 15.72 107.968 16.364 108.304 16.924C108.659 17.484 109.135 17.9227 109.732 18.24C110.33 18.5387 111.011 18.688 111.776 18.688ZM129.17 23.224C127.882 23.224 126.641 23.0747 125.446 22.776C124.27 22.4587 123.337 22.0667 122.646 21.6L124.102 18.464C124.793 18.8933 125.605 19.248 126.538 19.528C127.49 19.7893 128.423 19.92 129.338 19.92C130.346 19.92 131.055 19.7987 131.466 19.556C131.895 19.3133 132.11 18.9773 132.11 18.548C132.11 18.1933 131.942 17.932 131.606 17.764C131.289 17.5773 130.859 17.4373 130.318 17.344C129.777 17.2507 129.179 17.1573 128.526 17.064C127.891 16.9707 127.247 16.8493 126.594 16.7C125.941 16.532 125.343 16.2893 124.802 15.972C124.261 15.6547 123.822 15.2253 123.486 14.684C123.169 14.1427 123.01 13.4427 123.01 12.584C123.01 11.632 123.281 10.792 123.822 10.064C124.382 9.336 125.185 8.76667 126.23 8.356C127.275 7.92667 128.526 7.712 129.982 7.712C131.009 7.712 132.054 7.824 133.118 8.048C134.182 8.272 135.069 8.59867 135.778 9.028L134.322 12.136C133.594 11.7067 132.857 11.4173 132.11 11.268C131.382 11.1 130.673 11.016 129.982 11.016C129.011 11.016 128.302 11.1467 127.854 11.408C127.406 11.6693 127.182 12.0053 127.182 12.416C127.182 12.7893 127.341 13.0693 127.658 13.256C127.994 13.4427 128.433 13.592 128.974 13.704C129.515 13.816 130.103 13.9187 130.738 14.012C131.391 14.0867 132.045 14.208 132.698 14.376C133.351 14.544 133.939 14.7867 134.462 15.104C135.003 15.4027 135.442 15.8227 135.778 16.364C136.114 16.8867 136.282 17.5773 136.282 18.436C136.282 19.3693 136.002 20.2 135.442 20.928C134.882 21.6373 134.07 22.1973 133.006 22.608C131.961 23.0187 130.682 23.224 129.17 23.224Z" fill="#08138C"/>
</svg>
