<svg width="64" height="64" viewBox="0 0 64 64" fill="none" xmlns="http://www.w3.org/2000/svg">
<g filter="url(#filter0_d_1_313)">
<rect x="10" y="2" width="44" height="44" rx="8" fill="white"/>
<rect x="10.25" y="2.25" width="43.5" height="43.5" rx="7.75" stroke="#EBEBEB" stroke-width="0.5"/>
<path d="M35.3734 26.085V21.915C35.3734 21.7419 35.2967 21.6234 35.1434 21.5594C34.99 21.4952 34.852 21.5246 34.7292 21.6475L32.9038 23.4727C32.7532 23.6234 32.6779 23.7992 32.6779 24C32.6779 24.2008 32.7532 24.3766 32.9038 24.5273L34.7292 26.3525C34.852 26.4754 34.99 26.5048 35.1434 26.4406C35.2967 26.3766 35.3734 26.258 35.3734 26.085ZM26.4231 31.0833C26.0076 31.0833 25.6526 30.9362 25.3581 30.6419C25.0638 30.3474 24.9167 29.9924 24.9167 29.5769V18.4231C24.9167 18.0076 25.0638 17.6526 25.3581 17.3581C25.6526 17.0638 26.0076 16.9167 26.4231 16.9167H37.5769C37.9925 16.9167 38.3475 17.0638 38.6419 17.3581C38.9362 17.6526 39.0834 18.0076 39.0834 18.4231V29.5769C39.0834 29.9924 38.9362 30.3474 38.6419 30.6419C38.3475 30.9362 37.9925 31.0833 37.5769 31.0833H26.4231ZM28.6667 29.8333V18.1667H26.4231C26.359 18.1667 26.3002 18.1934 26.2469 18.2469C26.1934 18.3002 26.1667 18.3589 26.1667 18.4231V29.5769C26.1667 29.641 26.1934 29.6998 26.2469 29.7531C26.3002 29.8066 26.359 29.8333 26.4231 29.8333H28.6667ZM29.9167 29.8333H37.5769C37.6411 29.8333 37.6998 29.8066 37.7531 29.7531C37.8066 29.6998 37.8334 29.641 37.8334 29.5769V18.4231C37.8334 18.3589 37.8066 18.3002 37.7531 18.2469C37.6998 18.1934 37.6411 18.1667 37.5769 18.1667H29.9167V29.8333Z" fill="#08138C"/>
</g>
<defs>
<filter id="filter0_d_1_313" x="0" y="0" width="64" height="64" filterUnits="userSpaceOnUse" color-interpolation-filters="sRGB">
<feFlood flood-opacity="0" result="BackgroundImageFix"/>
<feColorMatrix in="SourceAlpha" type="matrix" values="0 0 0 0 0 0 0 0 0 0 0 0 0 0 0 0 0 0 127 0" result="hardAlpha"/>
<feOffset dy="8"/>
<feGaussianBlur stdDeviation="5"/>
<feComposite in2="hardAlpha" operator="out"/>
<feColorMatrix type="matrix" values="0 0 0 0 0.22832 0 0 0 0 0.22832 0 0 0 0 0.22832 0 0 0 0.1 0"/>
<feBlend mode="normal" in2="BackgroundImageFix" result="effect1_dropShadow_1_313"/>
<feBlend mode="normal" in="SourceGraphic" in2="effect1_dropShadow_1_313" result="shape"/>
</filter>
</defs>
</svg>
