<svg width="204" height="43" viewBox="0 0 204 43" fill="none" xmlns="http://www.w3.org/2000/svg">
<rect width="204" height="43" rx="21.5" fill="#44B3E7"/>
<path d="M67.8358 27V15.8H72.6838C73.6865 15.8 74.5505 15.9653 75.2758 16.296C76.0011 16.616 76.5611 17.08 76.9558 17.688C77.3505 18.296 77.5478 19.0213 77.5478 19.864C77.5478 20.696 77.3505 21.416 76.9558 22.024C76.5611 22.632 76.0011 23.1013 75.2758 23.432C74.5505 23.752 73.6865 23.912 72.6838 23.912H69.2758L70.4278 22.744V27H67.8358ZM70.4278 23.032L69.2758 21.8H72.5398C73.3398 21.8 73.9371 21.6293 74.3318 21.288C74.7265 20.9467 74.9238 20.472 74.9238 19.864C74.9238 19.2453 74.7265 18.7653 74.3318 18.424C73.9371 18.0827 73.3398 17.912 72.5398 17.912H69.2758L70.4278 16.68V23.032ZM83.4787 27.128C82.4974 27.128 81.6334 26.936 80.8867 26.552C80.1507 26.168 79.58 25.6453 79.1747 24.984C78.7694 24.312 78.5667 23.5493 78.5667 22.696C78.5667 21.832 78.764 21.0693 79.1587 20.408C79.564 19.736 80.1134 19.2133 80.8067 18.84C81.5 18.456 82.284 18.264 83.1587 18.264C84.0014 18.264 84.7587 18.4453 85.4307 18.808C86.1134 19.16 86.652 19.672 87.0467 20.344C87.4414 21.0053 87.6387 21.8 87.6387 22.728C87.6387 22.824 87.6334 22.936 87.6227 23.064C87.612 23.1813 87.6014 23.2933 87.5907 23.4H80.5987V21.944H86.2787L85.3187 22.376C85.3187 21.928 85.228 21.5387 85.0467 21.208C84.8654 20.8773 84.6147 20.6213 84.2947 20.44C83.9747 20.248 83.6014 20.152 83.1747 20.152C82.748 20.152 82.3694 20.248 82.0387 20.44C81.7187 20.6213 81.468 20.8827 81.2867 21.224C81.1054 21.5547 81.0147 21.9493 81.0147 22.408V22.792C81.0147 23.2613 81.116 23.6773 81.3187 24.04C81.532 24.392 81.8254 24.664 82.1987 24.856C82.5827 25.0373 83.0307 25.128 83.5427 25.128C84.0014 25.128 84.4014 25.0587 84.7427 24.92C85.0947 24.7813 85.4147 24.5733 85.7027 24.296L87.0307 25.736C86.636 26.184 86.14 26.5307 85.5427 26.776C84.9454 27.0107 84.2574 27.128 83.4787 27.128ZM94.5324 18.264C95.2151 18.264 95.8231 18.4027 96.3564 18.68C96.9004 18.9467 97.3271 19.3627 97.6364 19.928C97.9458 20.4827 98.1004 21.1973 98.1004 22.072V27H95.6044V22.456C95.6044 21.7627 95.4498 21.2507 95.1404 20.92C94.8418 20.5893 94.4151 20.424 93.8604 20.424C93.4658 20.424 93.1084 20.5093 92.7884 20.68C92.4791 20.84 92.2338 21.0907 92.0524 21.432C91.8818 21.7733 91.7964 22.2107 91.7964 22.744V27H89.3004V18.392H91.6844V20.776L91.2364 20.056C91.5458 19.48 91.9884 19.0373 92.5644 18.728C93.1404 18.4187 93.7964 18.264 94.5324 18.264ZM104.121 27.128C103.311 27.128 102.58 26.9467 101.929 26.584C101.279 26.2107 100.761 25.6933 100.377 25.032C100.004 24.3707 99.8174 23.592 99.8174 22.696C99.8174 21.7893 100.004 21.0053 100.377 20.344C100.761 19.6827 101.279 19.1707 101.929 18.808C102.58 18.4453 103.311 18.264 104.121 18.264C104.847 18.264 105.481 18.424 106.025 18.744C106.569 19.064 106.991 19.5493 107.289 20.2C107.588 20.8507 107.737 21.6827 107.737 22.696C107.737 23.6987 107.593 24.5307 107.305 25.192C107.017 25.8427 106.601 26.328 106.057 26.648C105.524 26.968 104.879 27.128 104.121 27.128ZM104.553 25.08C104.959 25.08 105.327 24.984 105.657 24.792C105.988 24.6 106.249 24.328 106.441 23.976C106.644 23.6133 106.745 23.1867 106.745 22.696C106.745 22.1947 106.644 21.768 106.441 21.416C106.249 21.064 105.988 20.792 105.657 20.6C105.327 20.408 104.959 20.312 104.553 20.312C104.137 20.312 103.764 20.408 103.433 20.6C103.103 20.792 102.836 21.064 102.633 21.416C102.441 21.768 102.345 22.1947 102.345 22.696C102.345 23.1867 102.441 23.6133 102.633 23.976C102.836 24.328 103.103 24.6 103.433 24.792C103.764 24.984 104.137 25.08 104.553 25.08ZM106.809 27V25.24L106.857 22.68L106.697 20.136V15.128H109.193V27H106.809ZM111.504 27V18.392H114V27H111.504ZM112.752 17.192C112.293 17.192 111.92 17.0587 111.632 16.792C111.344 16.5253 111.2 16.1947 111.2 15.8C111.2 15.4053 111.344 15.0747 111.632 14.808C111.92 14.5413 112.293 14.408 112.752 14.408C113.21 14.408 113.584 14.536 113.872 14.792C114.16 15.0373 114.304 15.3573 114.304 15.752C114.304 16.168 114.16 16.5147 113.872 16.792C113.594 17.0587 113.221 17.192 112.752 17.192ZM121.548 18.264C122.231 18.264 122.839 18.4027 123.372 18.68C123.916 18.9467 124.343 19.3627 124.652 19.928C124.961 20.4827 125.116 21.1973 125.116 22.072V27H122.62V22.456C122.62 21.7627 122.465 21.2507 122.156 20.92C121.857 20.5893 121.431 20.424 120.876 20.424C120.481 20.424 120.124 20.5093 119.804 20.68C119.495 20.84 119.249 21.0907 119.068 21.432C118.897 21.7733 118.812 22.2107 118.812 22.744V27H116.316V18.392H118.7V20.776L118.252 20.056C118.561 19.48 119.004 19.0373 119.58 18.728C120.156 18.4187 120.812 18.264 121.548 18.264ZM131.489 30.232C130.678 30.232 129.894 30.1307 129.137 29.928C128.39 29.736 127.766 29.4427 127.265 29.048L128.257 27.256C128.62 27.5547 129.078 27.7893 129.633 27.96C130.198 28.1413 130.753 28.232 131.297 28.232C132.182 28.232 132.822 28.0347 133.217 27.64C133.622 27.2453 133.825 26.6587 133.825 25.88V24.584L133.985 22.424L133.953 20.248V18.392H136.321V25.56C136.321 27.16 135.905 28.3387 135.073 29.096C134.241 29.8533 133.046 30.232 131.489 30.232ZM131.105 26.584C130.305 26.584 129.58 26.4133 128.929 26.072C128.289 25.72 127.772 25.2347 127.377 24.616C126.993 23.9867 126.801 23.256 126.801 22.424C126.801 21.5813 126.993 20.8507 127.377 20.232C127.772 19.6027 128.289 19.1173 128.929 18.776C129.58 18.4347 130.305 18.264 131.105 18.264C131.83 18.264 132.47 18.4133 133.025 18.712C133.58 19 134.012 19.4533 134.321 20.072C134.63 20.68 134.785 21.464 134.785 22.424C134.785 23.3733 134.63 24.1573 134.321 24.776C134.012 25.384 133.58 25.8373 133.025 26.136C132.47 26.4347 131.83 26.584 131.105 26.584ZM131.601 24.536C132.038 24.536 132.428 24.4507 132.769 24.28C133.11 24.0987 133.377 23.848 133.569 23.528C133.761 23.208 133.857 22.84 133.857 22.424C133.857 21.9973 133.761 21.6293 133.569 21.32C133.377 21 133.11 20.7547 132.769 20.584C132.428 20.4027 132.038 20.312 131.601 20.312C131.164 20.312 130.774 20.4027 130.433 20.584C130.092 20.7547 129.82 21 129.617 21.32C129.425 21.6293 129.329 21.9973 129.329 22.424C129.329 22.84 129.425 23.208 129.617 23.528C129.82 23.848 130.092 24.0987 130.433 24.28C130.774 24.4507 131.164 24.536 131.601 24.536Z" fill="white"/>
</svg>
