<svg width="260" height="608" viewBox="0 0 260 608" fill="none" xmlns="http://www.w3.org/2000/svg">
<g filter="url(#filter0_d_1_266)">
<rect x="10" y="2" width="240" height="54" rx="10" fill="#08138C" shape-rendering="crispEdges"/>
<rect x="15" y="7" width="44" height="44" rx="6" fill="white" fill-opacity="0.2"/>
<g clip-path="url(#clip0_1_266)">
<path d="M29 21H35V29H29V21Z" stroke="white" stroke-linecap="round" stroke-linejoin="round"/>
<path d="M29 33H35V37H29V33Z" stroke="white" stroke-linecap="round" stroke-linejoin="round"/>
<path d="M39 29H45V37H39V29Z" stroke="white" stroke-linecap="round" stroke-linejoin="round"/>
<path d="M39 21H45V25H39V21Z" stroke="white" stroke-linecap="round" stroke-linejoin="round"/>
</g>
<path d="M71.052 35V22.4H76.182C77.526 22.4 78.702 22.67 79.71 23.21C80.73 23.738 81.522 24.476 82.086 25.424C82.65 26.372 82.932 27.464 82.932 28.7C82.932 29.936 82.65 31.028 82.086 31.976C81.522 32.924 80.73 33.668 79.71 34.208C78.702 34.736 77.526 35 76.182 35H71.052ZM72.384 33.848H76.11C77.226 33.848 78.192 33.632 79.008 33.2C79.836 32.756 80.478 32.15 80.934 31.382C81.39 30.602 81.618 29.708 81.618 28.7C81.618 27.68 81.39 26.786 80.934 26.018C80.478 25.25 79.836 24.65 79.008 24.218C78.192 23.774 77.226 23.552 76.11 23.552H72.384V33.848ZM91.6651 35V32.912L91.6111 32.57V29.078C91.6111 28.274 91.3831 27.656 90.9271 27.224C90.4831 26.792 89.8171 26.576 88.9291 26.576C88.3171 26.576 87.7351 26.678 87.1831 26.882C86.6311 27.086 86.1631 27.356 85.7791 27.692L85.2031 26.738C85.6831 26.33 86.2591 26.018 86.9311 25.802C87.6031 25.574 88.3111 25.46 89.0551 25.46C90.2791 25.46 91.2211 25.766 91.8811 26.378C92.5531 26.978 92.8891 27.896 92.8891 29.132V35H91.6651ZM88.4071 35.09C87.6991 35.09 87.0811 34.976 86.5531 34.748C86.0371 34.508 85.6411 34.184 85.3651 33.776C85.0891 33.356 84.9511 32.876 84.9511 32.336C84.9511 31.844 85.0651 31.4 85.2931 31.004C85.5331 30.596 85.9171 30.272 86.4451 30.032C86.9851 29.78 87.7051 29.654 88.6051 29.654H91.8631V30.608H88.6411C87.7291 30.608 87.0931 30.77 86.7331 31.094C86.3851 31.418 86.2111 31.82 86.2111 32.3C86.2111 32.84 86.4211 33.272 86.8411 33.596C87.2611 33.92 87.8491 34.082 88.6051 34.082C89.3251 34.082 89.9431 33.92 90.4591 33.596C90.9871 33.26 91.3711 32.78 91.6111 32.156L91.8991 33.038C91.6591 33.662 91.2391 34.16 90.6391 34.532C90.0511 34.904 89.3071 35.09 88.4071 35.09ZM98.9883 35.09C98.2083 35.09 97.4703 34.982 96.7743 34.766C96.0783 34.538 95.5323 34.256 95.1363 33.92L95.7123 32.912C96.0963 33.2 96.5883 33.452 97.1883 33.668C97.7883 33.872 98.4183 33.974 99.0783 33.974C99.9783 33.974 100.626 33.836 101.022 33.56C101.418 33.272 101.616 32.894 101.616 32.426C101.616 32.078 101.502 31.808 101.274 31.616C101.058 31.412 100.77 31.262 100.41 31.166C100.05 31.058 99.6483 30.968 99.2043 30.896C98.7603 30.824 98.3163 30.74 97.8723 30.644C97.4403 30.548 97.0443 30.41 96.6843 30.23C96.3243 30.038 96.0303 29.78 95.8023 29.456C95.5863 29.132 95.4783 28.7 95.4783 28.16C95.4783 27.644 95.6223 27.182 95.9103 26.774C96.1983 26.366 96.6183 26.048 97.1703 25.82C97.7343 25.58 98.4183 25.46 99.2223 25.46C99.8343 25.46 100.446 25.544 101.058 25.712C101.67 25.868 102.174 26.078 102.57 26.342L102.012 27.368C101.592 27.08 101.142 26.876 100.662 26.756C100.182 26.624 99.7023 26.558 99.2223 26.558C98.3703 26.558 97.7403 26.708 97.3323 27.008C96.9363 27.296 96.7383 27.668 96.7383 28.124C96.7383 28.484 96.8463 28.766 97.0623 28.97C97.2903 29.174 97.5843 29.336 97.9443 29.456C98.3163 29.564 98.7183 29.654 99.1503 29.726C99.5943 29.798 100.032 29.888 100.464 29.996C100.908 30.092 101.31 30.23 101.67 30.41C102.042 30.578 102.336 30.824 102.552 31.148C102.78 31.46 102.894 31.874 102.894 32.39C102.894 32.942 102.738 33.422 102.426 33.83C102.126 34.226 101.682 34.538 101.094 34.766C100.518 34.982 99.8163 35.09 98.9883 35.09ZM110.153 25.46C110.921 25.46 111.593 25.61 112.169 25.91C112.757 26.198 113.213 26.642 113.537 27.242C113.873 27.842 114.041 28.598 114.041 29.51V35H112.763V29.636C112.763 28.64 112.511 27.89 112.007 27.386C111.515 26.87 110.819 26.612 109.919 26.612C109.247 26.612 108.659 26.75 108.155 27.026C107.663 27.29 107.279 27.68 107.003 28.196C106.739 28.7 106.607 29.312 106.607 30.032V35H105.329V21.644H106.607V28.142L106.355 27.656C106.655 26.972 107.135 26.438 107.795 26.054C108.455 25.658 109.241 25.46 110.153 25.46ZM122.461 35.09C121.633 35.09 120.889 34.904 120.229 34.532C119.569 34.148 119.047 33.596 118.663 32.876C118.279 32.156 118.087 31.286 118.087 30.266C118.087 29.234 118.279 28.364 118.663 27.656C119.059 26.936 119.587 26.39 120.247 26.018C120.907 25.646 121.645 25.46 122.461 25.46C123.361 25.46 124.165 25.664 124.873 26.072C125.593 26.468 126.157 27.026 126.565 27.746C126.973 28.466 127.177 29.306 127.177 30.266C127.177 31.214 126.973 32.054 126.565 32.786C126.157 33.506 125.593 34.07 124.873 34.478C124.165 34.886 123.361 35.09 122.461 35.09ZM117.583 35V21.644H118.861V28.34L118.681 30.248L118.807 32.156V35H117.583ZM122.371 33.956C123.043 33.956 123.643 33.806 124.171 33.506C124.699 33.194 125.119 32.762 125.431 32.21C125.743 31.646 125.899 30.998 125.899 30.266C125.899 29.522 125.743 28.874 125.431 28.322C125.119 27.77 124.699 27.344 124.171 27.044C123.643 26.732 123.043 26.576 122.371 26.576C121.699 26.576 121.093 26.732 120.553 27.044C120.025 27.344 119.605 27.77 119.293 28.322C118.993 28.874 118.843 29.522 118.843 30.266C118.843 30.998 118.993 31.646 119.293 32.21C119.605 32.762 120.025 33.194 120.553 33.506C121.093 33.806 121.699 33.956 122.371 33.956ZM133.725 35.09C132.813 35.09 131.991 34.886 131.259 34.478C130.539 34.058 129.969 33.488 129.549 32.768C129.129 32.036 128.919 31.202 128.919 30.266C128.919 29.318 129.129 28.484 129.549 27.764C129.969 27.044 130.539 26.48 131.259 26.072C131.979 25.664 132.801 25.46 133.725 25.46C134.661 25.46 135.489 25.664 136.209 26.072C136.941 26.48 137.511 27.044 137.919 27.764C138.339 28.484 138.549 29.318 138.549 30.266C138.549 31.202 138.339 32.036 137.919 32.768C137.511 33.488 136.941 34.058 136.209 34.478C135.477 34.886 134.649 35.09 133.725 35.09ZM133.725 33.956C134.409 33.956 135.015 33.806 135.543 33.506C136.071 33.194 136.485 32.762 136.785 32.21C137.097 31.646 137.253 30.998 137.253 30.266C137.253 29.522 137.097 28.874 136.785 28.322C136.485 27.77 136.071 27.344 135.543 27.044C135.015 26.732 134.415 26.576 133.743 26.576C133.071 26.576 132.471 26.732 131.943 27.044C131.415 27.344 130.995 27.77 130.683 28.322C130.371 28.874 130.215 29.522 130.215 30.266C130.215 30.998 130.371 31.646 130.683 32.21C130.995 32.762 131.415 33.194 131.943 33.506C132.471 33.806 133.065 33.956 133.725 33.956ZM147.117 35V32.912L147.063 32.57V29.078C147.063 28.274 146.835 27.656 146.379 27.224C145.935 26.792 145.269 26.576 144.381 26.576C143.769 26.576 143.187 26.678 142.635 26.882C142.083 27.086 141.615 27.356 141.231 27.692L140.655 26.738C141.135 26.33 141.711 26.018 142.383 25.802C143.055 25.574 143.763 25.46 144.507 25.46C145.731 25.46 146.673 25.766 147.333 26.378C148.005 26.978 148.341 27.896 148.341 29.132V35H147.117ZM143.859 35.09C143.151 35.09 142.533 34.976 142.005 34.748C141.489 34.508 141.093 34.184 140.817 33.776C140.541 33.356 140.403 32.876 140.403 32.336C140.403 31.844 140.517 31.4 140.745 31.004C140.985 30.596 141.369 30.272 141.897 30.032C142.437 29.78 143.157 29.654 144.057 29.654H147.315V30.608H144.093C143.181 30.608 142.545 30.77 142.185 31.094C141.837 31.418 141.663 31.82 141.663 32.3C141.663 32.84 141.873 33.272 142.293 33.596C142.713 33.92 143.301 34.082 144.057 34.082C144.777 34.082 145.395 33.92 145.911 33.596C146.439 33.26 146.823 32.78 147.063 32.156L147.351 33.038C147.111 33.662 146.691 34.16 146.091 34.532C145.503 34.904 144.759 35.09 143.859 35.09ZM151.902 35V25.55H153.126V28.124L153 27.674C153.264 26.954 153.708 26.408 154.332 26.036C154.956 25.652 155.73 25.46 156.654 25.46V26.702C156.606 26.702 156.558 26.702 156.51 26.702C156.462 26.69 156.414 26.684 156.366 26.684C155.37 26.684 154.59 26.99 154.026 27.602C153.462 28.202 153.18 29.06 153.18 30.176V35H151.902ZM162.75 35.09C161.85 35.09 161.04 34.886 160.32 34.478C159.612 34.07 159.054 33.506 158.646 32.786C158.238 32.054 158.034 31.214 158.034 30.266C158.034 29.306 158.238 28.466 158.646 27.746C159.054 27.026 159.612 26.468 160.32 26.072C161.04 25.664 161.85 25.46 162.75 25.46C163.578 25.46 164.316 25.646 164.964 26.018C165.624 26.39 166.146 26.936 166.53 27.656C166.926 28.364 167.124 29.234 167.124 30.266C167.124 31.286 166.932 32.156 166.548 32.876C166.164 33.596 165.642 34.148 164.982 34.532C164.334 34.904 163.59 35.09 162.75 35.09ZM162.84 33.956C163.512 33.956 164.112 33.806 164.64 33.506C165.18 33.194 165.6 32.762 165.9 32.21C166.212 31.646 166.368 30.998 166.368 30.266C166.368 29.522 166.212 28.874 165.9 28.322C165.6 27.77 165.18 27.344 164.64 27.044C164.112 26.732 163.512 26.576 162.84 26.576C162.18 26.576 161.586 26.732 161.058 27.044C160.53 27.344 160.11 27.77 159.798 28.322C159.486 28.874 159.33 29.522 159.33 30.266C159.33 30.998 159.486 31.646 159.798 32.21C160.11 32.762 160.53 33.194 161.058 33.506C161.586 33.806 162.18 33.956 162.84 33.956ZM166.404 35V32.156L166.53 30.248L166.35 28.34V21.644H167.628V35H166.404Z" fill="white"/>
</g>
<g opacity="0.5">
<path d="M30.3077 107.5C29.8026 107.5 29.375 107.325 29.025 106.975C28.675 106.625 28.5 106.197 28.5 105.692V92.3077C28.5 91.8026 28.675 91.375 29.025 91.025C29.375 90.675 29.8026 90.5 30.3077 90.5H31.6923V89.1537C31.6923 88.9346 31.7657 88.7516 31.9125 88.6047C32.0593 88.4581 32.2423 88.3847 32.4615 88.3847C32.6808 88.3847 32.8638 88.4581 33.0105 88.6047C33.1573 88.7516 33.2308 88.9346 33.2308 89.1537V90.5H40.8077V89.1347C40.8077 88.9219 40.8795 88.7437 41.023 88.6C41.1667 88.4565 41.3449 88.3847 41.5577 88.3847C41.7706 88.3847 41.9488 88.4565 42.0922 88.6C42.2359 88.7437 42.3077 88.9219 42.3077 89.1347V90.5H43.6923C44.1974 90.5 44.625 90.675 44.975 91.025C45.325 91.375 45.5 91.8026 45.5 92.3077V105.692C45.5 106.197 45.325 106.625 44.975 106.975C44.625 107.325 44.1974 107.5 43.6923 107.5H30.3077ZM30.3077 106H43.6923C43.7692 106 43.8398 105.968 43.9038 105.904C43.9679 105.84 44 105.769 44 105.692V96.3077H30V105.692C30 105.769 30.0321 105.84 30.0963 105.904C30.1603 105.968 30.2307 106 30.3077 106ZM30 94.8077H44V92.3077C44 92.2307 43.9679 92.1602 43.9038 92.0962C43.8398 92.0321 43.7692 92 43.6923 92H30.3077C30.2307 92 30.1603 92.0321 30.0963 92.0962C30.0321 92.1602 30 92.2307 30 92.3077V94.8077ZM37 100.077C36.7552 100.077 36.5465 99.9907 36.374 99.8182C36.2017 99.6459 36.1155 99.4372 36.1155 99.1922C36.1155 98.9474 36.2017 98.7387 36.374 98.5662C36.5465 98.3939 36.7552 98.3077 37 98.3077C37.2448 98.3077 37.4535 98.3939 37.626 98.5662C37.7983 98.7387 37.8845 98.9474 37.8845 99.1922C37.8845 99.4372 37.7983 99.6459 37.626 99.8182C37.4535 99.9907 37.2448 100.077 37 100.077ZM33 100.077C32.7552 100.077 32.5465 99.9907 32.374 99.8182C32.2017 99.6459 32.1155 99.4372 32.1155 99.1922C32.1155 98.9474 32.2017 98.7387 32.374 98.5662C32.5465 98.3939 32.7552 98.3077 33 98.3077C33.2448 98.3077 33.4535 98.3939 33.626 98.5662C33.7983 98.7387 33.8845 98.9474 33.8845 99.1922C33.8845 99.4372 33.7983 99.6459 33.626 99.8182C33.4535 99.9907 33.2448 100.077 33 100.077ZM41 100.077C40.7552 100.077 40.5465 99.9907 40.374 99.8182C40.2017 99.6459 40.1155 99.4372 40.1155 99.1922C40.1155 98.9474 40.2017 98.7387 40.374 98.5662C40.5465 98.3939 40.7552 98.3077 41 98.3077C41.2448 98.3077 41.4535 98.3939 41.626 98.5662C41.7983 98.7387 41.8845 98.9474 41.8845 99.1922C41.8845 99.4372 41.7983 99.6459 41.626 99.8182C41.4535 99.9907 41.2448 100.077 41 100.077ZM37 104C36.7552 104 36.5465 103.914 36.374 103.741C36.2017 103.569 36.1155 103.36 36.1155 103.115C36.1155 102.87 36.2017 102.662 36.374 102.489C36.5465 102.317 36.7552 102.231 37 102.231C37.2448 102.231 37.4535 102.317 37.626 102.489C37.7983 102.662 37.8845 102.87 37.8845 103.115C37.8845 103.36 37.7983 103.569 37.626 103.741C37.4535 103.914 37.2448 104 37 104ZM33 104C32.7552 104 32.5465 103.914 32.374 103.741C32.2017 103.569 32.1155 103.36 32.1155 103.115C32.1155 102.87 32.2017 102.662 32.374 102.489C32.5465 102.317 32.7552 102.231 33 102.231C33.2448 102.231 33.4535 102.317 33.626 102.489C33.7983 102.662 33.8845 102.87 33.8845 103.115C33.8845 103.36 33.7983 103.569 33.626 103.741C33.4535 103.914 33.2448 104 33 104ZM41 104C40.7552 104 40.5465 103.914 40.374 103.741C40.2017 103.569 40.1155 103.36 40.1155 103.115C40.1155 102.87 40.2017 102.662 40.374 102.489C40.5465 102.317 40.7552 102.231 41 102.231C41.2448 102.231 41.4535 102.317 41.626 102.489C41.7983 102.662 41.8845 102.87 41.8845 103.115C41.8845 103.36 41.7983 103.569 41.626 103.741C41.4535 103.914 41.2448 104 41 104Z" fill="#08138C"/>
</g>
<path d="M76.524 104.108C75.576 104.108 74.7 103.952 73.896 103.64C73.092 103.316 72.396 102.866 71.808 102.29C71.22 101.714 70.758 101.036 70.422 100.256C70.098 99.476 69.936 98.624 69.936 97.7C69.936 96.776 70.098 95.924 70.422 95.144C70.758 94.364 71.22 93.686 71.808 93.11C72.408 92.534 73.11 92.09 73.914 91.778C74.718 91.454 75.594 91.292 76.542 91.292C77.454 91.292 78.312 91.448 79.116 91.76C79.92 92.06 80.598 92.516 81.15 93.128L80.304 93.974C79.788 93.446 79.218 93.068 78.594 92.84C77.97 92.6 77.298 92.48 76.578 92.48C75.822 92.48 75.12 92.612 74.472 92.876C73.824 93.128 73.26 93.494 72.78 93.974C72.3 94.442 71.922 94.994 71.646 95.63C71.382 96.254 71.25 96.944 71.25 97.7C71.25 98.456 71.382 99.152 71.646 99.788C71.922 100.412 72.3 100.964 72.78 101.444C73.26 101.912 73.824 102.278 74.472 102.542C75.12 102.794 75.822 102.92 76.578 102.92C77.298 102.92 77.97 102.8 78.594 102.56C79.218 102.32 79.788 101.936 80.304 101.408L81.15 102.254C80.598 102.866 79.92 103.328 79.116 103.64C78.312 103.952 77.448 104.108 76.524 104.108ZM89.5909 104V101.912L89.5369 101.57V98.078C89.5369 97.274 89.3089 96.656 88.8529 96.224C88.4089 95.792 87.7429 95.576 86.8549 95.576C86.2429 95.576 85.6609 95.678 85.1089 95.882C84.5569 96.086 84.0889 96.356 83.7049 96.692L83.1289 95.738C83.6089 95.33 84.1849 95.018 84.8569 94.802C85.5289 94.574 86.2369 94.46 86.9809 94.46C88.2049 94.46 89.1469 94.766 89.8069 95.378C90.4789 95.978 90.8149 96.896 90.8149 98.132V104H89.5909ZM86.3329 104.09C85.6249 104.09 85.0069 103.976 84.4789 103.748C83.9629 103.508 83.5669 103.184 83.2909 102.776C83.0149 102.356 82.8769 101.876 82.8769 101.336C82.8769 100.844 82.9909 100.4 83.2189 100.004C83.4589 99.596 83.8429 99.272 84.3709 99.032C84.9109 98.78 85.6309 98.654 86.5309 98.654H89.7889V99.608H86.5669C85.6549 99.608 85.0189 99.77 84.6589 100.094C84.3109 100.418 84.1369 100.82 84.1369 101.3C84.1369 101.84 84.3469 102.272 84.7669 102.596C85.1869 102.92 85.7749 103.082 86.5309 103.082C87.2509 103.082 87.8689 102.92 88.3849 102.596C88.9129 102.26 89.2969 101.78 89.5369 101.156L89.8249 102.038C89.5849 102.662 89.1649 103.16 88.5649 103.532C87.9769 103.904 87.2329 104.09 86.3329 104.09ZM94.3761 104V90.644H95.6541V104H94.3761ZM103.314 104.09C102.33 104.09 101.466 103.886 100.722 103.478C99.978 103.058 99.396 102.488 98.976 101.768C98.556 101.036 98.346 100.202 98.346 99.266C98.346 98.33 98.544 97.502 98.94 96.782C99.348 96.062 99.9 95.498 100.596 95.09C101.304 94.67 102.096 94.46 102.972 94.46C103.86 94.46 104.646 94.664 105.33 95.072C106.026 95.468 106.572 96.032 106.968 96.764C107.364 97.484 107.562 98.318 107.562 99.266C107.562 99.326 107.556 99.392 107.544 99.464C107.544 99.524 107.544 99.59 107.544 99.662H99.318V98.708H106.86L106.356 99.086C106.356 98.402 106.206 97.796 105.906 97.268C105.618 96.728 105.222 96.308 104.718 96.008C104.214 95.708 103.632 95.558 102.972 95.558C102.324 95.558 101.742 95.708 101.226 96.008C100.71 96.308 100.308 96.728 100.02 97.268C99.732 97.808 99.588 98.426 99.588 99.122V99.32C99.588 100.04 99.744 100.676 100.056 101.228C100.38 101.768 100.824 102.194 101.388 102.506C101.964 102.806 102.618 102.956 103.35 102.956C103.926 102.956 104.46 102.854 104.952 102.65C105.456 102.446 105.888 102.134 106.248 101.714L106.968 102.542C106.548 103.046 106.02 103.43 105.384 103.694C104.76 103.958 104.07 104.09 103.314 104.09ZM115.077 94.46C115.845 94.46 116.517 94.61 117.093 94.91C117.681 95.198 118.137 95.642 118.461 96.242C118.797 96.842 118.965 97.598 118.965 98.51V104H117.687V98.636C117.687 97.64 117.435 96.89 116.931 96.386C116.439 95.87 115.743 95.612 114.843 95.612C114.171 95.612 113.583 95.75 113.079 96.026C112.587 96.29 112.203 96.68 111.927 97.196C111.663 97.7 111.531 98.312 111.531 99.032V104H110.253V94.55H111.477V97.142L111.279 96.656C111.579 95.972 112.059 95.438 112.719 95.054C113.379 94.658 114.165 94.46 115.077 94.46ZM126.269 104.09C125.369 104.09 124.559 103.886 123.839 103.478C123.131 103.07 122.573 102.506 122.165 101.786C121.757 101.054 121.553 100.214 121.553 99.266C121.553 98.306 121.757 97.466 122.165 96.746C122.573 96.026 123.131 95.468 123.839 95.072C124.559 94.664 125.369 94.46 126.269 94.46C127.097 94.46 127.835 94.646 128.483 95.018C129.143 95.39 129.665 95.936 130.049 96.656C130.445 97.364 130.643 98.234 130.643 99.266C130.643 100.286 130.451 101.156 130.067 101.876C129.683 102.596 129.161 103.148 128.501 103.532C127.853 103.904 127.109 104.09 126.269 104.09ZM126.359 102.956C127.031 102.956 127.631 102.806 128.159 102.506C128.699 102.194 129.119 101.762 129.419 101.21C129.731 100.646 129.887 99.998 129.887 99.266C129.887 98.522 129.731 97.874 129.419 97.322C129.119 96.77 128.699 96.344 128.159 96.044C127.631 95.732 127.031 95.576 126.359 95.576C125.699 95.576 125.105 95.732 124.577 96.044C124.049 96.344 123.629 96.77 123.317 97.322C123.005 97.874 122.849 98.522 122.849 99.266C122.849 99.998 123.005 100.646 123.317 101.21C123.629 101.762 124.049 102.194 124.577 102.506C125.105 102.806 125.699 102.956 126.359 102.956ZM129.923 104V101.156L130.049 99.248L129.869 97.34V90.644H131.147V104H129.923ZM140.719 104V101.912L140.665 101.57V98.078C140.665 97.274 140.437 96.656 139.981 96.224C139.537 95.792 138.871 95.576 137.983 95.576C137.371 95.576 136.789 95.678 136.237 95.882C135.685 96.086 135.217 96.356 134.833 96.692L134.257 95.738C134.737 95.33 135.313 95.018 135.985 94.802C136.657 94.574 137.365 94.46 138.109 94.46C139.333 94.46 140.275 94.766 140.935 95.378C141.607 95.978 141.943 96.896 141.943 98.132V104H140.719ZM137.461 104.09C136.753 104.09 136.135 103.976 135.607 103.748C135.091 103.508 134.695 103.184 134.419 102.776C134.143 102.356 134.005 101.876 134.005 101.336C134.005 100.844 134.119 100.4 134.347 100.004C134.587 99.596 134.971 99.272 135.499 99.032C136.039 98.78 136.759 98.654 137.659 98.654H140.917V99.608H137.695C136.783 99.608 136.147 99.77 135.787 100.094C135.439 100.418 135.265 100.82 135.265 101.3C135.265 101.84 135.475 102.272 135.895 102.596C136.315 102.92 136.903 103.082 137.659 103.082C138.379 103.082 138.997 102.92 139.513 102.596C140.041 102.26 140.425 101.78 140.665 101.156L140.953 102.038C140.713 102.662 140.293 103.16 139.693 103.532C139.105 103.904 138.361 104.09 137.461 104.09ZM145.504 104V94.55H146.728V97.124L146.602 96.674C146.866 95.954 147.31 95.408 147.934 95.036C148.558 94.652 149.332 94.46 150.256 94.46V95.702C150.208 95.702 150.16 95.702 150.112 95.702C150.064 95.69 150.016 95.684 149.968 95.684C148.972 95.684 148.192 95.99 147.628 96.602C147.064 97.202 146.782 98.06 146.782 99.176V104H145.504Z" fill="#7C82C5"/>
<g opacity="0.5">
<path fill-rule="evenodd" clip-rule="evenodd" d="M29.6483 156.065C27.9479 156.428 26.5644 157.825 26.139 159.609C25.7469 161.253 26.1973 162.994 27.3251 164.195C27.8968 164.804 28.6044 165.231 29.4622 165.486C29.7817 165.58 29.9012 165.586 31.8087 165.602L33.8187 165.619V167.562V169.505L33.6145 169.338C32.6632 168.56 31.2672 168.793 30.6353 169.835C30.24 170.486 30.2453 171.299 30.6493 171.949C30.745 172.103 31.251 172.587 32.2924 173.52L33.7972 174.868L33.8187 176.213C33.8391 177.49 33.8448 177.565 33.9307 177.688C33.9804 177.759 34.0868 177.858 34.1671 177.908C34.3103 177.998 34.3904 178 38.333 178C42.2755 178 42.3556 177.998 42.4988 177.908C42.5791 177.858 42.6855 177.759 42.7352 177.688C42.8254 177.559 42.8258 177.543 42.8385 173.52C42.8477 170.637 42.8373 169.404 42.8023 169.21C42.7103 168.696 42.4029 168.191 42.0055 167.9C41.6423 167.634 41.4682 167.594 39.6326 167.352C38.6695 167.225 37.838 167.111 37.7848 167.099C37.6894 167.077 37.6881 167.067 37.6881 166.347V165.617L40.9448 165.602L44.2015 165.587L44.5658 165.48C46.7206 164.844 48.1164 162.827 47.9924 160.53C47.9267 159.315 47.4769 158.257 46.6574 157.391C45.9727 156.667 45.2386 156.247 44.343 156.066C44.0431 156.005 43.0892 155.997 36.9632 156.001C31.3647 156.004 29.8707 156.017 29.6483 156.065ZM44.2757 157.459C45.3959 157.764 46.3058 158.726 46.6161 159.935C46.7345 160.395 46.7233 161.274 46.5935 161.721C46.2252 162.988 45.2959 163.909 44.128 164.166C43.8432 164.229 43.3681 164.239 40.7424 164.239H37.6881V163.146C37.6881 162.545 37.6686 161.943 37.6448 161.807C37.5373 161.193 37.1271 160.638 36.5717 160.354C36.2919 160.211 36.2005 160.188 35.8578 160.172C34.8869 160.126 34.125 160.716 33.8846 161.699C33.8339 161.906 33.8187 162.232 33.8187 163.104V164.239H32.0112C30.5256 164.239 30.1446 164.226 29.8723 164.166C29.2138 164.021 28.6521 163.683 28.1749 163.145C27.8278 162.753 27.6171 162.376 27.444 161.837C27.3225 161.459 27.3107 161.371 27.309 160.828C27.3069 160.161 27.3655 159.861 27.6035 159.316C27.9885 158.436 28.8077 157.712 29.7012 157.463C30.0022 157.379 30.2719 157.375 36.9825 157.373C43.7303 157.37 43.9616 157.373 44.2757 157.459ZM43.1697 158.797C43.1224 158.824 42.5856 159.374 41.9768 160.02L40.87 161.193L40.4076 160.706C40.1533 160.438 39.9029 160.197 39.8513 160.169C39.7023 160.088 39.4017 160.108 39.2462 160.209C38.9789 160.383 38.8716 160.709 38.98 161.019C39.0315 161.167 40.4016 162.655 40.5772 162.754C40.726 162.838 41.0128 162.838 41.1619 162.754C41.2257 162.718 41.9 162.023 42.6602 161.209C44.1226 159.643 44.1374 159.623 44.0755 159.272C44.0427 159.085 43.9123 158.902 43.7484 158.812C43.6052 158.733 43.2938 158.725 43.1697 158.797ZM36.0842 161.627C36.3924 161.827 36.3744 161.636 36.3983 164.955C36.4195 167.902 36.421 167.944 36.5103 168.071C36.6971 168.338 36.7346 168.347 39.0095 168.651C41.3938 168.971 41.3515 168.959 41.488 169.323C41.5485 169.484 41.5574 169.789 41.5574 171.704V173.902H38.1423H34.7271L33.2733 172.603C32.4737 171.889 31.7848 171.263 31.7424 171.212C31.4674 170.882 31.7324 170.339 32.2082 170.259C32.5298 170.204 32.6813 170.289 33.3682 170.906C34.159 171.617 34.2175 171.657 34.468 171.657C34.7102 171.658 34.926 171.518 35.0331 171.29C35.1032 171.142 35.1083 170.822 35.1085 166.598C35.1086 162.373 35.1137 162.053 35.1838 161.905C35.3451 161.563 35.7792 161.429 36.0842 161.627ZM41.5574 175.962V176.649H38.333H35.1085V175.962V175.275H38.333H41.5574V175.962Z" fill="#08138C"/>
</g>
<path d="M71.052 173V160.4H76.488C77.892 160.4 78.978 160.682 79.746 161.246C80.526 161.81 80.916 162.608 80.916 163.64C80.916 164.324 80.754 164.9 80.43 165.368C80.118 165.836 79.686 166.19 79.134 166.43C78.594 166.67 78 166.79 77.352 166.79L77.658 166.358C78.462 166.358 79.152 166.484 79.728 166.736C80.316 166.976 80.772 167.342 81.096 167.834C81.42 168.314 81.582 168.914 81.582 169.634C81.582 170.702 81.186 171.53 80.394 172.118C79.614 172.706 78.432 173 76.848 173H71.052ZM72.384 171.902H76.83C77.934 171.902 78.78 171.716 79.368 171.344C79.956 170.96 80.25 170.354 80.25 169.526C80.25 168.71 79.956 168.116 79.368 167.744C78.78 167.36 77.934 167.168 76.83 167.168H72.24V166.07H76.398C77.406 166.07 78.186 165.878 78.738 165.494C79.302 165.11 79.584 164.54 79.584 163.784C79.584 163.016 79.302 162.446 78.738 162.074C78.186 161.69 77.406 161.498 76.398 161.498H72.384V171.902ZM88.2943 173.09C87.3823 173.09 86.5603 172.886 85.8283 172.478C85.1083 172.058 84.5383 171.488 84.1183 170.768C83.6983 170.036 83.4883 169.202 83.4883 168.266C83.4883 167.318 83.6983 166.484 84.1183 165.764C84.5383 165.044 85.1083 164.48 85.8283 164.072C86.5483 163.664 87.3703 163.46 88.2943 163.46C89.2303 163.46 90.0583 163.664 90.7783 164.072C91.5103 164.48 92.0803 165.044 92.4883 165.764C92.9083 166.484 93.1183 167.318 93.1183 168.266C93.1183 169.202 92.9083 170.036 92.4883 170.768C92.0803 171.488 91.5103 172.058 90.7783 172.478C90.0463 172.886 89.2183 173.09 88.2943 173.09ZM88.2943 171.956C88.9783 171.956 89.5843 171.806 90.1123 171.506C90.6403 171.194 91.0543 170.762 91.3543 170.21C91.6663 169.646 91.8223 168.998 91.8223 168.266C91.8223 167.522 91.6663 166.874 91.3543 166.322C91.0543 165.77 90.6403 165.344 90.1123 165.044C89.5843 164.732 88.9843 164.576 88.3123 164.576C87.6403 164.576 87.0403 164.732 86.5123 165.044C85.9843 165.344 85.5643 165.77 85.2523 166.322C84.9403 166.874 84.7843 167.522 84.7843 168.266C84.7843 168.998 84.9403 169.646 85.2523 170.21C85.5643 170.762 85.9843 171.194 86.5123 171.506C87.0403 171.806 87.6343 171.956 88.2943 171.956ZM99.6695 173.09C98.7575 173.09 97.9355 172.886 97.2035 172.478C96.4835 172.058 95.9135 171.488 95.4935 170.768C95.0735 170.036 94.8635 169.202 94.8635 168.266C94.8635 167.318 95.0735 166.484 95.4935 165.764C95.9135 165.044 96.4835 164.48 97.2035 164.072C97.9235 163.664 98.7455 163.46 99.6695 163.46C100.605 163.46 101.433 163.664 102.153 164.072C102.885 164.48 103.455 165.044 103.863 165.764C104.283 166.484 104.493 167.318 104.493 168.266C104.493 169.202 104.283 170.036 103.863 170.768C103.455 171.488 102.885 172.058 102.153 172.478C101.421 172.886 100.593 173.09 99.6695 173.09ZM99.6695 171.956C100.353 171.956 100.959 171.806 101.487 171.506C102.015 171.194 102.429 170.762 102.729 170.21C103.041 169.646 103.197 168.998 103.197 168.266C103.197 167.522 103.041 166.874 102.729 166.322C102.429 165.77 102.015 165.344 101.487 165.044C100.959 164.732 100.359 164.576 99.6875 164.576C99.0155 164.576 98.4155 164.732 97.8875 165.044C97.3595 165.344 96.9395 165.77 96.6275 166.322C96.3155 166.874 96.1595 167.522 96.1595 168.266C96.1595 168.998 96.3155 169.646 96.6275 170.21C96.9395 170.762 97.3595 171.194 97.8875 171.506C98.4155 171.806 99.0095 171.956 99.6695 171.956ZM108.201 170.552L108.237 168.914L114.123 163.55H115.689L111.531 167.528L110.811 168.14L108.201 170.552ZM107.193 173V159.644H108.471V173H107.193ZM114.519 173L110.577 168.086L111.405 167.096L116.085 173H114.519ZM118.093 173V163.55H119.371V173H118.093ZM118.741 161.462C118.477 161.462 118.255 161.372 118.075 161.192C117.895 161.012 117.805 160.796 117.805 160.544C117.805 160.292 117.895 160.082 118.075 159.914C118.255 159.734 118.477 159.644 118.741 159.644C119.005 159.644 119.227 159.728 119.407 159.896C119.587 160.064 119.677 160.274 119.677 160.526C119.677 160.79 119.587 161.012 119.407 161.192C119.239 161.372 119.017 161.462 118.741 161.462ZM127.841 163.46C128.609 163.46 129.281 163.61 129.857 163.91C130.445 164.198 130.901 164.642 131.225 165.242C131.561 165.842 131.729 166.598 131.729 167.51V173H130.451V167.636C130.451 166.64 130.199 165.89 129.695 165.386C129.203 164.87 128.507 164.612 127.607 164.612C126.935 164.612 126.347 164.75 125.843 165.026C125.351 165.29 124.967 165.68 124.691 166.196C124.427 166.7 124.295 167.312 124.295 168.032V173H123.017V163.55H124.241V166.142L124.043 165.656C124.343 164.972 124.823 164.438 125.483 164.054C126.143 163.658 126.929 163.46 127.841 163.46ZM139.303 176.582C138.439 176.582 137.611 176.456 136.819 176.204C136.027 175.952 135.385 175.592 134.893 175.124L135.541 174.152C135.985 174.548 136.531 174.86 137.179 175.088C137.839 175.328 138.535 175.448 139.267 175.448C140.467 175.448 141.349 175.166 141.913 174.602C142.477 174.05 142.759 173.186 142.759 172.01V169.652L142.939 168.032L142.813 166.412V163.55H144.037V171.848C144.037 173.48 143.635 174.674 142.831 175.43C142.039 176.198 140.863 176.582 139.303 176.582ZM139.069 172.64C138.169 172.64 137.359 172.448 136.639 172.064C135.919 171.668 135.349 171.122 134.929 170.426C134.521 169.73 134.317 168.932 134.317 168.032C134.317 167.132 134.521 166.34 134.929 165.656C135.349 164.96 135.919 164.42 136.639 164.036C137.359 163.652 138.169 163.46 139.069 163.46C139.909 163.46 140.665 163.634 141.337 163.982C142.009 164.33 142.543 164.846 142.939 165.53C143.335 166.214 143.533 167.048 143.533 168.032C143.533 169.016 143.335 169.85 142.939 170.534C142.543 171.218 142.009 171.74 141.337 172.1C140.665 172.46 139.909 172.64 139.069 172.64ZM139.195 171.506C139.891 171.506 140.509 171.362 141.049 171.074C141.589 170.774 142.015 170.366 142.327 169.85C142.639 169.322 142.795 168.716 142.795 168.032C142.795 167.348 142.639 166.748 142.327 166.232C142.015 165.716 141.589 165.314 141.049 165.026C140.509 164.726 139.891 164.576 139.195 164.576C138.511 164.576 137.893 164.726 137.341 165.026C136.801 165.314 136.375 165.716 136.063 166.232C135.763 166.748 135.613 167.348 135.613 168.032C135.613 168.716 135.763 169.322 136.063 169.85C136.375 170.366 136.801 170.774 137.341 171.074C137.893 171.362 138.511 171.506 139.195 171.506ZM150.221 173.09C149.441 173.09 148.703 172.982 148.007 172.766C147.311 172.538 146.765 172.256 146.369 171.92L146.945 170.912C147.329 171.2 147.821 171.452 148.421 171.668C149.021 171.872 149.651 171.974 150.311 171.974C151.211 171.974 151.859 171.836 152.255 171.56C152.651 171.272 152.849 170.894 152.849 170.426C152.849 170.078 152.735 169.808 152.507 169.616C152.291 169.412 152.003 169.262 151.643 169.166C151.283 169.058 150.881 168.968 150.437 168.896C149.993 168.824 149.549 168.74 149.105 168.644C148.673 168.548 148.277 168.41 147.917 168.23C147.557 168.038 147.263 167.78 147.035 167.456C146.819 167.132 146.711 166.7 146.711 166.16C146.711 165.644 146.855 165.182 147.143 164.774C147.431 164.366 147.851 164.048 148.403 163.82C148.967 163.58 149.651 163.46 150.455 163.46C151.067 163.46 151.679 163.544 152.291 163.712C152.903 163.868 153.407 164.078 153.803 164.342L153.245 165.368C152.825 165.08 152.375 164.876 151.895 164.756C151.415 164.624 150.935 164.558 150.455 164.558C149.603 164.558 148.973 164.708 148.565 165.008C148.169 165.296 147.971 165.668 147.971 166.124C147.971 166.484 148.079 166.766 148.295 166.97C148.523 167.174 148.817 167.336 149.177 167.456C149.549 167.564 149.951 167.654 150.383 167.726C150.827 167.798 151.265 167.888 151.697 167.996C152.141 168.092 152.543 168.23 152.903 168.41C153.275 168.578 153.569 168.824 153.785 169.148C154.013 169.46 154.127 169.874 154.127 170.39C154.127 170.942 153.971 171.422 153.659 171.83C153.359 172.226 152.915 172.538 152.327 172.766C151.751 172.982 151.049 173.09 150.221 173.09Z" fill="#7C82C5"/>
<rect x="15" y="214" width="44" height="44" rx="6" fill="white" fill-opacity="0.2"/>
<g opacity="0.5">
<path d="M36.25 245.5C36.0375 245.5 35.8594 245.428 35.7157 245.284C35.5719 245.14 35.5 244.962 35.5 244.75C35.5 244.537 35.5719 244.359 35.7157 244.215C35.8594 244.072 36.0375 244 36.25 244H46.75C46.9625 244 47.1406 244.072 47.2842 244.216C47.4281 244.36 47.5 244.538 47.5 244.75C47.5 244.963 47.4281 245.141 47.2842 245.284C47.1406 245.428 46.9625 245.5 46.75 245.5H36.25ZM36.5 242.808C36.5 241.554 36.9041 240.463 37.7125 239.534C38.5208 238.606 39.5333 238.054 40.75 237.879V237.36C40.75 237.153 40.8219 236.977 40.9657 236.83C41.1094 236.683 41.2875 236.61 41.5 236.61C41.7063 236.61 41.8829 236.683 42.0297 236.83C42.1766 236.977 42.25 237.153 42.25 237.36V237.879C43.4563 238.054 44.4662 238.606 45.2797 239.534C46.0932 240.463 46.5 241.554 46.5 242.808H36.5ZM38.4135 241.292H44.5462C44.2872 240.701 43.8862 240.219 43.3432 239.844C42.8002 239.47 42.1858 239.283 41.5 239.283C40.8038 239.283 40.1801 239.47 39.6287 239.844C39.0776 240.219 38.6725 240.701 38.4135 241.292ZM26.5192 234.942V228.404C26.5192 227.982 26.667 227.623 26.9625 227.328C27.258 227.032 27.6166 226.885 28.0385 226.885H30C30.3295 226.885 30.6446 226.999 30.9452 227.228C31.2457 227.457 31.4371 227.736 31.5192 228.065V228.258L38.3 226.313C38.4641 226.27 38.6381 226.247 38.822 226.243C39.006 226.24 39.1801 226.269 39.3442 226.329L45.7902 228.342C45.9564 228.394 46.0874 228.488 46.1832 228.624C46.2789 228.76 46.3267 228.912 46.3267 229.081V229.25C46.3267 229.968 46.064 230.574 45.5385 231.067C45.0128 231.561 44.3846 231.808 43.6537 231.808H41.3845V232.35C41.3845 232.735 41.2685 233.08 41.0365 233.386C40.8045 233.693 40.5064 233.918 40.1422 234.061L33.9922 236.346C33.8884 236.379 33.7856 236.407 33.6837 236.429C33.5817 236.451 33.4736 236.461 33.3595 236.461H28.0385C27.6166 236.461 27.258 236.314 26.9625 236.018C26.667 235.723 26.5192 235.364 26.5192 234.942ZM28.0192 231.673V234.961H30.0192V228.385H28.0192V231.673ZM31.5192 232.385V234.961H33.427L39.323 232.798C39.4946 232.736 39.6311 232.633 39.7325 232.486C39.8338 232.34 39.8845 232.175 39.8845 231.99V231.808H38.0327L35.8172 232.544C35.6211 232.608 35.431 232.592 35.247 232.496C35.0631 232.4 34.9391 232.249 34.875 232.042C34.8108 231.84 34.8229 231.649 34.9112 231.47C34.9994 231.291 35.1444 231.17 35.3462 231.106L37.7577 230.308H43.6537C43.8422 230.308 44.065 230.246 44.322 230.121C44.5791 229.997 44.7206 229.824 44.7462 229.604L38.777 227.754L31.5192 229.808V232.385Z" fill="#08138C"/>
</g>
<path d="M72.24 235.502H78.9V236.654H72.24V235.502ZM72.384 242H71.052V229.4H79.692V230.552H72.384V242ZM87.7979 242V239.912L87.7439 239.57V236.078C87.7439 235.274 87.5159 234.656 87.0599 234.224C86.6159 233.792 85.9499 233.576 85.0619 233.576C84.4499 233.576 83.8679 233.678 83.3159 233.882C82.7639 234.086 82.2959 234.356 81.9119 234.692L81.3359 233.738C81.8159 233.33 82.3919 233.018 83.0639 232.802C83.7359 232.574 84.4439 232.46 85.1879 232.46C86.4119 232.46 87.3539 232.766 88.0139 233.378C88.6859 233.978 89.0219 234.896 89.0219 236.132V242H87.7979ZM84.5399 242.09C83.8319 242.09 83.2139 241.976 82.6859 241.748C82.1699 241.508 81.7739 241.184 81.4979 240.776C81.2219 240.356 81.0839 239.876 81.0839 239.336C81.0839 238.844 81.1979 238.4 81.4259 238.004C81.6659 237.596 82.0499 237.272 82.5779 237.032C83.1179 236.78 83.8379 236.654 84.7379 236.654H87.9959V237.608H84.7739C83.8619 237.608 83.2259 237.77 82.8659 238.094C82.5179 238.418 82.3439 238.82 82.3439 239.3C82.3439 239.84 82.5539 240.272 82.9739 240.596C83.3939 240.92 83.9819 241.082 84.7379 241.082C85.4579 241.082 86.0759 240.92 86.5919 240.596C87.1199 240.26 87.5039 239.78 87.7439 239.156L88.0319 240.038C87.7919 240.662 87.3719 241.16 86.7719 241.532C86.1839 241.904 85.4399 242.09 84.5399 242.09ZM96.5071 242.09C95.5711 242.09 94.7311 241.886 93.9871 241.478C93.2551 241.058 92.6791 240.488 92.2591 239.768C91.8391 239.036 91.6291 238.202 91.6291 237.266C91.6291 236.318 91.8391 235.484 92.2591 234.764C92.6791 234.044 93.2551 233.48 93.9871 233.072C94.7311 232.664 95.5711 232.46 96.5071 232.46C97.3111 232.46 98.0371 232.616 98.6851 232.928C99.3331 233.24 99.8431 233.708 100.215 234.332L99.2611 234.98C98.9371 234.5 98.5351 234.146 98.0551 233.918C97.5751 233.69 97.0531 233.576 96.4891 233.576C95.8171 233.576 95.2111 233.732 94.6711 234.044C94.1311 234.344 93.7051 234.77 93.3931 235.322C93.0811 235.874 92.9251 236.522 92.9251 237.266C92.9251 238.01 93.0811 238.658 93.3931 239.21C93.7051 239.762 94.1311 240.194 94.6711 240.506C95.2111 240.806 95.8171 240.956 96.4891 240.956C97.0531 240.956 97.5751 240.842 98.0551 240.614C98.5351 240.386 98.9371 240.038 99.2611 239.57L100.215 240.218C99.8431 240.83 99.3331 241.298 98.6851 241.622C98.0371 241.934 97.3111 242.09 96.5071 242.09ZM102.675 242V232.55H103.953V242H102.675ZM103.323 230.462C103.059 230.462 102.837 230.372 102.657 230.192C102.477 230.012 102.387 229.796 102.387 229.544C102.387 229.292 102.477 229.082 102.657 228.914C102.837 228.734 103.059 228.644 103.323 228.644C103.587 228.644 103.809 228.728 103.989 228.896C104.169 229.064 104.259 229.274 104.259 229.526C104.259 229.79 104.169 230.012 103.989 230.192C103.821 230.372 103.599 230.462 103.323 230.462ZM107.599 242V228.644H108.877V242H107.599ZM112.523 242V232.55H113.801V242H112.523ZM113.171 230.462C112.907 230.462 112.685 230.372 112.505 230.192C112.325 230.012 112.235 229.796 112.235 229.544C112.235 229.292 112.325 229.082 112.505 228.914C112.685 228.734 112.907 228.644 113.171 228.644C113.435 228.644 113.657 228.728 113.837 228.896C114.017 229.064 114.107 229.274 114.107 229.526C114.107 229.79 114.017 230.012 113.837 230.192C113.669 230.372 113.447 230.462 113.171 230.462ZM120.435 242.09C119.547 242.09 118.863 241.85 118.383 241.37C117.903 240.89 117.663 240.212 117.663 239.336V230.462H118.941V239.264C118.941 239.816 119.079 240.242 119.355 240.542C119.643 240.842 120.051 240.992 120.579 240.992C121.143 240.992 121.611 240.83 121.983 240.506L122.433 241.424C122.181 241.652 121.875 241.82 121.515 241.928C121.167 242.036 120.807 242.09 120.435 242.09ZM115.971 233.612V232.55H121.821V233.612H115.971ZM124.85 242V232.55H126.128V242H124.85ZM125.498 230.462C125.234 230.462 125.012 230.372 124.832 230.192C124.652 230.012 124.562 229.796 124.562 229.544C124.562 229.292 124.652 229.082 124.832 228.914C125.012 228.734 125.234 228.644 125.498 228.644C125.762 228.644 125.984 228.728 126.164 228.896C126.344 229.064 126.434 229.274 126.434 229.526C126.434 229.79 126.344 230.012 126.164 230.192C125.996 230.372 125.774 230.462 125.498 230.462ZM133.787 242.09C132.803 242.09 131.939 241.886 131.195 241.478C130.451 241.058 129.869 240.488 129.449 239.768C129.029 239.036 128.819 238.202 128.819 237.266C128.819 236.33 129.017 235.502 129.413 234.782C129.821 234.062 130.373 233.498 131.069 233.09C131.777 232.67 132.569 232.46 133.445 232.46C134.333 232.46 135.119 232.664 135.803 233.072C136.499 233.468 137.045 234.032 137.441 234.764C137.837 235.484 138.035 236.318 138.035 237.266C138.035 237.326 138.029 237.392 138.017 237.464C138.017 237.524 138.017 237.59 138.017 237.662H129.791V236.708H137.333L136.829 237.086C136.829 236.402 136.679 235.796 136.379 235.268C136.091 234.728 135.695 234.308 135.191 234.008C134.687 233.708 134.105 233.558 133.445 233.558C132.797 233.558 132.215 233.708 131.699 234.008C131.183 234.308 130.781 234.728 130.493 235.268C130.205 235.808 130.061 236.426 130.061 237.122V237.32C130.061 238.04 130.217 238.676 130.529 239.228C130.853 239.768 131.297 240.194 131.861 240.506C132.437 240.806 133.091 240.956 133.823 240.956C134.399 240.956 134.933 240.854 135.425 240.65C135.929 240.446 136.361 240.134 136.721 239.714L137.441 240.542C137.021 241.046 136.493 241.43 135.857 241.694C135.233 241.958 134.543 242.09 133.787 242.09ZM143.265 242.09C142.485 242.09 141.747 241.982 141.051 241.766C140.355 241.538 139.809 241.256 139.413 240.92L139.989 239.912C140.373 240.2 140.865 240.452 141.465 240.668C142.065 240.872 142.695 240.974 143.355 240.974C144.255 240.974 144.903 240.836 145.299 240.56C145.695 240.272 145.893 239.894 145.893 239.426C145.893 239.078 145.779 238.808 145.551 238.616C145.335 238.412 145.047 238.262 144.687 238.166C144.327 238.058 143.925 237.968 143.481 237.896C143.037 237.824 142.593 237.74 142.149 237.644C141.717 237.548 141.321 237.41 140.961 237.23C140.601 237.038 140.307 236.78 140.079 236.456C139.863 236.132 139.755 235.7 139.755 235.16C139.755 234.644 139.899 234.182 140.187 233.774C140.475 233.366 140.895 233.048 141.447 232.82C142.011 232.58 142.695 232.46 143.499 232.46C144.111 232.46 144.723 232.544 145.335 232.712C145.947 232.868 146.451 233.078 146.847 233.342L146.289 234.368C145.869 234.08 145.419 233.876 144.939 233.756C144.459 233.624 143.979 233.558 143.499 233.558C142.647 233.558 142.017 233.708 141.609 234.008C141.213 234.296 141.015 234.668 141.015 235.124C141.015 235.484 141.123 235.766 141.339 235.97C141.567 236.174 141.861 236.336 142.221 236.456C142.593 236.564 142.995 236.654 143.427 236.726C143.871 236.798 144.309 236.888 144.741 236.996C145.185 237.092 145.587 237.23 145.947 237.41C146.319 237.578 146.613 237.824 146.829 238.148C147.057 238.46 147.171 238.874 147.171 239.39C147.171 239.942 147.015 240.422 146.703 240.83C146.403 241.226 145.959 241.538 145.371 241.766C144.795 241.982 144.093 242.09 143.265 242.09Z" fill="#7C82C5"/>
<g opacity="0.5">
<rect x="15" y="283" width="44" height="44" rx="6" fill="white" fill-opacity="0.2"/>
<path d="M37.1348 313.5C36.9219 313.5 36.7437 313.428 36.6 313.285C36.4565 313.141 36.3848 312.963 36.3848 312.75C36.3848 312.537 36.4565 312.359 36.6 312.215C36.7437 312.072 36.9219 312 37.1348 312H43.6923C43.7756 312 43.8477 311.974 43.9088 311.923C43.9696 311.872 44 311.805 44 311.721V304.727C44 302.815 43.316 301.206 41.948 299.899C40.5802 298.592 38.9308 297.938 37 297.938C35.0692 297.938 33.4198 298.592 32.052 299.899C30.684 301.206 30 302.815 30 304.727V309.865C30 310.078 29.9282 310.256 29.7845 310.4C29.641 310.543 29.4628 310.615 29.25 310.615C28.7705 310.615 28.359 310.448 28.0155 310.114C27.6718 309.78 27.5 309.374 27.5 308.894V306.952C27.5 306.628 27.5923 306.331 27.777 306.061C27.9617 305.791 28.2027 305.574 28.5 305.41L28.5463 304.133C28.6283 303.044 28.9109 302.036 29.3943 301.108C29.8776 300.18 30.4974 299.372 31.2537 298.684C32.0103 297.996 32.8833 297.46 33.873 297.076C34.8628 296.692 35.9052 296.5 37 296.5C38.0948 296.5 39.1346 296.692 40.1193 297.076C41.1039 297.46 41.977 297.993 42.7385 298.676C43.5 299.359 44.1198 300.164 44.598 301.092C45.0762 302.021 45.3614 303.029 45.4538 304.117L45.5 305.369C45.791 305.506 46.0304 305.703 46.2183 305.958C46.4061 306.213 46.5 306.497 46.5 306.811V309.044C46.5 309.358 46.4061 309.643 46.2183 309.898C46.0304 310.153 45.791 310.349 45.5 310.486V311.721C45.5 312.213 45.3234 312.633 44.9703 312.98C44.6169 313.327 44.1909 313.5 43.6923 313.5H37.1348ZM34.1923 306.769C33.9474 306.769 33.7387 306.686 33.5662 306.52C33.3939 306.354 33.3078 306.149 33.3078 305.904C33.3078 305.659 33.3939 305.452 33.5662 305.283C33.7387 305.113 33.9474 305.029 34.1923 305.029C34.4373 305.029 34.6459 305.113 34.8183 305.283C34.9908 305.452 35.077 305.659 35.077 305.904C35.077 306.149 34.9908 306.354 34.8183 306.52C34.6459 306.686 34.4373 306.769 34.1923 306.769ZM39.8077 306.769C39.5627 306.769 39.3541 306.686 39.1818 306.52C39.0093 306.354 38.923 306.149 38.923 305.904C38.923 305.659 39.0093 305.452 39.1818 305.283C39.3541 305.113 39.5627 305.029 39.8077 305.029C40.0526 305.029 40.2612 305.113 40.4337 305.283C40.6061 305.452 40.6923 305.659 40.6923 305.904C40.6923 306.149 40.6061 306.354 40.4337 306.52C40.2612 306.686 40.0526 306.769 39.8077 306.769ZM31.3713 305.2C31.2674 303.568 31.7751 302.171 32.8942 301.01C34.0134 299.85 35.3987 299.269 37.05 299.269C38.4372 299.269 39.6612 299.698 40.722 300.557C41.783 301.415 42.4269 302.526 42.6538 303.89C41.2333 303.874 39.9208 303.501 38.7163 302.771C37.5118 302.042 36.5871 301.042 35.9423 299.771C35.6884 301.015 35.1564 302.114 34.3463 303.069C33.5359 304.024 32.5443 304.735 31.3713 305.2Z" fill="#08138C"/>
</g>
<path d="M74.526 311.108C73.59 311.108 72.69 310.958 71.826 310.658C70.974 310.346 70.314 309.95 69.846 309.47L70.368 308.444C70.812 308.876 71.406 309.242 72.15 309.542C72.906 309.83 73.698 309.974 74.526 309.974C75.318 309.974 75.96 309.878 76.452 309.686C76.956 309.482 77.322 309.212 77.55 308.876C77.79 308.54 77.91 308.168 77.91 307.76C77.91 307.268 77.766 306.872 77.478 306.572C77.202 306.272 76.836 306.038 76.38 305.87C75.924 305.69 75.42 305.534 74.868 305.402C74.316 305.27 73.764 305.132 73.212 304.988C72.66 304.832 72.15 304.628 71.682 304.376C71.226 304.124 70.854 303.794 70.566 303.386C70.29 302.966 70.152 302.42 70.152 301.748C70.152 301.124 70.314 300.554 70.638 300.038C70.974 299.51 71.484 299.09 72.168 298.778C72.852 298.454 73.728 298.292 74.796 298.292C75.504 298.292 76.206 298.394 76.902 298.598C77.598 298.79 78.198 299.06 78.702 299.408L78.252 300.47C77.712 300.11 77.136 299.846 76.524 299.678C75.924 299.51 75.342 299.426 74.778 299.426C74.022 299.426 73.398 299.528 72.906 299.732C72.414 299.936 72.048 300.212 71.808 300.56C71.58 300.896 71.466 301.28 71.466 301.712C71.466 302.204 71.604 302.6 71.88 302.9C72.168 303.2 72.54 303.434 72.996 303.602C73.464 303.77 73.974 303.92 74.526 304.052C75.078 304.184 75.624 304.328 76.164 304.484C76.716 304.64 77.22 304.844 77.676 305.096C78.144 305.336 78.516 305.66 78.792 306.068C79.08 306.476 79.224 307.01 79.224 307.67C79.224 308.282 79.056 308.852 78.72 309.38C78.384 309.896 77.868 310.316 77.172 310.64C76.488 310.952 75.606 311.108 74.526 311.108ZM85.9602 311.09C84.9762 311.09 84.1122 310.886 83.3682 310.478C82.6242 310.058 82.0422 309.488 81.6222 308.768C81.2022 308.036 80.9922 307.202 80.9922 306.266C80.9922 305.33 81.1902 304.502 81.5862 303.782C81.9942 303.062 82.5462 302.498 83.2422 302.09C83.9502 301.67 84.7422 301.46 85.6182 301.46C86.5062 301.46 87.2922 301.664 87.9762 302.072C88.6722 302.468 89.2182 303.032 89.6142 303.764C90.0102 304.484 90.2082 305.318 90.2082 306.266C90.2082 306.326 90.2022 306.392 90.1902 306.464C90.1902 306.524 90.1902 306.59 90.1902 306.662H81.9642V305.708H89.5062L89.0022 306.086C89.0022 305.402 88.8522 304.796 88.5522 304.268C88.2642 303.728 87.8682 303.308 87.3642 303.008C86.8602 302.708 86.2782 302.558 85.6182 302.558C84.9702 302.558 84.3882 302.708 83.8722 303.008C83.3562 303.308 82.9542 303.728 82.6662 304.268C82.3782 304.808 82.2342 305.426 82.2342 306.122V306.32C82.2342 307.04 82.3902 307.676 82.7022 308.228C83.0262 308.768 83.4702 309.194 84.0342 309.506C84.6102 309.806 85.2642 309.956 85.9962 309.956C86.5722 309.956 87.1062 309.854 87.5982 309.65C88.1022 309.446 88.5342 309.134 88.8942 308.714L89.6142 309.542C89.1942 310.046 88.6662 310.43 88.0302 310.694C87.4062 310.958 86.7162 311.09 85.9602 311.09ZM92.8995 311V301.55H94.1235V304.124L93.9975 303.674C94.2615 302.954 94.7055 302.408 95.3295 302.036C95.9535 301.652 96.7275 301.46 97.6515 301.46V302.702C97.6035 302.702 97.5555 302.702 97.5075 302.702C97.4595 302.69 97.4115 302.684 97.3635 302.684C96.3675 302.684 95.5875 302.99 95.0235 303.602C94.4595 304.202 94.1775 305.06 94.1775 306.176V311H92.8995ZM102.908 311L98.7138 301.55H100.046L103.898 310.316H103.268L107.174 301.55H108.434L104.222 311H102.908ZM110.324 311V301.55H111.602V311H110.324ZM110.972 299.462C110.708 299.462 110.486 299.372 110.306 299.192C110.126 299.012 110.036 298.796 110.036 298.544C110.036 298.292 110.126 298.082 110.306 297.914C110.486 297.734 110.708 297.644 110.972 297.644C111.236 297.644 111.458 297.728 111.638 297.896C111.818 298.064 111.908 298.274 111.908 298.526C111.908 298.79 111.818 299.012 111.638 299.192C111.47 299.372 111.248 299.462 110.972 299.462ZM119.172 311.09C118.236 311.09 117.396 310.886 116.652 310.478C115.92 310.058 115.344 309.488 114.924 308.768C114.504 308.036 114.294 307.202 114.294 306.266C114.294 305.318 114.504 304.484 114.924 303.764C115.344 303.044 115.92 302.48 116.652 302.072C117.396 301.664 118.236 301.46 119.172 301.46C119.976 301.46 120.702 301.616 121.35 301.928C121.998 302.24 122.508 302.708 122.88 303.332L121.926 303.98C121.602 303.5 121.2 303.146 120.72 302.918C120.24 302.69 119.718 302.576 119.154 302.576C118.482 302.576 117.876 302.732 117.336 303.044C116.796 303.344 116.37 303.77 116.058 304.322C115.746 304.874 115.59 305.522 115.59 306.266C115.59 307.01 115.746 307.658 116.058 308.21C116.37 308.762 116.796 309.194 117.336 309.506C117.876 309.806 118.482 309.956 119.154 309.956C119.718 309.956 120.24 309.842 120.72 309.614C121.2 309.386 121.602 309.038 121.926 308.57L122.88 309.218C122.508 309.83 121.998 310.298 121.35 310.622C120.702 310.934 119.976 311.09 119.172 311.09ZM129.336 311.09C128.352 311.09 127.488 310.886 126.744 310.478C126 310.058 125.418 309.488 124.998 308.768C124.578 308.036 124.368 307.202 124.368 306.266C124.368 305.33 124.566 304.502 124.962 303.782C125.37 303.062 125.922 302.498 126.618 302.09C127.326 301.67 128.118 301.46 128.994 301.46C129.882 301.46 130.668 301.664 131.352 302.072C132.048 302.468 132.594 303.032 132.99 303.764C133.386 304.484 133.584 305.318 133.584 306.266C133.584 306.326 133.578 306.392 133.566 306.464C133.566 306.524 133.566 306.59 133.566 306.662H125.34V305.708H132.882L132.378 306.086C132.378 305.402 132.228 304.796 131.928 304.268C131.64 303.728 131.244 303.308 130.74 303.008C130.236 302.708 129.654 302.558 128.994 302.558C128.346 302.558 127.764 302.708 127.248 303.008C126.732 303.308 126.33 303.728 126.042 304.268C125.754 304.808 125.61 305.426 125.61 306.122V306.32C125.61 307.04 125.766 307.676 126.078 308.228C126.402 308.768 126.846 309.194 127.41 309.506C127.986 309.806 128.64 309.956 129.372 309.956C129.948 309.956 130.482 309.854 130.974 309.65C131.478 309.446 131.91 309.134 132.27 308.714L132.99 309.542C132.57 310.046 132.042 310.43 131.406 310.694C130.782 310.958 130.092 311.09 129.336 311.09ZM138.813 311.09C138.033 311.09 137.295 310.982 136.599 310.766C135.903 310.538 135.357 310.256 134.961 309.92L135.537 308.912C135.921 309.2 136.413 309.452 137.013 309.668C137.613 309.872 138.243 309.974 138.903 309.974C139.803 309.974 140.451 309.836 140.847 309.56C141.243 309.272 141.441 308.894 141.441 308.426C141.441 308.078 141.327 307.808 141.099 307.616C140.883 307.412 140.595 307.262 140.235 307.166C139.875 307.058 139.473 306.968 139.029 306.896C138.585 306.824 138.141 306.74 137.697 306.644C137.265 306.548 136.869 306.41 136.509 306.23C136.149 306.038 135.855 305.78 135.627 305.456C135.411 305.132 135.303 304.7 135.303 304.16C135.303 303.644 135.447 303.182 135.735 302.774C136.023 302.366 136.443 302.048 136.995 301.82C137.559 301.58 138.243 301.46 139.047 301.46C139.659 301.46 140.271 301.544 140.883 301.712C141.495 301.868 141.999 302.078 142.395 302.342L141.837 303.368C141.417 303.08 140.967 302.876 140.487 302.756C140.007 302.624 139.527 302.558 139.047 302.558C138.195 302.558 137.565 302.708 137.157 303.008C136.761 303.296 136.563 303.668 136.563 304.124C136.563 304.484 136.671 304.766 136.887 304.97C137.115 305.174 137.409 305.336 137.769 305.456C138.141 305.564 138.543 305.654 138.975 305.726C139.419 305.798 139.857 305.888 140.289 305.996C140.733 306.092 141.135 306.23 141.495 306.41C141.867 306.578 142.161 306.824 142.377 307.148C142.605 307.46 142.719 307.874 142.719 308.39C142.719 308.942 142.563 309.422 142.251 309.83C141.951 310.226 141.507 310.538 140.919 310.766C140.343 310.982 139.641 311.09 138.813 311.09Z" fill="#7C82C5"/>
<g opacity="0.5">
<rect x="15" y="352" width="44" height="44" rx="6" fill="white" fill-opacity="0.2"/>
<path d="M26.7983 379.084C26.7983 378.569 26.9313 378.109 27.1973 377.705C27.4633 377.3 27.8185 376.986 28.263 376.761C29.2134 376.296 30.1689 375.938 31.1298 375.686C32.0908 375.434 33.1469 375.308 34.298 375.308C35.4494 375.308 36.5054 375.434 37.4663 375.686C38.4273 375.938 39.3829 376.296 40.3333 376.761C40.7778 376.986 41.133 377.3 41.399 377.705C41.665 378.109 41.798 378.569 41.798 379.084V379.788C41.798 380.191 41.6503 380.545 41.3548 380.85C41.0593 381.155 40.7006 381.308 40.2788 381.308H28.3173C27.8956 381.308 27.537 381.16 27.2415 380.865C26.946 380.569 26.7983 380.21 26.7983 379.788V379.084ZM45.6828 381.308H43.4115C43.5372 381.078 43.633 380.834 43.699 380.575C43.765 380.316 43.798 380.054 43.798 379.788V378.961C43.798 378.305 43.6374 377.68 43.316 377.085C42.9945 376.49 42.5385 375.98 41.948 375.554C42.6185 375.654 43.2551 375.809 43.8578 376.018C44.4603 376.228 45.0353 376.476 45.5828 376.761C46.0994 377.037 46.4984 377.362 46.7798 377.736C47.0611 378.11 47.2018 378.519 47.2018 378.961V379.788C47.2018 380.21 47.054 380.569 46.7585 380.865C46.463 381.16 46.1044 381.308 45.6828 381.308ZM34.298 373.692C33.3355 373.692 32.5116 373.35 31.8263 372.664C31.1409 371.979 30.7983 371.155 30.7983 370.192C30.7983 369.23 31.1409 368.406 31.8263 367.72C32.5116 367.035 33.3355 366.692 34.298 366.692C35.2605 366.692 36.0845 367.035 36.77 367.72C37.4554 368.406 37.798 369.23 37.798 370.192C37.798 371.155 37.4554 371.979 36.77 372.664C36.0845 373.35 35.2605 373.692 34.298 373.692ZM42.9325 370.192C42.9325 371.155 42.5899 371.979 41.9045 372.664C41.2192 373.35 40.3953 373.692 39.4328 373.692C39.3199 373.692 39.1764 373.679 39.002 373.654C38.8275 373.628 38.6839 373.6 38.5713 373.569C38.9656 373.095 39.2687 372.569 39.4805 371.991C39.6922 371.413 39.798 370.813 39.798 370.191C39.798 369.569 39.69 368.971 39.474 368.398C39.258 367.825 38.9571 367.297 38.5713 366.815C38.7148 366.764 38.8584 366.731 39.002 366.715C39.1455 366.7 39.2891 366.692 39.4328 366.692C40.3953 366.692 41.2192 367.035 41.9045 367.72C42.5899 368.406 42.9325 369.23 42.9325 370.192ZM28.298 379.808H40.298V379.084C40.298 378.876 40.2458 378.69 40.1413 378.527C40.0369 378.364 39.8713 378.222 39.6443 378.1C38.8213 377.676 37.9739 377.354 37.102 377.135C36.2302 376.917 35.2955 376.808 34.298 376.808C33.3007 376.808 32.3661 376.917 31.4943 377.135C30.6224 377.354 29.775 377.676 28.952 378.1C28.725 378.222 28.5593 378.364 28.4548 378.527C28.3503 378.69 28.298 378.876 28.298 379.084V379.808ZM34.298 372.192C34.848 372.192 35.3189 371.996 35.7105 371.605C36.1022 371.213 36.298 370.742 36.298 370.192C36.298 369.642 36.1022 369.171 35.7105 368.78C35.3189 368.388 34.848 368.192 34.298 368.192C33.748 368.192 33.2772 368.388 32.8855 368.78C32.4939 369.171 32.298 369.642 32.298 370.192C32.298 370.742 32.4939 371.213 32.8855 371.605C33.2772 371.996 33.748 372.192 34.298 372.192Z" fill="#08138C"/>
</g>
<path d="M76.524 380.108C75.576 380.108 74.7 379.952 73.896 379.64C73.092 379.316 72.396 378.866 71.808 378.29C71.22 377.714 70.758 377.036 70.422 376.256C70.098 375.476 69.936 374.624 69.936 373.7C69.936 372.776 70.098 371.924 70.422 371.144C70.758 370.364 71.22 369.686 71.808 369.11C72.408 368.534 73.11 368.09 73.914 367.778C74.718 367.454 75.594 367.292 76.542 367.292C77.454 367.292 78.312 367.448 79.116 367.76C79.92 368.06 80.598 368.516 81.15 369.128L80.304 369.974C79.788 369.446 79.218 369.068 78.594 368.84C77.97 368.6 77.298 368.48 76.578 368.48C75.822 368.48 75.12 368.612 74.472 368.876C73.824 369.128 73.26 369.494 72.78 369.974C72.3 370.442 71.922 370.994 71.646 371.63C71.382 372.254 71.25 372.944 71.25 373.7C71.25 374.456 71.382 375.152 71.646 375.788C71.922 376.412 72.3 376.964 72.78 377.444C73.26 377.912 73.824 378.278 74.472 378.542C75.12 378.794 75.822 378.92 76.578 378.92C77.298 378.92 77.97 378.8 78.594 378.56C79.218 378.32 79.788 377.936 80.304 377.408L81.15 378.254C80.598 378.866 79.92 379.328 79.116 379.64C78.312 379.952 77.448 380.108 76.524 380.108ZM87.3991 380.09C86.5951 380.09 85.8931 379.94 85.2931 379.64C84.6931 379.34 84.2251 378.89 83.8891 378.29C83.5651 377.69 83.4031 376.94 83.4031 376.04V370.55H84.6811V375.896C84.6811 376.904 84.9271 377.666 85.4191 378.182C85.9231 378.686 86.6251 378.938 87.5251 378.938C88.1851 378.938 88.7551 378.806 89.2351 378.542C89.7271 378.266 90.0991 377.87 90.3511 377.354C90.6151 376.838 90.7471 376.22 90.7471 375.5V370.55H92.0251V380H90.8011V377.408L90.9991 377.876C90.6991 378.572 90.2311 379.118 89.5951 379.514C88.9711 379.898 88.2391 380.09 87.3991 380.09ZM98.2148 380.09C97.4348 380.09 96.6968 379.982 96.0008 379.766C95.3048 379.538 94.7588 379.256 94.3628 378.92L94.9388 377.912C95.3228 378.2 95.8148 378.452 96.4148 378.668C97.0148 378.872 97.6448 378.974 98.3048 378.974C99.2048 378.974 99.8528 378.836 100.249 378.56C100.645 378.272 100.843 377.894 100.843 377.426C100.843 377.078 100.729 376.808 100.501 376.616C100.285 376.412 99.9968 376.262 99.6368 376.166C99.2768 376.058 98.8748 375.968 98.4308 375.896C97.9868 375.824 97.5428 375.74 97.0988 375.644C96.6668 375.548 96.2708 375.41 95.9108 375.23C95.5508 375.038 95.2568 374.78 95.0288 374.456C94.8128 374.132 94.7048 373.7 94.7048 373.16C94.7048 372.644 94.8488 372.182 95.1368 371.774C95.4248 371.366 95.8448 371.048 96.3968 370.82C96.9608 370.58 97.6448 370.46 98.4488 370.46C99.0608 370.46 99.6728 370.544 100.285 370.712C100.897 370.868 101.401 371.078 101.797 371.342L101.239 372.368C100.819 372.08 100.369 371.876 99.8888 371.756C99.4088 371.624 98.9288 371.558 98.4488 371.558C97.5968 371.558 96.9668 371.708 96.5588 372.008C96.1628 372.296 95.9648 372.668 95.9648 373.124C95.9648 373.484 96.0728 373.766 96.2888 373.97C96.5168 374.174 96.8108 374.336 97.1708 374.456C97.5428 374.564 97.9448 374.654 98.3768 374.726C98.8208 374.798 99.2588 374.888 99.6908 374.996C100.135 375.092 100.537 375.23 100.897 375.41C101.269 375.578 101.563 375.824 101.779 376.148C102.007 376.46 102.121 376.874 102.121 377.39C102.121 377.942 101.965 378.422 101.653 378.83C101.353 379.226 100.909 379.538 100.321 379.766C99.7448 379.982 99.0428 380.09 98.2148 380.09ZM107.544 380.09C106.656 380.09 105.972 379.85 105.492 379.37C105.012 378.89 104.772 378.212 104.772 377.336V368.462H106.05V377.264C106.05 377.816 106.188 378.242 106.464 378.542C106.752 378.842 107.16 378.992 107.688 378.992C108.252 378.992 108.72 378.83 109.092 378.506L109.542 379.424C109.29 379.652 108.984 379.82 108.624 379.928C108.276 380.036 107.916 380.09 107.544 380.09ZM103.08 371.612V370.55H108.93V371.612H103.08ZM115.476 380.09C114.564 380.09 113.742 379.886 113.01 379.478C112.29 379.058 111.72 378.488 111.3 377.768C110.88 377.036 110.67 376.202 110.67 375.266C110.67 374.318 110.88 373.484 111.3 372.764C111.72 372.044 112.29 371.48 113.01 371.072C113.73 370.664 114.552 370.46 115.476 370.46C116.412 370.46 117.24 370.664 117.96 371.072C118.692 371.48 119.262 372.044 119.67 372.764C120.09 373.484 120.3 374.318 120.3 375.266C120.3 376.202 120.09 377.036 119.67 377.768C119.262 378.488 118.692 379.058 117.96 379.478C117.228 379.886 116.4 380.09 115.476 380.09ZM115.476 378.956C116.16 378.956 116.766 378.806 117.294 378.506C117.822 378.194 118.236 377.762 118.536 377.21C118.848 376.646 119.004 375.998 119.004 375.266C119.004 374.522 118.848 373.874 118.536 373.322C118.236 372.77 117.822 372.344 117.294 372.044C116.766 371.732 116.166 371.576 115.494 371.576C114.822 371.576 114.222 371.732 113.694 372.044C113.166 372.344 112.746 372.77 112.434 373.322C112.122 373.874 111.966 374.522 111.966 375.266C111.966 375.998 112.122 376.646 112.434 377.21C112.746 377.762 113.166 378.194 113.694 378.506C114.222 378.806 114.816 378.956 115.476 378.956ZM134.808 370.46C135.576 370.46 136.242 370.61 136.806 370.91C137.382 371.198 137.826 371.642 138.138 372.242C138.462 372.842 138.624 373.598 138.624 374.51V380H137.346V374.636C137.346 373.64 137.106 372.89 136.626 372.386C136.158 371.87 135.492 371.612 134.628 371.612C133.98 371.612 133.416 371.75 132.936 372.026C132.468 372.29 132.102 372.68 131.838 373.196C131.586 373.7 131.46 374.312 131.46 375.032V380H130.182V374.636C130.182 373.64 129.942 372.89 129.462 372.386C128.982 371.87 128.31 371.612 127.446 371.612C126.81 371.612 126.252 371.75 125.772 372.026C125.292 372.29 124.92 372.68 124.656 373.196C124.404 373.7 124.278 374.312 124.278 375.032V380H123V370.55H124.224V373.106L124.026 372.656C124.314 371.972 124.776 371.438 125.412 371.054C126.06 370.658 126.822 370.46 127.698 370.46C128.622 370.46 129.408 370.694 130.056 371.162C130.704 371.618 131.124 372.308 131.316 373.232L130.812 373.034C131.088 372.266 131.574 371.648 132.27 371.18C132.978 370.7 133.824 370.46 134.808 370.46ZM146.193 380.09C145.209 380.09 144.345 379.886 143.601 379.478C142.857 379.058 142.275 378.488 141.855 377.768C141.435 377.036 141.225 376.202 141.225 375.266C141.225 374.33 141.423 373.502 141.819 372.782C142.227 372.062 142.779 371.498 143.475 371.09C144.183 370.67 144.975 370.46 145.851 370.46C146.739 370.46 147.525 370.664 148.209 371.072C148.905 371.468 149.451 372.032 149.847 372.764C150.243 373.484 150.441 374.318 150.441 375.266C150.441 375.326 150.435 375.392 150.423 375.464C150.423 375.524 150.423 375.59 150.423 375.662H142.197V374.708H149.739L149.235 375.086C149.235 374.402 149.085 373.796 148.785 373.268C148.497 372.728 148.101 372.308 147.597 372.008C147.093 371.708 146.511 371.558 145.851 371.558C145.203 371.558 144.621 371.708 144.105 372.008C143.589 372.308 143.187 372.728 142.899 373.268C142.611 373.808 142.467 374.426 142.467 375.122V375.32C142.467 376.04 142.623 376.676 142.935 377.228C143.259 377.768 143.703 378.194 144.267 378.506C144.843 378.806 145.497 378.956 146.229 378.956C146.805 378.956 147.339 378.854 147.831 378.65C148.335 378.446 148.767 378.134 149.127 377.714L149.847 378.542C149.427 379.046 148.899 379.43 148.263 379.694C147.639 379.958 146.949 380.09 146.193 380.09ZM153.133 380V370.55H154.357V373.124L154.231 372.674C154.495 371.954 154.939 371.408 155.563 371.036C156.187 370.652 156.961 370.46 157.885 370.46V371.702C157.837 371.702 157.789 371.702 157.741 371.702C157.693 371.69 157.645 371.684 157.597 371.684C156.601 371.684 155.821 371.99 155.257 372.602C154.693 373.202 154.411 374.06 154.411 375.176V380H153.133ZM162.95 380.09C162.17 380.09 161.432 379.982 160.736 379.766C160.04 379.538 159.494 379.256 159.098 378.92L159.674 377.912C160.058 378.2 160.55 378.452 161.15 378.668C161.75 378.872 162.38 378.974 163.04 378.974C163.94 378.974 164.588 378.836 164.984 378.56C165.38 378.272 165.578 377.894 165.578 377.426C165.578 377.078 165.464 376.808 165.236 376.616C165.02 376.412 164.732 376.262 164.372 376.166C164.012 376.058 163.61 375.968 163.166 375.896C162.722 375.824 162.278 375.74 161.834 375.644C161.402 375.548 161.006 375.41 160.646 375.23C160.286 375.038 159.992 374.78 159.764 374.456C159.548 374.132 159.44 373.7 159.44 373.16C159.44 372.644 159.584 372.182 159.872 371.774C160.16 371.366 160.58 371.048 161.132 370.82C161.696 370.58 162.38 370.46 163.184 370.46C163.796 370.46 164.408 370.544 165.02 370.712C165.632 370.868 166.136 371.078 166.532 371.342L165.974 372.368C165.554 372.08 165.104 371.876 164.624 371.756C164.144 371.624 163.664 371.558 163.184 371.558C162.332 371.558 161.702 371.708 161.294 372.008C160.898 372.296 160.7 372.668 160.7 373.124C160.7 373.484 160.808 373.766 161.024 373.97C161.252 374.174 161.546 374.336 161.906 374.456C162.278 374.564 162.68 374.654 163.112 374.726C163.556 374.798 163.994 374.888 164.426 374.996C164.87 375.092 165.272 375.23 165.632 375.41C166.004 375.578 166.298 375.824 166.514 376.148C166.742 376.46 166.856 376.874 166.856 377.39C166.856 377.942 166.7 378.422 166.388 378.83C166.088 379.226 165.644 379.538 165.056 379.766C164.48 379.982 163.778 380.09 162.95 380.09Z" fill="#7C82C5"/>
<g opacity="0.5">
<rect x="15" y="421" width="44" height="44" rx="6" fill="white" fill-opacity="0.2"/>
<path d="M37 437.279C37.6885 436.393 38.5029 435.708 39.4432 435.225C40.3836 434.742 41.3692 434.5 42.4 434.5C44.0945 434.5 45.5347 435.093 46.7208 436.279C47.9069 437.465 48.5 438.905 48.5 440.6C48.5 441.023 48.4535 441.441 48.3605 441.853C48.2675 442.265 48.1409 442.666 47.9807 443.056C47.9102 443.269 47.7839 443.433 47.6018 443.548C47.4198 443.664 47.2234 443.689 47.0128 443.623C46.8144 443.571 46.6637 443.456 46.5605 443.281C46.4573 443.105 46.441 442.919 46.5115 442.723C46.6615 442.387 46.7804 442.042 46.8682 441.688C46.9561 441.335 47 440.972 47 440.6C47 439.317 46.5542 438.229 45.6625 437.338C44.7708 436.446 43.6833 436 42.4 436C41.4638 436 40.6128 436.264 39.847 436.791C39.081 437.319 38.3916 437.942 37.7788 438.662C37.5711 438.913 37.3115 439.038 37 439.038C36.6885 439.038 36.4289 438.913 36.2213 438.662C35.6186 437.942 34.9311 437.319 34.1588 436.791C33.3864 436.264 32.5335 436 31.6 436C30.3167 436 29.2292 436.446 28.3375 437.338C27.4458 438.229 27 439.317 27 440.6C27 440.97 27.0423 441.334 27.127 441.692C27.2115 442.05 27.3288 442.397 27.4788 442.733C27.5328 442.919 27.5113 443.097 27.4145 443.267C27.3177 443.438 27.1758 443.551 26.989 443.606C26.7772 443.675 26.5818 443.656 26.403 443.547C26.2242 443.439 26.0962 443.278 26.0193 443.066C25.8591 442.676 25.7325 442.274 25.6395 441.86C25.5465 441.445 25.5 441.026 25.5 440.6C25.5 438.905 26.0931 437.465 27.2793 436.279C28.4653 435.093 29.9055 434.5 31.6 434.5C32.6308 434.5 33.6164 434.742 34.5568 435.225C35.4971 435.708 36.3115 436.393 37 437.279ZM26.3655 452.519C26.1203 452.519 25.9148 452.436 25.7488 452.271C25.5829 452.104 25.5 451.899 25.5 451.654V451.3C25.5 450.822 25.6805 450.402 26.0415 450.041C26.4023 449.68 26.8937 449.411 27.5155 449.234C27.9295 449.108 28.3035 449.038 28.6375 449.024C28.9715 449.011 29.3321 449.02 29.7193 449.054C29.8724 449.069 29.9835 449.14 30.0525 449.266C30.1213 449.393 30.1288 449.524 30.075 449.662C29.984 449.89 29.9167 450.124 29.873 450.363C29.8295 450.603 29.8078 450.851 29.8078 451.106V451.615C29.8078 451.871 29.7211 452.086 29.5477 452.259C29.3746 452.433 29.16 452.519 28.904 452.519H26.3655ZM31.5 451.615V451.144C31.5 450.189 32.0082 449.423 33.0247 448.846C34.0413 448.269 35.3672 447.981 37.0027 447.981C38.6534 447.981 39.9823 448.269 40.9895 448.846C41.9965 449.423 42.5 450.189 42.5 451.144V451.615C42.5 451.871 42.4133 452.086 42.24 452.259C42.0668 452.433 41.8522 452.519 41.596 452.519H32.4078C32.1474 452.519 31.9311 452.433 31.7588 452.259C31.5863 452.086 31.5 451.871 31.5 451.615ZM45.096 452.519C44.84 452.519 44.6254 452.433 44.4523 452.259C44.2789 452.086 44.1923 451.871 44.1923 451.615V451.106C44.1923 450.851 44.1705 450.603 44.127 450.363C44.0833 450.124 44.016 449.89 43.925 449.662C43.8712 449.524 43.8787 449.393 43.9475 449.266C44.0165 449.14 44.1276 449.069 44.2808 449.054C44.6679 449.02 45.0285 449.011 45.3625 449.024C45.6965 449.038 46.0705 449.108 46.4845 449.234C47.1063 449.411 47.5977 449.68 47.9585 450.041C48.3195 450.402 48.5 450.822 48.5 451.3V451.654C48.5 451.899 48.4171 452.104 48.2512 452.271C48.0853 452.436 47.8797 452.519 47.6345 452.519H45.096ZM36.9988 449.481C35.9598 449.481 35.0669 449.619 34.3203 449.894C33.5734 450.17 33.159 450.51 33.077 450.913V451.019H40.9385V450.913C40.8462 450.51 40.4307 450.17 39.6923 449.894C38.9539 449.619 38.0561 449.481 36.9988 449.481ZM29.2598 448.048C28.7891 448.048 28.3862 447.88 28.051 447.545C27.7157 447.21 27.548 446.807 27.548 446.337C27.548 445.86 27.7157 445.457 28.051 445.128C28.3862 444.799 28.7891 444.635 29.2598 444.635C29.7366 444.635 30.141 444.799 30.473 445.128C30.8052 445.457 30.9713 445.86 30.9713 446.337C30.9713 446.807 30.8052 447.21 30.473 447.545C30.141 447.88 29.7366 448.048 29.2598 448.048ZM44.75 448.048C44.2833 448.048 43.8814 447.88 43.5443 447.545C43.2071 447.21 43.0385 446.807 43.0385 446.337C43.0385 445.86 43.2071 445.457 43.5443 445.128C43.8814 444.799 44.2839 444.635 44.7518 444.635C45.2339 444.635 45.6394 444.799 45.9683 445.128C46.2971 445.457 46.4615 445.86 46.4615 446.337C46.4615 446.807 46.2975 447.21 45.9695 447.545C45.6415 447.88 45.235 448.048 44.75 448.048ZM37.0035 447.231C36.2832 447.231 35.6698 446.978 35.1635 446.474C34.6572 445.969 34.404 445.356 34.404 444.635C34.404 443.899 34.6563 443.283 35.161 442.785C35.6658 442.287 36.2788 442.038 37 442.038C37.7355 442.038 38.3521 442.287 38.8497 442.784C39.3472 443.281 39.596 443.897 39.596 444.631C39.596 445.351 39.3476 445.965 38.8508 446.471C38.3538 446.978 37.738 447.231 37.0035 447.231ZM37 443.539C36.6975 443.539 36.4392 443.644 36.225 443.854C36.0108 444.064 35.9038 444.324 35.9038 444.635C35.9038 444.937 36.0108 445.196 36.225 445.41C36.4392 445.624 36.6991 445.731 37.0048 445.731C37.3106 445.731 37.5689 445.624 37.7797 445.41C37.9908 445.196 38.0962 444.936 38.0962 444.63C38.0962 444.324 37.9912 444.066 37.781 443.855C37.5708 443.644 37.3105 443.539 37 443.539Z" fill="#08138C"/>
</g>
<path d="M74.526 449.108C73.59 449.108 72.69 448.958 71.826 448.658C70.974 448.346 70.314 447.95 69.846 447.47L70.368 446.444C70.812 446.876 71.406 447.242 72.15 447.542C72.906 447.83 73.698 447.974 74.526 447.974C75.318 447.974 75.96 447.878 76.452 447.686C76.956 447.482 77.322 447.212 77.55 446.876C77.79 446.54 77.91 446.168 77.91 445.76C77.91 445.268 77.766 444.872 77.478 444.572C77.202 444.272 76.836 444.038 76.38 443.87C75.924 443.69 75.42 443.534 74.868 443.402C74.316 443.27 73.764 443.132 73.212 442.988C72.66 442.832 72.15 442.628 71.682 442.376C71.226 442.124 70.854 441.794 70.566 441.386C70.29 440.966 70.152 440.42 70.152 439.748C70.152 439.124 70.314 438.554 70.638 438.038C70.974 437.51 71.484 437.09 72.168 436.778C72.852 436.454 73.728 436.292 74.796 436.292C75.504 436.292 76.206 436.394 76.902 436.598C77.598 436.79 78.198 437.06 78.702 437.408L78.252 438.47C77.712 438.11 77.136 437.846 76.524 437.678C75.924 437.51 75.342 437.426 74.778 437.426C74.022 437.426 73.398 437.528 72.906 437.732C72.414 437.936 72.048 438.212 71.808 438.56C71.58 438.896 71.466 439.28 71.466 439.712C71.466 440.204 71.604 440.6 71.88 440.9C72.168 441.2 72.54 441.434 72.996 441.602C73.464 441.77 73.974 441.92 74.526 442.052C75.078 442.184 75.624 442.328 76.164 442.484C76.716 442.64 77.22 442.844 77.676 443.096C78.144 443.336 78.516 443.66 78.792 444.068C79.08 444.476 79.224 445.01 79.224 445.67C79.224 446.282 79.056 446.852 78.72 447.38C78.384 447.896 77.868 448.316 77.172 448.64C76.488 448.952 75.606 449.108 74.526 449.108ZM84.9342 449.09C84.0462 449.09 83.3622 448.85 82.8822 448.37C82.4022 447.89 82.1622 447.212 82.1622 446.336V437.462H83.4402V446.264C83.4402 446.816 83.5782 447.242 83.8542 447.542C84.1422 447.842 84.5502 447.992 85.0782 447.992C85.6422 447.992 86.1102 447.83 86.4822 447.506L86.9322 448.424C86.6802 448.652 86.3742 448.82 86.0142 448.928C85.6662 449.036 85.3062 449.09 84.9342 449.09ZM80.4702 440.612V439.55H86.3202V440.612H80.4702ZM95.2707 449V446.912L95.2167 446.57V443.078C95.2167 442.274 94.9887 441.656 94.5327 441.224C94.0887 440.792 93.4227 440.576 92.5347 440.576C91.9227 440.576 91.3407 440.678 90.7887 440.882C90.2367 441.086 89.7687 441.356 89.3847 441.692L88.8087 440.738C89.2887 440.33 89.8647 440.018 90.5367 439.802C91.2087 439.574 91.9167 439.46 92.6607 439.46C93.8847 439.46 94.8267 439.766 95.4867 440.378C96.1587 440.978 96.4947 441.896 96.4947 443.132V449H95.2707ZM92.0127 449.09C91.3047 449.09 90.6867 448.976 90.1587 448.748C89.6427 448.508 89.2467 448.184 88.9707 447.776C88.6947 447.356 88.5567 446.876 88.5567 446.336C88.5567 445.844 88.6707 445.4 88.8987 445.004C89.1387 444.596 89.5227 444.272 90.0507 444.032C90.5907 443.78 91.3107 443.654 92.2107 443.654H95.4687V444.608H92.2467C91.3347 444.608 90.6987 444.77 90.3387 445.094C89.9907 445.418 89.8167 445.82 89.8167 446.3C89.8167 446.84 90.0267 447.272 90.4467 447.596C90.8667 447.92 91.4547 448.082 92.2107 448.082C92.9307 448.082 93.5487 447.92 94.0647 447.596C94.5927 447.26 94.9767 446.78 95.2167 446.156L95.5047 447.038C95.2647 447.662 94.8447 448.16 94.2447 448.532C93.6567 448.904 92.9127 449.09 92.0127 449.09ZM100.272 449V438.362C100.272 437.522 100.518 436.844 101.01 436.328C101.502 435.812 102.21 435.554 103.134 435.554C103.494 435.554 103.842 435.602 104.178 435.698C104.514 435.794 104.796 435.944 105.024 436.148L104.592 437.102C104.412 436.946 104.202 436.832 103.962 436.76C103.722 436.676 103.464 436.634 103.188 436.634C102.648 436.634 102.234 436.784 101.946 437.084C101.658 437.384 101.514 437.828 101.514 438.416V439.856L101.55 440.45V449H100.272ZM98.5799 440.612V439.55H104.43V440.612H98.5799ZM106.497 449V438.362C106.497 437.522 106.743 436.844 107.235 436.328C107.727 435.812 108.435 435.554 109.359 435.554C109.719 435.554 110.067 435.602 110.403 435.698C110.739 435.794 111.021 435.944 111.249 436.148L110.817 437.102C110.637 436.946 110.427 436.832 110.187 436.76C109.947 436.676 109.689 436.634 109.413 436.634C108.873 436.634 108.459 436.784 108.171 437.084C107.883 437.384 107.739 437.828 107.739 438.416V439.856L107.775 440.45V449H106.497ZM104.805 440.612V439.55H110.655V440.612H104.805Z" fill="#7C82C5"/>
<g opacity="0.5">
<rect x="15" y="490" width="44" height="44" rx="6" fill="white" fill-opacity="0.2"/>
<path d="M29.5 520.5C29.2875 520.5 29.1094 520.428 28.9658 520.284C28.8219 520.14 28.75 519.962 28.75 519.75C28.75 519.537 28.8219 519.359 28.9658 519.215C29.1094 519.072 29.2875 519 29.5 519H30.75V504.404C30.75 504.148 30.8363 503.933 31.0088 503.76C31.1813 503.587 31.395 503.5 31.65 503.5H38.8503C39.1053 503.5 39.3189 503.587 39.4913 503.76C39.6638 503.933 39.75 504.148 39.75 504.404V504.5H42.346C42.6022 504.5 42.8168 504.587 42.99 504.76C43.1633 504.933 43.25 505.148 43.25 505.404V519H44.5C44.7125 519 44.8906 519.072 45.0343 519.216C45.1781 519.36 45.25 519.538 45.25 519.75C45.25 519.963 45.1781 520.141 45.0343 520.285C44.8906 520.428 44.7125 520.5 44.5 520.5H42.6585C42.3977 520.5 42.1811 520.413 42.0087 520.24C41.8362 520.067 41.75 519.852 41.75 519.596V506H39.75V519.596C39.75 519.852 39.6634 520.067 39.4902 520.24C39.3169 520.413 39.1022 520.5 38.8462 520.5H29.5ZM37.1348 512C37.1348 511.755 37.0485 511.547 36.876 511.374C36.7035 511.202 36.4948 511.115 36.25 511.115C36.0052 511.115 35.7965 511.202 35.624 511.374C35.4517 511.547 35.3655 511.755 35.3655 512C35.3655 512.245 35.4517 512.454 35.624 512.626C35.7965 512.798 36.0052 512.885 36.25 512.885C36.4948 512.885 36.7035 512.798 36.876 512.626C37.0485 512.454 37.1348 512.245 37.1348 512ZM32.25 519H38.25V505H32.25V519Z" fill="#08138C"/>
</g>
<path d="M71.052 518V505.4H75.768C76.836 505.4 77.754 505.574 78.522 505.922C79.29 506.258 79.878 506.75 80.286 507.398C80.706 508.034 80.916 508.808 80.916 509.72C80.916 510.608 80.706 511.376 80.286 512.024C79.878 512.66 79.29 513.152 78.522 513.5C77.754 513.836 76.836 514.004 75.768 514.004H71.79L72.384 513.392V518H71.052ZM79.656 518L76.416 513.428H77.856L81.114 518H79.656ZM72.384 513.5L71.79 512.87H75.732C76.992 512.87 77.946 512.594 78.594 512.042C79.254 511.49 79.584 510.716 79.584 509.72C79.584 508.712 79.254 507.932 78.594 507.38C77.946 506.828 76.992 506.552 75.732 506.552H71.79L72.384 505.922V513.5ZM87.7318 518.09C86.8198 518.09 85.9978 517.886 85.2658 517.478C84.5458 517.058 83.9758 516.488 83.5558 515.768C83.1358 515.036 82.9258 514.202 82.9258 513.266C82.9258 512.318 83.1358 511.484 83.5558 510.764C83.9758 510.044 84.5458 509.48 85.2658 509.072C85.9858 508.664 86.8078 508.46 87.7318 508.46C88.6678 508.46 89.4958 508.664 90.2158 509.072C90.9478 509.48 91.5178 510.044 91.9258 510.764C92.3458 511.484 92.5558 512.318 92.5558 513.266C92.5558 514.202 92.3458 515.036 91.9258 515.768C91.5178 516.488 90.9478 517.058 90.2158 517.478C89.4838 517.886 88.6558 518.09 87.7318 518.09ZM87.7318 516.956C88.4158 516.956 89.0218 516.806 89.5498 516.506C90.0778 516.194 90.4918 515.762 90.7918 515.21C91.1038 514.646 91.2598 513.998 91.2598 513.266C91.2598 512.522 91.1038 511.874 90.7918 511.322C90.4918 510.77 90.0778 510.344 89.5498 510.044C89.0218 509.732 88.4218 509.576 87.7498 509.576C87.0778 509.576 86.4778 509.732 85.9498 510.044C85.4218 510.344 85.0018 510.77 84.6898 511.322C84.3778 511.874 84.2218 512.522 84.2218 513.266C84.2218 513.998 84.3778 514.646 84.6898 515.21C85.0018 515.762 85.4218 516.194 85.9498 516.506C86.4778 516.806 87.0718 516.956 87.7318 516.956ZM99.107 518.09C98.195 518.09 97.373 517.886 96.641 517.478C95.921 517.058 95.351 516.488 94.931 515.768C94.511 515.036 94.301 514.202 94.301 513.266C94.301 512.318 94.511 511.484 94.931 510.764C95.351 510.044 95.921 509.48 96.641 509.072C97.361 508.664 98.183 508.46 99.107 508.46C100.043 508.46 100.871 508.664 101.591 509.072C102.323 509.48 102.893 510.044 103.301 510.764C103.721 511.484 103.931 512.318 103.931 513.266C103.931 514.202 103.721 515.036 103.301 515.768C102.893 516.488 102.323 517.058 101.591 517.478C100.859 517.886 100.031 518.09 99.107 518.09ZM99.107 516.956C99.791 516.956 100.397 516.806 100.925 516.506C101.453 516.194 101.867 515.762 102.167 515.21C102.479 514.646 102.635 513.998 102.635 513.266C102.635 512.522 102.479 511.874 102.167 511.322C101.867 510.77 101.453 510.344 100.925 510.044C100.397 509.732 99.797 509.576 99.125 509.576C98.453 509.576 97.853 509.732 97.325 510.044C96.797 510.344 96.377 510.77 96.065 511.322C95.753 511.874 95.597 512.522 95.597 513.266C95.597 513.998 95.753 514.646 96.065 515.21C96.377 515.762 96.797 516.194 97.325 516.506C97.853 516.806 98.447 516.956 99.107 516.956ZM118.438 508.46C119.206 508.46 119.872 508.61 120.436 508.91C121.012 509.198 121.456 509.642 121.768 510.242C122.092 510.842 122.254 511.598 122.254 512.51V518H120.976V512.636C120.976 511.64 120.736 510.89 120.256 510.386C119.788 509.87 119.122 509.612 118.258 509.612C117.61 509.612 117.046 509.75 116.566 510.026C116.098 510.29 115.732 510.68 115.468 511.196C115.216 511.7 115.09 512.312 115.09 513.032V518H113.812V512.636C113.812 511.64 113.572 510.89 113.092 510.386C112.612 509.87 111.94 509.612 111.076 509.612C110.44 509.612 109.882 509.75 109.402 510.026C108.922 510.29 108.55 510.68 108.286 511.196C108.034 511.7 107.908 512.312 107.908 513.032V518H106.63V508.55H107.854V511.106L107.656 510.656C107.944 509.972 108.406 509.438 109.042 509.054C109.69 508.658 110.452 508.46 111.328 508.46C112.252 508.46 113.038 508.694 113.686 509.162C114.334 509.618 114.754 510.308 114.946 511.232L114.442 511.034C114.718 510.266 115.204 509.648 115.9 509.18C116.608 508.7 117.454 508.46 118.438 508.46ZM128.348 518.09C127.568 518.09 126.83 517.982 126.134 517.766C125.438 517.538 124.892 517.256 124.496 516.92L125.072 515.912C125.456 516.2 125.948 516.452 126.548 516.668C127.148 516.872 127.778 516.974 128.438 516.974C129.338 516.974 129.986 516.836 130.382 516.56C130.778 516.272 130.976 515.894 130.976 515.426C130.976 515.078 130.862 514.808 130.634 514.616C130.418 514.412 130.13 514.262 129.77 514.166C129.41 514.058 129.008 513.968 128.564 513.896C128.12 513.824 127.676 513.74 127.232 513.644C126.8 513.548 126.404 513.41 126.044 513.23C125.684 513.038 125.39 512.78 125.162 512.456C124.946 512.132 124.838 511.7 124.838 511.16C124.838 510.644 124.982 510.182 125.27 509.774C125.558 509.366 125.978 509.048 126.53 508.82C127.094 508.58 127.778 508.46 128.582 508.46C129.194 508.46 129.806 508.544 130.418 508.712C131.03 508.868 131.534 509.078 131.93 509.342L131.372 510.368C130.952 510.08 130.502 509.876 130.022 509.756C129.542 509.624 129.062 509.558 128.582 509.558C127.73 509.558 127.1 509.708 126.692 510.008C126.296 510.296 126.098 510.668 126.098 511.124C126.098 511.484 126.206 511.766 126.422 511.97C126.65 512.174 126.944 512.336 127.304 512.456C127.676 512.564 128.078 512.654 128.51 512.726C128.954 512.798 129.392 512.888 129.824 512.996C130.268 513.092 130.67 513.23 131.03 513.41C131.402 513.578 131.696 513.824 131.912 514.148C132.14 514.46 132.254 514.874 132.254 515.39C132.254 515.942 132.098 516.422 131.786 516.83C131.486 517.226 131.042 517.538 130.454 517.766C129.878 517.982 129.176 518.09 128.348 518.09Z" fill="#7C82C5"/>
<g opacity="0.5">
<rect x="15" y="559" width="44" height="44" rx="6" fill="white" fill-opacity="0.2"/>
<path d="M34.5 590.5C33.6513 590.5 32.9392 590.212 32.3635 589.637C31.7878 589.061 31.5 588.349 31.5 587.5C31.5 587.273 31.5033 587.087 31.5098 586.943C31.5161 586.799 31.4783 586.686 31.3963 586.604C31.3141 586.522 31.2009 586.481 31.0568 586.481H30.5C29.6513 586.481 28.9392 586.196 28.3635 585.627C27.7878 585.058 27.5 584.349 27.5 583.5C27.5 582.651 27.7878 581.939 28.3635 581.364C28.9392 580.788 29.6513 580.5 30.5 580.5C30.8257 580.5 31.1276 580.542 31.4058 580.626C31.6839 580.71 31.9358 580.836 32.1615 581.004C32.2513 581.075 32.3555 581.11 32.474 581.11C32.5927 581.11 32.6937 581.068 32.777 580.985L36.9462 576.815C37.0296 576.732 37.0777 576.626 37.0905 576.498C37.1033 576.37 37.0745 576.258 37.004 576.162C36.8423 575.93 36.7179 575.676 36.6308 575.401C36.5436 575.126 36.5 574.826 36.5 574.5C36.5 573.651 36.7878 572.939 37.3635 572.363C37.9392 571.788 38.6513 571.5 39.5 571.5C40.3487 571.5 41.0608 571.788 41.6365 572.363C42.2122 572.939 42.5 573.651 42.5 574.5C42.5 574.727 42.4967 574.913 42.4902 575.057C42.4839 575.201 42.5218 575.314 42.6038 575.396C42.6859 575.478 42.7991 575.516 42.9432 575.51C43.0874 575.503 43.273 575.5 43.5 575.5C44.3487 575.5 45.0608 575.788 45.6365 576.363C46.2122 576.939 46.5 577.651 46.5 578.5C46.5 579.349 46.2122 580.061 45.6365 580.637C45.0608 581.212 44.3487 581.5 43.5 581.5C43.1743 581.5 42.874 581.456 42.599 581.369C42.324 581.282 42.0705 581.158 41.8385 580.996C41.7423 580.932 41.6333 580.905 41.5115 580.915C41.3897 580.924 41.2871 580.97 41.2038 581.054L37.0538 585.204C36.9704 585.287 36.9223 585.385 36.9095 585.497C36.8967 585.609 36.9192 585.717 36.977 585.819C37.132 586.051 37.2579 586.308 37.3548 586.589C37.4516 586.871 37.5 587.174 37.5 587.5C37.5 588.349 37.2122 589.061 36.6365 589.637C36.0608 590.212 35.3487 590.5 34.5 590.5ZM34.5 589C34.9333 589 35.2917 588.858 35.575 588.575C35.8583 588.292 36 587.933 36 587.5C36 587.35 35.9792 587.204 35.9375 587.062C35.8958 586.921 35.8333 586.783 35.75 586.65C35.4795 586.256 35.366 585.829 35.4095 585.367C35.4532 584.906 35.65 584.5 36 584.15L40.15 580C40.5 579.65 40.9058 579.455 41.3673 579.415C41.8288 579.374 42.2563 579.486 42.65 579.75C42.7833 579.833 42.9208 579.896 43.0625 579.938C43.2042 579.979 43.35 580 43.5 580C43.9333 580 44.2917 579.858 44.575 579.575C44.8583 579.292 45 578.933 45 578.5C45 578.067 44.8583 577.708 44.575 577.425C44.2917 577.142 43.9333 577 43.5 577C42.968 577 42.5677 576.966 42.299 576.898C42.0305 576.83 41.7808 576.681 41.55 576.45C41.3192 576.219 41.1698 575.969 41.102 575.701C41.034 575.432 41 575.032 41 574.5C41 574.067 40.8583 573.708 40.575 573.425C40.2917 573.142 39.9333 573 39.5 573C39.0667 573 38.7083 573.142 38.425 573.425C38.1417 573.708 38 574.067 38 574.5C38 574.671 38.0183 574.821 38.0548 574.953C38.0913 575.084 38.1563 575.217 38.25 575.35C38.5205 575.744 38.634 576.171 38.5905 576.633C38.5468 577.094 38.35 577.5 38 577.85L33.85 582C33.5 582.35 33.0943 582.545 32.6328 582.586C32.1712 582.626 31.7437 582.514 31.35 582.25C31.2167 582.167 31.0792 582.104 30.9375 582.062C30.7958 582.021 30.65 582 30.5 582C30.0667 582 29.7083 582.142 29.425 582.425C29.1417 582.708 29 583.067 29 583.5C29 583.933 29.1417 584.288 29.425 584.566C29.7083 584.842 30.0667 584.981 30.5 584.981C31.032 584.981 31.4323 585.018 31.701 585.092C31.9695 585.167 32.2192 585.319 32.45 585.55C32.6808 585.781 32.8302 586.034 32.898 586.309C32.966 586.584 33 586.987 33 587.519C33 587.953 33.1417 588.308 33.425 588.585C33.7083 588.861 34.0667 589 34.5 589Z" fill="#08138C"/>
</g>
<path d="M69.036 587L74.796 574.4H76.11L81.87 587H80.466L75.174 575.174H75.714L70.422 587H69.036ZM71.304 583.634L71.7 582.554H79.026L79.422 583.634H71.304ZM87.4485 587.09C86.5485 587.09 85.7385 586.886 85.0185 586.478C84.3105 586.07 83.7525 585.506 83.3445 584.786C82.9365 584.054 82.7325 583.214 82.7325 582.266C82.7325 581.306 82.9365 580.466 83.3445 579.746C83.7525 579.026 84.3105 578.468 85.0185 578.072C85.7385 577.664 86.5485 577.46 87.4485 577.46C88.2765 577.46 89.0145 577.646 89.6625 578.018C90.3225 578.39 90.8445 578.936 91.2285 579.656C91.6245 580.364 91.8225 581.234 91.8225 582.266C91.8225 583.286 91.6305 584.156 91.2465 584.876C90.8625 585.596 90.3405 586.148 89.6805 586.532C89.0325 586.904 88.2885 587.09 87.4485 587.09ZM87.5385 585.956C88.2105 585.956 88.8105 585.806 89.3385 585.506C89.8785 585.194 90.2985 584.762 90.5985 584.21C90.9105 583.646 91.0665 582.998 91.0665 582.266C91.0665 581.522 90.9105 580.874 90.5985 580.322C90.2985 579.77 89.8785 579.344 89.3385 579.044C88.8105 578.732 88.2105 578.576 87.5385 578.576C86.8785 578.576 86.2845 578.732 85.7565 579.044C85.2285 579.344 84.8085 579.77 84.4965 580.322C84.1845 580.874 84.0285 581.522 84.0285 582.266C84.0285 582.998 84.1845 583.646 84.4965 584.21C84.8085 584.762 85.2285 585.194 85.7565 585.506C86.2845 585.806 86.8785 585.956 87.5385 585.956ZM91.1025 587V584.156L91.2285 582.248L91.0485 580.34V573.644H92.3265V587H91.1025ZM99.7377 587.09C98.8377 587.09 98.0277 586.886 97.3077 586.478C96.5997 586.07 96.0417 585.506 95.6337 584.786C95.2257 584.054 95.0217 583.214 95.0217 582.266C95.0217 581.306 95.2257 580.466 95.6337 579.746C96.0417 579.026 96.5997 578.468 97.3077 578.072C98.0277 577.664 98.8377 577.46 99.7377 577.46C100.566 577.46 101.304 577.646 101.952 578.018C102.612 578.39 103.134 578.936 103.518 579.656C103.914 580.364 104.112 581.234 104.112 582.266C104.112 583.286 103.92 584.156 103.536 584.876C103.152 585.596 102.63 586.148 101.97 586.532C101.322 586.904 100.578 587.09 99.7377 587.09ZM99.8277 585.956C100.5 585.956 101.1 585.806 101.628 585.506C102.168 585.194 102.588 584.762 102.888 584.21C103.2 583.646 103.356 582.998 103.356 582.266C103.356 581.522 103.2 580.874 102.888 580.322C102.588 579.77 102.168 579.344 101.628 579.044C101.1 578.732 100.5 578.576 99.8277 578.576C99.1677 578.576 98.5737 578.732 98.0457 579.044C97.5177 579.344 97.0977 579.77 96.7857 580.322C96.4737 580.874 96.3177 581.522 96.3177 582.266C96.3177 582.998 96.4737 583.646 96.7857 584.21C97.0977 584.762 97.5177 585.194 98.0457 585.506C98.5737 585.806 99.1677 585.956 99.8277 585.956ZM103.392 587V584.156L103.518 582.248L103.338 580.34V573.644H104.616V587H103.392ZM112.117 587.09C111.205 587.09 110.383 586.886 109.651 586.478C108.931 586.058 108.361 585.488 107.941 584.768C107.521 584.036 107.311 583.202 107.311 582.266C107.311 581.318 107.521 580.484 107.941 579.764C108.361 579.044 108.931 578.48 109.651 578.072C110.371 577.664 111.193 577.46 112.117 577.46C113.053 577.46 113.881 577.664 114.601 578.072C115.333 578.48 115.903 579.044 116.311 579.764C116.731 580.484 116.941 581.318 116.941 582.266C116.941 583.202 116.731 584.036 116.311 584.768C115.903 585.488 115.333 586.058 114.601 586.478C113.869 586.886 113.041 587.09 112.117 587.09ZM112.117 585.956C112.801 585.956 113.407 585.806 113.935 585.506C114.463 585.194 114.877 584.762 115.177 584.21C115.489 583.646 115.645 582.998 115.645 582.266C115.645 581.522 115.489 580.874 115.177 580.322C114.877 579.77 114.463 579.344 113.935 579.044C113.407 578.732 112.807 578.576 112.135 578.576C111.463 578.576 110.863 578.732 110.335 579.044C109.807 579.344 109.387 579.77 109.075 580.322C108.763 580.874 108.607 581.522 108.607 582.266C108.607 582.998 108.763 583.646 109.075 584.21C109.387 584.762 109.807 585.194 110.335 585.506C110.863 585.806 111.457 585.956 112.117 585.956ZM124.464 577.46C125.232 577.46 125.904 577.61 126.48 577.91C127.068 578.198 127.524 578.642 127.848 579.242C128.184 579.842 128.352 580.598 128.352 581.51V587H127.074V581.636C127.074 580.64 126.822 579.89 126.318 579.386C125.826 578.87 125.13 578.612 124.23 578.612C123.558 578.612 122.97 578.75 122.466 579.026C121.974 579.29 121.59 579.68 121.314 580.196C121.05 580.7 120.918 581.312 120.918 582.032V587H119.64V577.55H120.864V580.142L120.666 579.656C120.966 578.972 121.446 578.438 122.106 578.054C122.766 577.658 123.552 577.46 124.464 577.46ZM134.432 587.09C133.652 587.09 132.914 586.982 132.218 586.766C131.522 586.538 130.976 586.256 130.58 585.92L131.156 584.912C131.54 585.2 132.032 585.452 132.632 585.668C133.232 585.872 133.862 585.974 134.522 585.974C135.422 585.974 136.07 585.836 136.466 585.56C136.862 585.272 137.06 584.894 137.06 584.426C137.06 584.078 136.946 583.808 136.718 583.616C136.502 583.412 136.214 583.262 135.854 583.166C135.494 583.058 135.092 582.968 134.648 582.896C134.204 582.824 133.76 582.74 133.316 582.644C132.884 582.548 132.488 582.41 132.128 582.23C131.768 582.038 131.474 581.78 131.246 581.456C131.03 581.132 130.922 580.7 130.922 580.16C130.922 579.644 131.066 579.182 131.354 578.774C131.642 578.366 132.062 578.048 132.614 577.82C133.178 577.58 133.862 577.46 134.666 577.46C135.278 577.46 135.89 577.544 136.502 577.712C137.114 577.868 137.618 578.078 138.014 578.342L137.456 579.368C137.036 579.08 136.586 578.876 136.106 578.756C135.626 578.624 135.146 578.558 134.666 578.558C133.814 578.558 133.184 578.708 132.776 579.008C132.38 579.296 132.182 579.668 132.182 580.124C132.182 580.484 132.29 580.766 132.506 580.97C132.734 581.174 133.028 581.336 133.388 581.456C133.76 581.564 134.162 581.654 134.594 581.726C135.038 581.798 135.476 581.888 135.908 581.996C136.352 582.092 136.754 582.23 137.114 582.41C137.486 582.578 137.78 582.824 137.996 583.148C138.224 583.46 138.338 583.874 138.338 584.39C138.338 584.942 138.182 585.422 137.87 585.83C137.57 586.226 137.126 586.538 136.538 586.766C135.962 586.982 135.26 587.09 134.432 587.09Z" fill="#7C82C5"/>
<defs>
<filter id="filter0_d_1_266" x="0" y="0" width="260" height="74" filterUnits="userSpaceOnUse" color-interpolation-filters="sRGB">
<feFlood flood-opacity="0" result="BackgroundImageFix"/>
<feColorMatrix in="SourceAlpha" type="matrix" values="0 0 0 0 0 0 0 0 0 0 0 0 0 0 0 0 0 0 127 0" result="hardAlpha"/>
<feOffset dy="8"/>
<feGaussianBlur stdDeviation="5"/>
<feComposite in2="hardAlpha" operator="out"/>
<feColorMatrix type="matrix" values="0 0 0 0 0.0313726 0 0 0 0 0.0745098 0 0 0 0 0.54902 0 0 0 0.15 0"/>
<feBlend mode="normal" in2="BackgroundImageFix" result="effect1_dropShadow_1_266"/>
<feBlend mode="normal" in="SourceGraphic" in2="effect1_dropShadow_1_266" result="shape"/>
</filter>
<clipPath id="clip0_1_266">
<rect width="24" height="24" fill="white" transform="translate(25 17)"/>
</clipPath>
</defs>
</svg>
