<svg width="1600" height="78" viewBox="0 0 1600 78" fill="none" xmlns="http://www.w3.org/2000/svg">
<rect width="1600" height="78" fill="white"/>
<path d="M53.008 50V27.6H62.8C65.232 27.6 67.3653 28.0693 69.2 29.008C71.0347 29.9467 72.464 31.248 73.488 32.912C74.512 34.576 75.024 36.5387 75.024 38.8C75.024 41.04 74.512 43.0027 73.488 44.688C72.464 46.352 71.0347 47.6533 69.2 48.592C67.3653 49.5307 65.232 50 62.8 50H53.008ZM57.168 46.48H62.608C64.2933 46.48 65.744 46.16 66.96 45.52C68.1973 44.88 69.1467 43.984 69.808 42.832C70.4907 41.68 70.832 40.336 70.832 38.8C70.832 37.2427 70.4907 35.8987 69.808 34.768C69.1467 33.616 68.1973 32.72 66.96 32.08C65.744 31.44 64.2933 31.12 62.608 31.12H57.168V46.48ZM89.5895 50V46.544L89.3655 45.808V39.76C89.3655 38.5867 89.0135 37.68 88.3095 37.04C87.6055 36.3787 86.5388 36.048 85.1095 36.048C84.1495 36.048 83.2002 36.1973 82.2615 36.496C81.3442 36.7947 80.5655 37.2107 79.9255 37.744L78.3575 34.832C79.2748 34.128 80.3628 33.6053 81.6215 33.264C82.9015 32.9013 84.2242 32.72 85.5895 32.72C88.0642 32.72 89.9735 33.3173 91.3175 34.512C92.6828 35.6853 93.3655 37.5093 93.3655 39.984V50H89.5895ZM84.2135 50.224C82.9335 50.224 81.8135 50.0107 80.8535 49.584C79.8935 49.136 79.1468 48.528 78.6135 47.76C78.1015 46.9707 77.8455 46.0853 77.8455 45.104C77.8455 44.144 78.0695 43.28 78.5175 42.512C78.9868 41.744 79.7442 41.136 80.7895 40.688C81.8348 40.24 83.2215 40.016 84.9495 40.016H89.9095V42.672H85.2375C83.8722 42.672 82.9548 42.896 82.4855 43.344C82.0162 43.7707 81.7815 44.304 81.7815 44.944C81.7815 45.6693 82.0695 46.2453 82.6455 46.672C83.2215 47.0987 84.0215 47.312 85.0455 47.312C86.0268 47.312 86.9015 47.088 87.6695 46.64C88.4588 46.192 89.0242 45.5307 89.3655 44.656L90.0375 47.056C89.6535 48.0587 88.9602 48.8373 87.9575 49.392C86.9762 49.9467 85.7282 50.224 84.2135 50.224ZM103.779 50.224C102.35 50.224 100.974 50.0427 99.651 49.68C98.3497 49.296 97.315 48.8373 96.547 48.304L98.083 45.264C98.851 45.7547 99.7683 46.16 100.835 46.48C101.902 46.8 102.968 46.96 104.035 46.96C105.294 46.96 106.2 46.7893 106.755 46.448C107.331 46.1067 107.619 45.648 107.619 45.072C107.619 44.6027 107.427 44.2507 107.043 44.016C106.659 43.76 106.158 43.568 105.539 43.44C104.92 43.312 104.227 43.1947 103.459 43.088C102.712 42.9813 101.955 42.8427 101.187 42.672C100.44 42.48 99.7577 42.2133 99.139 41.872C98.5203 41.5093 98.019 41.0293 97.635 40.432C97.251 39.8347 97.059 39.0453 97.059 38.064C97.059 36.976 97.3683 36.0373 97.987 35.248C98.6057 34.4373 99.4697 33.8187 100.579 33.392C101.71 32.944 103.043 32.72 104.579 32.72C105.731 32.72 106.894 32.848 108.067 33.104C109.24 33.36 110.211 33.7227 110.979 34.192L109.443 37.232C108.632 36.7413 107.811 36.4107 106.979 36.24C106.168 36.048 105.358 35.952 104.547 35.952C103.331 35.952 102.424 36.1333 101.827 36.496C101.251 36.8587 100.963 37.3173 100.963 37.872C100.963 38.384 101.155 38.768 101.539 39.024C101.923 39.28 102.424 39.4827 103.043 39.632C103.662 39.7813 104.344 39.9093 105.091 40.016C105.859 40.1013 106.616 40.24 107.363 40.432C108.11 40.624 108.792 40.8907 109.411 41.232C110.051 41.552 110.563 42.0107 110.947 42.608C111.331 43.2053 111.523 43.984 111.523 44.944C111.523 46.0107 111.203 46.9387 110.563 47.728C109.944 48.5173 109.059 49.136 107.907 49.584C106.755 50.0107 105.379 50.224 103.779 50.224ZM124.664 32.72C126.029 32.72 127.245 32.9867 128.312 33.52C129.4 34.0533 130.253 34.8747 130.872 35.984C131.49 37.072 131.8 38.48 131.8 40.208V50H127.8V40.72C127.8 39.2053 127.437 38.0747 126.712 37.328C126.008 36.5813 125.016 36.208 123.736 36.208C122.797 36.208 121.965 36.4 121.24 36.784C120.514 37.168 119.949 37.744 119.544 38.512C119.16 39.2587 118.968 40.208 118.968 41.36V50H114.968V26.256H118.968V37.52L118.104 36.112C118.701 35.024 119.565 34.192 120.696 33.616C121.848 33.0187 123.17 32.72 124.664 32.72ZM146.346 50.224C144.895 50.224 143.605 49.904 142.474 49.264C141.343 48.624 140.447 47.664 139.786 46.384C139.146 45.0827 138.826 43.44 138.826 41.456C138.826 39.4507 139.157 37.808 139.818 36.528C140.501 35.248 141.407 34.2987 142.538 33.68C143.69 33.04 144.959 32.72 146.346 32.72C148.031 32.72 149.514 33.0827 150.794 33.808C152.095 34.5333 153.119 35.5467 153.866 36.848C154.634 38.1493 155.018 39.6853 155.018 41.456C155.018 43.2267 154.634 44.7627 153.866 46.064C153.119 47.3653 152.095 48.3893 150.794 49.136C149.514 49.8613 148.031 50.224 146.346 50.224ZM136.874 50V26.256H140.874V36.88L140.554 41.424L140.682 45.968V50H136.874ZM145.898 46.8C146.858 46.8 147.711 46.5867 148.458 46.16C149.226 45.7333 149.834 45.1147 150.282 44.304C150.73 43.4933 150.954 42.544 150.954 41.456C150.954 40.3467 150.73 39.3973 150.282 38.608C149.834 37.7973 149.226 37.1787 148.458 36.752C147.711 36.3253 146.858 36.112 145.898 36.112C144.938 36.112 144.074 36.3253 143.306 36.752C142.538 37.1787 141.93 37.7973 141.482 38.608C141.034 39.3973 140.81 40.3467 140.81 41.456C140.81 42.544 141.034 43.4933 141.482 44.304C141.93 45.1147 142.538 45.7333 143.306 46.16C144.074 46.5867 144.938 46.8 145.898 46.8ZM166.492 50.224C164.742 50.224 163.185 49.8507 161.82 49.104C160.454 48.336 159.377 47.2907 158.588 45.968C157.798 44.6453 157.404 43.1413 157.404 41.456C157.404 39.7493 157.798 38.2453 158.588 36.944C159.377 35.6213 160.454 34.5867 161.82 33.84C163.185 33.0933 164.742 32.72 166.492 32.72C168.262 32.72 169.83 33.0933 171.196 33.84C172.582 34.5867 173.66 35.6107 174.428 36.912C175.217 38.2133 175.612 39.728 175.612 41.456C175.612 43.1413 175.217 44.6453 174.428 45.968C173.66 47.2907 172.582 48.336 171.196 49.104C169.83 49.8507 168.262 50.224 166.492 50.224ZM166.492 46.8C167.473 46.8 168.348 46.5867 169.116 46.16C169.884 45.7333 170.481 45.1147 170.908 44.304C171.356 43.4933 171.58 42.544 171.58 41.456C171.58 40.3467 171.356 39.3973 170.908 38.608C170.481 37.7973 169.884 37.1787 169.116 36.752C168.348 36.3253 167.484 36.112 166.524 36.112C165.542 36.112 164.668 36.3253 163.9 36.752C163.153 37.1787 162.556 37.7973 162.108 38.608C161.66 39.3973 161.436 40.3467 161.436 41.456C161.436 42.544 161.66 43.4933 162.108 44.304C162.556 45.1147 163.153 45.7333 163.9 46.16C164.668 46.5867 165.532 46.8 166.492 46.8ZM189.746 50V46.544L189.522 45.808V39.76C189.522 38.5867 189.17 37.68 188.466 37.04C187.762 36.3787 186.695 36.048 185.266 36.048C184.306 36.048 183.356 36.1973 182.418 36.496C181.5 36.7947 180.722 37.2107 180.082 37.744L178.514 34.832C179.431 34.128 180.519 33.6053 181.778 33.264C183.058 32.9013 184.38 32.72 185.746 32.72C188.22 32.72 190.13 33.3173 191.474 34.512C192.839 35.6853 193.522 37.5093 193.522 39.984V50H189.746ZM184.37 50.224C183.09 50.224 181.97 50.0107 181.01 49.584C180.05 49.136 179.303 48.528 178.77 47.76C178.258 46.9707 178.002 46.0853 178.002 45.104C178.002 44.144 178.226 43.28 178.674 42.512C179.143 41.744 179.9 41.136 180.946 40.688C181.991 40.24 183.378 40.016 185.106 40.016H190.066V42.672H185.394C184.028 42.672 183.111 42.896 182.642 43.344C182.172 43.7707 181.938 44.304 181.938 44.944C181.938 45.6693 182.226 46.2453 182.802 46.672C183.378 47.0987 184.178 47.312 185.202 47.312C186.183 47.312 187.058 47.088 187.826 46.64C188.615 46.192 189.18 45.5307 189.522 44.656L190.194 47.056C189.81 48.0587 189.116 48.8373 188.114 49.392C187.132 49.9467 185.884 50.224 184.37 50.224ZM198.655 50V32.912H202.463V37.616L202.015 36.24C202.527 35.088 203.327 34.2133 204.415 33.616C205.525 33.0187 206.901 32.72 208.543 32.72V36.528C208.373 36.4853 208.213 36.464 208.063 36.464C207.914 36.4427 207.765 36.432 207.615 36.432C206.101 36.432 204.895 36.88 203.999 37.776C203.103 38.6507 202.655 39.9627 202.655 41.712V50H198.655ZM219.012 50.224C217.37 50.224 215.887 49.8613 214.564 49.136C213.263 48.3893 212.239 47.3653 211.492 46.064C210.746 44.7627 210.372 43.2267 210.372 41.456C210.372 39.6853 210.746 38.1493 211.492 36.848C212.239 35.5467 213.263 34.5333 214.564 33.808C215.887 33.0827 217.37 32.72 219.012 32.72C220.442 32.72 221.722 33.04 222.852 33.68C223.983 34.2987 224.879 35.248 225.54 36.528C226.202 37.808 226.532 39.4507 226.532 41.456C226.532 43.44 226.212 45.0827 225.572 46.384C224.932 47.664 224.047 48.624 222.916 49.264C221.786 49.904 220.484 50.224 219.012 50.224ZM219.492 46.8C220.452 46.8 221.306 46.5867 222.052 46.16C222.82 45.7333 223.428 45.1147 223.876 44.304C224.346 43.4933 224.58 42.544 224.58 41.456C224.58 40.3467 224.346 39.3973 223.876 38.608C223.428 37.7973 222.82 37.1787 222.052 36.752C221.306 36.3253 220.452 36.112 219.492 36.112C218.532 36.112 217.668 36.3253 216.9 36.752C216.154 37.1787 215.546 37.7973 215.076 38.608C214.628 39.3973 214.404 40.3467 214.404 41.456C214.404 42.544 214.628 43.4933 215.076 44.304C215.546 45.1147 216.154 45.7333 216.9 46.16C217.668 46.5867 218.532 46.8 219.492 46.8ZM224.676 50V45.968L224.836 41.424L224.516 36.88V26.256H228.484V50H224.676Z" fill="#212128"/>
<rect opacity="0.05" x="1316" y="15" width="48" height="48" rx="23" fill="#08138C"/>
<path d="M1333.25 45.8845C1333.04 45.8845 1332.86 45.8127 1332.72 45.669C1332.57 45.5252 1332.5 45.3469 1332.5 45.1343C1332.5 44.9218 1332.57 44.7437 1332.72 44.6C1332.86 44.4565 1333.04 44.3848 1333.25 44.3848H1334.31V36.923C1334.31 35.5782 1334.72 34.3891 1335.55 33.3557C1336.38 32.3224 1337.45 31.6615 1338.75 31.373V30.75C1338.75 30.4028 1338.87 30.1077 1339.11 29.8645C1339.36 29.6215 1339.65 29.5 1340 29.5C1340.35 29.5 1340.64 29.6215 1340.88 29.8645C1341.13 30.1077 1341.25 30.4028 1341.25 30.75V31.373C1342.55 31.6615 1343.62 32.3224 1344.45 33.3557C1345.28 34.3891 1345.69 35.5782 1345.69 36.923V44.3848H1346.75C1346.96 44.3848 1347.14 44.4566 1347.28 44.6003C1347.43 44.7441 1347.5 44.9223 1347.5 45.135C1347.5 45.3475 1347.43 45.5256 1347.28 45.6693C1347.14 45.8128 1346.96 45.8845 1346.75 45.8845H1333.25ZM1340 48.6923C1339.5 48.6923 1339.08 48.5153 1338.72 48.1613C1338.37 47.8073 1338.19 47.3817 1338.19 46.8845H1341.81C1341.81 47.3833 1341.63 47.8093 1341.28 48.1625C1340.92 48.5157 1340.5 48.6923 1340 48.6923ZM1335.81 44.3848H1344.19V36.923C1344.19 35.7653 1343.78 34.7772 1342.96 33.9587C1342.15 33.1401 1341.16 32.7307 1340 32.7307C1338.84 32.7307 1337.85 33.1401 1337.04 33.9587C1336.22 34.7772 1335.81 35.7653 1335.81 36.923V44.3848Z" fill="#08138C"/>
<rect x="1384" y="15" width="48" height="48" rx="23" fill="#08138C"/>
<path d="M1402.04 46.2882C1401.21 46.2882 1400.43 46.126 1399.72 45.8016C1399.02 45.4772 1398.45 45.0093 1398 44.3979L1399.38 42.7322C1399.75 43.2313 1400.14 43.6056 1400.56 43.8551C1401 44.1047 1401.47 44.2294 1401.99 44.2294C1403.35 44.2294 1404.03 43.4247 1404.03 41.8151V35.04H1399.37V33H1406.46V41.6841C1406.46 43.2313 1406.08 44.3854 1405.32 45.1465C1404.57 45.9076 1403.48 46.2882 1402.04 46.2882Z" fill="white"/>
<path d="M1409.12 46.101V33H1414.85C1416.27 33 1417.52 33.2745 1418.59 33.8235C1419.67 34.3725 1420.5 35.1336 1421.1 36.1068C1421.7 37.08 1422 38.2279 1422 39.5505C1422 40.8606 1421.7 42.0085 1421.1 42.9942C1420.5 43.9674 1419.67 44.7285 1418.59 45.2775C1417.52 45.8265 1416.27 46.101 1414.85 46.101H1409.12ZM1411.56 44.0423H1414.74C1415.72 44.0423 1416.57 43.8551 1417.28 43.4808C1418.01 43.1065 1418.56 42.5825 1418.95 41.9087C1419.35 41.2349 1419.55 40.4489 1419.55 39.5505C1419.55 38.6397 1419.35 37.8536 1418.95 37.1923C1418.56 36.5186 1418.01 35.9945 1417.28 35.6202C1416.57 35.2459 1415.72 35.0587 1414.74 35.0587H1411.56V44.0423Z" fill="white"/>
<path d="M1445.65 45.18C1444.85 45.18 1444.11 45.024 1443.42 44.712C1442.75 44.4 1442.2 43.95 1441.77 43.362L1443.1 41.76C1443.45 42.24 1443.82 42.6 1444.23 42.84C1444.65 43.08 1445.11 43.2 1445.6 43.2C1446.91 43.2 1447.56 42.426 1447.56 40.878V34.362H1443.08V32.4H1449.9V40.752C1449.9 42.24 1449.54 43.35 1448.8 44.082C1448.08 44.814 1447.03 45.18 1445.65 45.18ZM1456.57 45.126C1455.58 45.126 1454.71 44.916 1453.94 44.496C1453.17 44.064 1452.57 43.476 1452.12 42.732C1451.68 41.988 1451.46 41.142 1451.46 40.194C1451.46 39.234 1451.68 38.388 1452.12 37.656C1452.57 36.912 1453.17 36.33 1453.94 35.91C1454.71 35.49 1455.58 35.28 1456.57 35.28C1457.56 35.28 1458.45 35.49 1459.21 35.91C1459.99 36.33 1460.6 36.906 1461.03 37.638C1461.48 38.37 1461.7 39.222 1461.7 40.194C1461.7 41.142 1461.48 41.988 1461.03 42.732C1460.6 43.476 1459.99 44.064 1459.21 44.496C1458.45 44.916 1457.56 45.126 1456.57 45.126ZM1456.57 43.2C1457.12 43.2 1457.61 43.08 1458.04 42.84C1458.48 42.6 1458.81 42.252 1459.05 41.796C1459.3 41.34 1459.43 40.806 1459.43 40.194C1459.43 39.57 1459.3 39.036 1459.05 38.592C1458.81 38.136 1458.48 37.788 1458.04 37.548C1457.61 37.308 1457.13 37.188 1456.59 37.188C1456.03 37.188 1455.54 37.308 1455.11 37.548C1454.69 37.788 1454.35 38.136 1454.1 38.592C1453.85 39.036 1453.72 39.57 1453.72 40.194C1453.72 40.806 1453.85 41.34 1454.1 41.796C1454.35 42.252 1454.69 42.6 1455.11 42.84C1455.54 43.08 1456.03 43.2 1456.57 43.2ZM1468.58 35.28C1469.35 35.28 1470.04 35.43 1470.64 35.73C1471.25 36.03 1471.73 36.492 1472.08 37.116C1472.42 37.728 1472.6 38.52 1472.6 39.492V45H1470.35V39.78C1470.35 38.928 1470.14 38.292 1469.74 37.872C1469.34 37.452 1468.78 37.242 1468.06 37.242C1467.53 37.242 1467.07 37.35 1466.66 37.566C1466.25 37.782 1465.93 38.106 1465.7 38.538C1465.49 38.958 1465.38 39.492 1465.38 40.14V45H1463.13V31.644H1465.38V37.98L1464.89 37.188C1465.23 36.576 1465.72 36.108 1466.35 35.784C1467 35.448 1467.74 35.28 1468.58 35.28ZM1480.19 35.28C1480.95 35.28 1481.64 35.43 1482.24 35.73C1482.85 36.03 1483.33 36.492 1483.68 37.116C1484.03 37.728 1484.2 38.52 1484.2 39.492V45H1481.95V39.78C1481.95 38.928 1481.75 38.292 1481.34 37.872C1480.94 37.452 1480.38 37.242 1479.66 37.242C1479.14 37.242 1478.67 37.35 1478.26 37.566C1477.85 37.782 1477.53 38.106 1477.31 38.538C1477.09 38.958 1476.98 39.492 1476.98 40.14V45H1474.73V35.388H1476.87V37.98L1476.5 37.188C1476.83 36.576 1477.32 36.108 1477.95 35.784C1478.6 35.448 1479.35 35.28 1480.19 35.28ZM1490.8 45V32.4H1496.31C1497.68 32.4 1498.88 32.664 1499.91 33.192C1500.94 33.72 1501.75 34.452 1502.32 35.388C1502.9 36.324 1503.19 37.428 1503.19 38.7C1503.19 39.96 1502.9 41.064 1502.32 42.012C1501.75 42.948 1500.94 43.68 1499.91 44.208C1498.88 44.736 1497.68 45 1496.31 45H1490.8ZM1493.14 43.02H1496.2C1497.15 43.02 1497.97 42.84 1498.65 42.48C1499.35 42.12 1499.88 41.616 1500.25 40.968C1500.64 40.32 1500.83 39.564 1500.83 38.7C1500.83 37.824 1500.64 37.068 1500.25 36.432C1499.88 35.784 1499.35 35.28 1498.65 34.92C1497.97 34.56 1497.15 34.38 1496.2 34.38H1493.14V43.02ZM1509.06 45.126C1508.08 45.126 1507.2 44.916 1506.43 44.496C1505.66 44.064 1505.06 43.476 1504.61 42.732C1504.17 41.988 1503.95 41.142 1503.95 40.194C1503.95 39.234 1504.17 38.388 1504.61 37.656C1505.06 36.912 1505.66 36.33 1506.43 35.91C1507.2 35.49 1508.08 35.28 1509.06 35.28C1510.06 35.28 1510.94 35.49 1511.71 35.91C1512.49 36.33 1513.09 36.906 1513.52 37.638C1513.97 38.37 1514.19 39.222 1514.19 40.194C1514.19 41.142 1513.97 41.988 1513.52 42.732C1513.09 43.476 1512.49 44.064 1511.71 44.496C1510.94 44.916 1510.06 45.126 1509.06 45.126ZM1509.06 43.2C1509.61 43.2 1510.1 43.08 1510.54 42.84C1510.97 42.6 1511.3 42.252 1511.54 41.796C1511.8 41.34 1511.92 40.806 1511.92 40.194C1511.92 39.57 1511.8 39.036 1511.54 38.592C1511.3 38.136 1510.97 37.788 1510.54 37.548C1510.1 37.308 1509.62 37.188 1509.08 37.188C1508.53 37.188 1508.03 37.308 1507.6 37.548C1507.18 37.788 1506.85 38.136 1506.59 38.592C1506.34 39.036 1506.22 39.57 1506.22 40.194C1506.22 40.806 1506.34 41.34 1506.59 41.796C1506.85 42.252 1507.18 42.6 1507.6 42.84C1508.03 43.08 1508.52 43.2 1509.06 43.2ZM1520.14 45.126C1519.07 45.126 1518.14 44.916 1517.33 44.496C1516.54 44.064 1515.92 43.476 1515.48 42.732C1515.05 41.988 1514.83 41.142 1514.83 40.194C1514.83 39.234 1515.04 38.388 1515.46 37.656C1515.89 36.912 1516.48 36.33 1517.22 35.91C1517.98 35.49 1518.84 35.28 1519.8 35.28C1520.73 35.28 1521.57 35.484 1522.3 35.892C1523.03 36.3 1523.61 36.876 1524.03 37.62C1524.45 38.364 1524.66 39.24 1524.66 40.248C1524.66 40.344 1524.65 40.452 1524.64 40.572C1524.64 40.692 1524.63 40.806 1524.62 40.914H1516.61V39.42H1523.43L1522.55 39.888C1522.56 39.336 1522.45 38.85 1522.21 38.43C1521.97 38.01 1521.64 37.68 1521.22 37.44C1520.81 37.2 1520.34 37.08 1519.8 37.08C1519.25 37.08 1518.76 37.2 1518.34 37.44C1517.93 37.68 1517.61 38.016 1517.37 38.448C1517.14 38.868 1517.03 39.366 1517.03 39.942V40.302C1517.03 40.878 1517.16 41.388 1517.42 41.832C1517.69 42.276 1518.06 42.618 1518.54 42.858C1519.02 43.098 1519.57 43.218 1520.19 43.218C1520.73 43.218 1521.22 43.134 1521.65 42.966C1522.08 42.798 1522.47 42.534 1522.8 42.174L1524.01 43.56C1523.58 44.064 1523.03 44.454 1522.37 44.73C1521.72 44.994 1520.98 45.126 1520.14 45.126Z" fill="#08138C"/>
<path d="M1540.66 44.6731C1540.48 44.6731 1540.31 44.6443 1540.15 44.5866C1540 44.529 1539.85 44.4301 1539.71 44.2901L1532.98 37.5596C1532.77 37.3522 1532.67 37.0914 1532.66 36.7775C1532.66 36.4637 1532.76 36.1983 1532.98 35.9811C1533.2 35.7642 1533.46 35.6558 1533.77 35.6558C1534.08 35.6558 1534.34 35.7642 1534.56 35.9811L1540.66 42.0812L1546.76 35.9811C1546.96 35.7739 1547.22 35.6679 1547.54 35.6629C1547.85 35.6581 1548.12 35.7642 1548.34 35.9811C1548.55 36.1983 1548.66 36.4613 1548.66 36.7703C1548.66 37.0793 1548.55 37.3424 1548.34 37.5596L1541.6 44.2901C1541.46 44.4301 1541.32 44.529 1541.16 44.5866C1541.01 44.6443 1540.84 44.6731 1540.66 44.6731Z" fill="#08138C"/>
</svg>
