<svg width="430" height="476" viewBox="0 0 430 476" fill="none" xmlns="http://www.w3.org/2000/svg">
<line opacity="0.05" x1="38" y1="441.629" x2="426" y2="441.629" stroke="#030229" stroke-width="0.741884"/>
<line opacity="0.05" x1="38" y1="354.629" x2="426" y2="354.629" stroke="#030229" stroke-width="0.741884"/>
<line opacity="0.05" x1="38" y1="267.629" x2="426" y2="267.629" stroke="#030229" stroke-width="0.741884"/>
<line opacity="0.05" x1="38" y1="180.629" x2="426" y2="180.629" stroke="#030229" stroke-width="0.741884"/>
<line opacity="0.05" x1="38" y1="93.6291" x2="426" y2="93.6291" stroke="#030229" stroke-width="0.741884"/>
<line opacity="0.05" x1="38" y1="6.62906" x2="426" y2="6.62906" stroke="#030229" stroke-width="0.741884"/>
<g opacity="0.7">
<path opacity="0.7" d="M1.56172 10C1.44172 10 1.34839 9.97 1.28172 9.91C1.21505 9.84333 1.18172 9.75333 1.18172 9.64C1.18172 9.52667 1.21505 9.44333 1.28172 9.39C1.34839 9.33 1.44172 9.3 1.56172 9.3H2.86172V3.63H3.29172L1.84172 4.59C1.75505 4.63667 1.67172 4.65667 1.59172 4.65C1.51839 4.64333 1.45505 4.61667 1.40172 4.57C1.35505 4.51667 1.32172 4.45667 1.30172 4.39C1.28172 4.31667 1.28505 4.24333 1.31172 4.17C1.33839 4.09 1.39505 4.02333 1.48172 3.97L2.86172 3.06C2.94839 3.00667 3.03172 2.96333 3.11172 2.93C3.19172 2.89667 3.27172 2.88 3.35172 2.88C3.44505 2.88 3.52172 2.91 3.58172 2.97C3.64839 3.02333 3.68172 3.11 3.68172 3.23V9.3H4.88172C5.00172 9.3 5.09505 9.33 5.16172 9.39C5.22839 9.44333 5.26172 9.52667 5.26172 9.64C5.26172 9.76 5.22839 9.85 5.16172 9.91C5.09505 9.97 5.00172 10 4.88172 10H1.56172ZM9.00781 10.09C8.20115 10.09 7.58781 9.78 7.16781 9.16C6.74781 8.54 6.53781 7.64333 6.53781 6.47C6.53781 5.68333 6.63115 5.02333 6.81781 4.49C7.00448 3.95 7.28115 3.54333 7.64781 3.27C8.02115 2.99667 8.47448 2.86 9.00781 2.86C9.82115 2.86 10.4345 3.16667 10.8478 3.78C11.2678 4.38667 11.4778 5.28 11.4778 6.46C11.4778 7.24667 11.3845 7.91 11.1978 8.45C11.0111 8.99 10.7345 9.4 10.3678 9.68C10.0011 9.95333 9.54781 10.09 9.00781 10.09ZM9.00781 9.38C9.56781 9.38 9.98115 9.14333 10.2478 8.67C10.5211 8.19 10.6578 7.45333 10.6578 6.46C10.6578 5.46 10.5211 4.73 10.2478 4.27C9.98115 3.80333 9.56781 3.57 9.00781 3.57C8.45448 3.57 8.04115 3.80333 7.76781 4.27C7.49448 4.73667 7.35781 5.46667 7.35781 6.46C7.35781 7.45333 7.49448 8.19 7.76781 8.67C8.04115 9.14333 8.45448 9.38 9.00781 9.38ZM15.0039 10.09C14.1972 10.09 13.5839 9.78 13.1639 9.16C12.7439 8.54 12.5339 7.64333 12.5339 6.47C12.5339 5.68333 12.6272 5.02333 12.8139 4.49C13.0006 3.95 13.2772 3.54333 13.6439 3.27C14.0172 2.99667 14.4706 2.86 15.0039 2.86C15.8172 2.86 16.4306 3.16667 16.8439 3.78C17.2639 4.38667 17.4739 5.28 17.4739 6.46C17.4739 7.24667 17.3806 7.91 17.1939 8.45C17.0072 8.99 16.7306 9.4 16.3639 9.68C15.9972 9.95333 15.5439 10.09 15.0039 10.09ZM15.0039 9.38C15.5639 9.38 15.9772 9.14333 16.2439 8.67C16.5172 8.19 16.6539 7.45333 16.6539 6.46C16.6539 5.46 16.5172 4.73 16.2439 4.27C15.9772 3.80333 15.5639 3.57 15.0039 3.57C14.4506 3.57 14.0372 3.80333 13.7639 4.27C13.4906 4.73667 13.3539 5.46667 13.3539 6.46C13.3539 7.45333 13.4906 8.19 13.7639 8.67C14.0372 9.14333 14.4506 9.38 15.0039 9.38Z" fill="#030229"/>
<path opacity="0.7" d="M8.08752 96.09C7.56086 96.09 7.10752 96.0133 6.72752 95.86C6.35419 95.7067 6.06752 95.4833 5.86752 95.19C5.67419 94.8967 5.57752 94.5433 5.57752 94.13C5.57752 93.8033 5.64419 93.5133 5.77752 93.26C5.91086 93 6.09752 92.79 6.33752 92.63C6.57752 92.47 6.85419 92.37 7.16752 92.33V92.48C6.73419 92.3867 6.38752 92.1833 6.12752 91.87C5.87419 91.55 5.74752 91.1733 5.74752 90.74C5.74752 90.34 5.84086 90.0033 6.02752 89.73C6.22086 89.45 6.49419 89.2367 6.84752 89.09C7.20086 88.9367 7.61419 88.86 8.08752 88.86C8.56752 88.86 8.98086 88.9367 9.32752 89.09C9.68086 89.2367 9.95419 89.45 10.1475 89.73C10.3409 90.0033 10.4375 90.34 10.4375 90.74C10.4375 91.0267 10.3775 91.2933 10.2575 91.54C10.1442 91.78 9.98086 91.98 9.76752 92.14C9.55419 92.3 9.30419 92.41 9.01752 92.47V92.33C9.49086 92.3967 9.87086 92.5933 10.1575 92.92C10.4509 93.24 10.5975 93.6433 10.5975 94.13C10.5975 94.5433 10.4975 94.8967 10.2975 95.19C10.1042 95.4833 9.81752 95.7067 9.43752 95.86C9.06419 96.0133 8.61419 96.09 8.08752 96.09ZM8.08752 95.41C8.65419 95.41 9.08086 95.3 9.36752 95.08C9.66086 94.86 9.80752 94.5267 9.80752 94.08C9.80752 93.64 9.66086 93.3133 9.36752 93.1C9.08086 92.88 8.65419 92.77 8.08752 92.77C7.52752 92.77 7.10086 92.88 6.80752 93.1C6.51419 93.3133 6.36752 93.64 6.36752 94.08C6.36752 94.5267 6.51419 94.86 6.80752 95.08C7.10086 95.3 7.52752 95.41 8.08752 95.41ZM8.08752 92.09C8.41419 92.09 8.69086 92.04 8.91752 91.94C9.15086 91.8333 9.33086 91.6833 9.45752 91.49C9.58419 91.2967 9.64752 91.07 9.64752 90.81C9.64752 90.41 9.50752 90.1 9.22752 89.88C8.95419 89.6533 8.57419 89.54 8.08752 89.54C7.60086 89.54 7.22086 89.6533 6.94752 89.88C6.67419 90.1 6.53752 90.41 6.53752 90.81C6.53752 91.21 6.67419 91.5233 6.94752 91.75C7.22086 91.9767 7.60086 92.09 8.08752 92.09ZM14.0836 96.09C13.277 96.09 12.6636 95.78 12.2436 95.16C11.8236 94.54 11.6136 93.6433 11.6136 92.47C11.6136 91.6833 11.707 91.0233 11.8936 90.49C12.0803 89.95 12.357 89.5433 12.7236 89.27C13.097 88.9967 13.5503 88.86 14.0836 88.86C14.897 88.86 15.5103 89.1667 15.9236 89.78C16.3436 90.3867 16.5536 91.28 16.5536 92.46C16.5536 93.2467 16.4603 93.91 16.2736 94.45C16.087 94.99 15.8103 95.4 15.4436 95.68C15.077 95.9533 14.6236 96.09 14.0836 96.09ZM14.0836 95.38C14.6436 95.38 15.057 95.1433 15.3236 94.67C15.597 94.19 15.7336 93.4533 15.7336 92.46C15.7336 91.46 15.597 90.73 15.3236 90.27C15.057 89.8033 14.6436 89.57 14.0836 89.57C13.5303 89.57 13.117 89.8033 12.8436 90.27C12.5703 90.7367 12.4336 91.4667 12.4336 92.46C12.4336 93.4533 12.5703 94.19 12.8436 94.67C13.117 95.1433 13.5303 95.38 14.0836 95.38Z" fill="#030229"/>
<path opacity="0.7" d="M8.32752 182.09C7.77419 182.09 7.30086 181.957 6.90752 181.69C6.52086 181.417 6.22752 181.023 6.02752 180.51C5.82752 179.997 5.72752 179.377 5.72752 178.65C5.72752 178.037 5.79086 177.497 5.91752 177.03C6.04419 176.563 6.23086 176.17 6.47752 175.85C6.72419 175.523 7.02419 175.277 7.37752 175.11C7.73086 174.943 8.13086 174.86 8.57752 174.86C8.88419 174.86 9.19752 174.92 9.51752 175.04C9.84419 175.16 10.1309 175.33 10.3775 175.55C10.4509 175.603 10.4942 175.67 10.5075 175.75C10.5275 175.823 10.5275 175.897 10.5075 175.97C10.4875 176.037 10.4509 176.093 10.3975 176.14C10.3509 176.187 10.2909 176.213 10.2175 176.22C10.1442 176.22 10.0675 176.19 9.98752 176.13C9.76086 175.937 9.52752 175.8 9.28752 175.72C9.04752 175.633 8.80419 175.59 8.55752 175.59C8.12419 175.59 7.75419 175.697 7.44752 175.91C7.14752 176.123 6.91752 176.447 6.75752 176.88C6.60419 177.307 6.52752 177.843 6.52752 178.49V179.42H6.43752C6.47752 179.04 6.58752 178.713 6.76752 178.44C6.95419 178.16 7.19086 177.947 7.47752 177.8C7.76419 177.653 8.08752 177.58 8.44752 177.58C8.86086 177.58 9.22752 177.673 9.54752 177.86C9.86752 178.047 10.1175 178.31 10.2975 178.65C10.4775 178.983 10.5675 179.367 10.5675 179.8C10.5675 180.24 10.4742 180.633 10.2875 180.98C10.1009 181.327 9.83752 181.6 9.49752 181.8C9.15752 181.993 8.76752 182.09 8.32752 182.09ZM8.27752 181.39C8.57086 181.39 8.83086 181.327 9.05752 181.2C9.28419 181.067 9.46086 180.883 9.58752 180.65C9.71419 180.41 9.77752 180.137 9.77752 179.83C9.77752 179.523 9.71419 179.253 9.58752 179.02C9.46086 178.787 9.28419 178.603 9.05752 178.47C8.83086 178.337 8.57086 178.27 8.27752 178.27C7.98419 178.27 7.72419 178.337 7.49752 178.47C7.27086 178.603 7.09419 178.787 6.96752 179.02C6.84086 179.253 6.77752 179.523 6.77752 179.83C6.77752 180.137 6.84086 180.41 6.96752 180.65C7.09419 180.883 7.27086 181.067 7.49752 181.2C7.72419 181.327 7.98419 181.39 8.27752 181.39ZM14.0836 182.09C13.277 182.09 12.6636 181.78 12.2436 181.16C11.8236 180.54 11.6136 179.643 11.6136 178.47C11.6136 177.683 11.707 177.023 11.8936 176.49C12.0803 175.95 12.357 175.543 12.7236 175.27C13.097 174.997 13.5503 174.86 14.0836 174.86C14.897 174.86 15.5103 175.167 15.9236 175.78C16.3436 176.387 16.5536 177.28 16.5536 178.46C16.5536 179.247 16.4603 179.91 16.2736 180.45C16.087 180.99 15.8103 181.4 15.4436 181.68C15.077 181.953 14.6236 182.09 14.0836 182.09ZM14.0836 181.38C14.6436 181.38 15.057 181.143 15.3236 180.67C15.597 180.19 15.7336 179.453 15.7336 178.46C15.7336 177.46 15.597 176.73 15.3236 176.27C15.057 175.803 14.6436 175.57 14.0836 175.57C13.5303 175.57 13.117 175.803 12.8436 176.27C12.5703 176.737 12.4336 177.467 12.4336 178.46C12.4336 179.453 12.5703 180.19 12.8436 180.67C13.117 181.143 13.5303 181.38 14.0836 181.38Z" fill="#030229"/>
<path opacity="0.7" d="M9.26752 268.07C9.14086 268.07 9.04086 268.033 8.96752 267.96C8.89419 267.887 8.85752 267.783 8.85752 267.65V266.49H5.98752C5.85419 266.49 5.74752 266.46 5.66752 266.4C5.59419 266.333 5.55752 266.24 5.55752 266.12C5.55752 266.047 5.57419 265.973 5.60752 265.9C5.64086 265.82 5.70086 265.72 5.78752 265.6L8.83752 261.16C8.89752 261.067 8.96419 260.997 9.03752 260.95C9.11086 260.903 9.19752 260.88 9.29752 260.88C9.40419 260.88 9.49419 260.913 9.56752 260.98C9.64752 261.047 9.68752 261.153 9.68752 261.3V265.79H10.4175C10.5442 265.79 10.6409 265.82 10.7075 265.88C10.7742 265.94 10.8075 266.027 10.8075 266.14C10.8075 266.253 10.7742 266.34 10.7075 266.4C10.6409 266.46 10.5442 266.49 10.4175 266.49H9.68752V267.65C9.68752 267.783 9.65086 267.887 9.57752 267.96C9.50419 268.033 9.40086 268.07 9.26752 268.07ZM8.85752 265.79V261.91H9.09752L6.29752 266.01V265.79H8.85752ZM14.0836 268.09C13.277 268.09 12.6636 267.78 12.2436 267.16C11.8236 266.54 11.6136 265.643 11.6136 264.47C11.6136 263.683 11.707 263.023 11.8936 262.49C12.0803 261.95 12.357 261.543 12.7236 261.27C13.097 260.997 13.5503 260.86 14.0836 260.86C14.897 260.86 15.5103 261.167 15.9236 261.78C16.3436 262.387 16.5536 263.28 16.5536 264.46C16.5536 265.247 16.4603 265.91 16.2736 266.45C16.087 266.99 15.8103 267.4 15.4436 267.68C15.077 267.953 14.6236 268.09 14.0836 268.09ZM14.0836 267.38C14.6436 267.38 15.057 267.143 15.3236 266.67C15.597 266.19 15.7336 265.453 15.7336 264.46C15.7336 263.46 15.597 262.73 15.3236 262.27C15.057 261.803 14.6436 261.57 14.0836 261.57C13.5303 261.57 13.117 261.803 12.8436 262.27C12.5703 262.737 12.4336 263.467 12.4336 264.46C12.4336 265.453 12.5703 266.19 12.8436 266.67C13.117 267.143 13.5303 267.38 14.0836 267.38Z" fill="#030229"/>
<path opacity="0.7" d="M6.37752 354C6.23086 354 6.12086 353.967 6.04752 353.9C5.98086 353.827 5.94752 353.73 5.94752 353.61C5.94752 353.537 5.96419 353.467 5.99752 353.4C6.03752 353.327 6.09086 353.253 6.15752 353.18L8.39752 350.78C8.73752 350.413 8.98086 350.077 9.12752 349.77C9.28086 349.457 9.35752 349.14 9.35752 348.82C9.35752 348.42 9.23419 348.117 8.98752 347.91C8.74752 347.697 8.39419 347.59 7.92752 347.59C7.62752 347.59 7.34419 347.637 7.07752 347.73C6.81086 347.823 6.55419 347.967 6.30752 348.16C6.22086 348.227 6.14086 348.257 6.06752 348.25C6.00086 348.243 5.94086 348.217 5.88752 348.17C5.83419 348.123 5.79752 348.063 5.77752 347.99C5.75752 347.917 5.75752 347.843 5.77752 347.77C5.80419 347.697 5.85752 347.63 5.93752 347.57C6.19752 347.357 6.51086 347.187 6.87752 347.06C7.24419 346.927 7.61752 346.86 7.99752 346.86C8.47086 346.86 8.87086 346.933 9.19752 347.08C9.52419 347.227 9.77086 347.443 9.93752 347.73C10.1042 348.01 10.1875 348.353 10.1875 348.76C10.1875 349.04 10.1409 349.317 10.0475 349.59C9.96086 349.857 9.82419 350.13 9.63752 350.41C9.45752 350.69 9.22086 350.98 8.92752 351.28L6.79752 353.53V353.3H10.1675C10.2942 353.3 10.3875 353.33 10.4475 353.39C10.5142 353.443 10.5475 353.527 10.5475 353.64C10.5475 353.76 10.5142 353.85 10.4475 353.91C10.3875 353.97 10.2942 354 10.1675 354H6.37752ZM14.0836 354.09C13.277 354.09 12.6636 353.78 12.2436 353.16C11.8236 352.54 11.6136 351.643 11.6136 350.47C11.6136 349.683 11.707 349.023 11.8936 348.49C12.0803 347.95 12.357 347.543 12.7236 347.27C13.097 346.997 13.5503 346.86 14.0836 346.86C14.897 346.86 15.5103 347.167 15.9236 347.78C16.3436 348.387 16.5536 349.28 16.5536 350.46C16.5536 351.247 16.4603 351.91 16.2736 352.45C16.087 352.99 15.8103 353.4 15.4436 353.68C15.077 353.953 14.6236 354.09 14.0836 354.09ZM14.0836 353.38C14.6436 353.38 15.057 353.143 15.3236 352.67C15.597 352.19 15.7336 351.453 15.7336 350.46C15.7336 349.46 15.597 348.73 15.3236 348.27C15.057 347.803 14.6436 347.57 14.0836 347.57C13.5303 347.57 13.117 347.803 12.8436 348.27C12.5703 348.737 12.4336 349.467 12.4336 350.46C12.4336 351.453 12.5703 352.19 12.8436 352.67C13.117 353.143 13.5303 353.38 14.0836 353.38Z" fill="#030229"/>
<path opacity="0.7" d="M14.1927 440.09C13.3861 440.09 12.7727 439.78 12.3527 439.16C11.9327 438.54 11.7227 437.643 11.7227 436.47C11.7227 435.683 11.8161 435.023 12.0027 434.49C12.1894 433.95 12.4661 433.543 12.8327 433.27C13.2061 432.997 13.6594 432.86 14.1927 432.86C15.0061 432.86 15.6194 433.167 16.0327 433.78C16.4527 434.387 16.6627 435.28 16.6627 436.46C16.6627 437.247 16.5694 437.91 16.3827 438.45C16.1961 438.99 15.9194 439.4 15.5527 439.68C15.1861 439.953 14.7327 440.09 14.1927 440.09ZM14.1927 439.38C14.7527 439.38 15.1661 439.143 15.4327 438.67C15.7061 438.19 15.8427 437.453 15.8427 436.46C15.8427 435.46 15.7061 434.73 15.4327 434.27C15.1661 433.803 14.7527 433.57 14.1927 433.57C13.6394 433.57 13.2261 433.803 12.9527 434.27C12.6794 434.737 12.5427 435.467 12.5427 436.46C12.5427 437.453 12.6794 438.19 12.9527 438.67C13.2261 439.143 13.6394 439.38 14.1927 439.38Z" fill="#030229"/>
</g>
<g opacity="0.7">
<path opacity="0.7" d="M29.7939 471.844C29.6739 471.844 29.5806 471.814 29.5139 471.754C29.4472 471.687 29.4139 471.597 29.4139 471.484C29.4139 471.371 29.4472 471.287 29.5139 471.234C29.5806 471.174 29.6739 471.144 29.7939 471.144H31.0939V465.474H31.5239L30.0739 466.434C29.9872 466.481 29.9039 466.501 29.8239 466.494C29.7506 466.487 29.6872 466.461 29.6339 466.414C29.5872 466.361 29.5539 466.301 29.5339 466.234C29.5139 466.161 29.5172 466.087 29.5439 466.014C29.5706 465.934 29.6272 465.867 29.7139 465.814L31.0939 464.904C31.1806 464.851 31.2639 464.807 31.3439 464.774C31.4239 464.741 31.5039 464.724 31.5839 464.724C31.6772 464.724 31.7539 464.754 31.8139 464.814C31.8806 464.867 31.9139 464.954 31.9139 465.074V471.144H33.1139C33.2339 471.144 33.3272 471.174 33.3939 471.234C33.4606 471.287 33.4939 471.371 33.4939 471.484C33.4939 471.604 33.4606 471.694 33.3939 471.754C33.3272 471.814 33.2339 471.844 33.1139 471.844H29.7939ZM37.24 471.934C36.4333 471.934 35.82 471.624 35.4 471.004C34.98 470.384 34.77 469.487 34.77 468.314C34.77 467.527 34.8633 466.867 35.05 466.334C35.2367 465.794 35.5133 465.387 35.88 465.114C36.2533 464.841 36.7067 464.704 37.24 464.704C38.0533 464.704 38.6667 465.011 39.08 465.624C39.5 466.231 39.71 467.124 39.71 468.304C39.71 469.091 39.6167 469.754 39.43 470.294C39.2433 470.834 38.9667 471.244 38.6 471.524C38.2333 471.797 37.78 471.934 37.24 471.934ZM37.24 471.224C37.8 471.224 38.2133 470.987 38.48 470.514C38.7533 470.034 38.89 469.297 38.89 468.304C38.89 467.304 38.7533 466.574 38.48 466.114C38.2133 465.647 37.8 465.414 37.24 465.414C36.6867 465.414 36.2733 465.647 36 466.114C35.7267 466.581 35.59 467.311 35.59 468.304C35.59 469.297 35.7267 470.034 36 470.514C36.2733 470.987 36.6867 471.224 37.24 471.224ZM42.5261 471.934C42.1928 471.934 41.8928 471.871 41.6261 471.744C41.3661 471.611 41.1594 471.431 41.0061 471.204C40.8528 470.977 40.7761 470.724 40.7761 470.444C40.7761 470.084 40.8661 469.801 41.0461 469.594C41.2328 469.387 41.5361 469.241 41.9561 469.154C42.3828 469.067 42.9628 469.024 43.6961 469.024H44.1461V469.554H43.7061C43.1661 469.554 42.7394 469.581 42.4261 469.634C42.1194 469.681 41.9028 469.764 41.7761 469.884C41.6561 470.004 41.5961 470.174 41.5961 470.394C41.5961 470.667 41.6894 470.891 41.8761 471.064C42.0694 471.237 42.3294 471.324 42.6561 471.324C42.9228 471.324 43.1561 471.261 43.3561 471.134C43.5628 471.007 43.7228 470.834 43.8361 470.614C43.9561 470.394 44.0161 470.141 44.0161 469.854V468.714C44.0161 468.301 43.9328 468.004 43.7661 467.824C43.5994 467.637 43.3261 467.544 42.9461 467.544C42.7128 467.544 42.4794 467.574 42.2461 467.634C42.0128 467.694 41.7661 467.791 41.5061 467.924C41.4128 467.971 41.3328 467.987 41.2661 467.974C41.1994 467.954 41.1461 467.917 41.1061 467.864C41.0661 467.811 41.0428 467.751 41.0361 467.684C41.0294 467.611 41.0428 467.541 41.0761 467.474C41.1161 467.407 41.1761 467.354 41.2561 467.314C41.5494 467.167 41.8394 467.061 42.1261 466.994C42.4128 466.927 42.6861 466.894 42.9461 466.894C43.3661 466.894 43.7128 466.964 43.9861 467.104C44.2594 467.237 44.4628 467.444 44.5961 467.724C44.7294 467.997 44.7961 468.351 44.7961 468.784V471.494C44.7961 471.627 44.7628 471.731 44.6961 471.804C44.6361 471.877 44.5461 471.914 44.4261 471.914C44.2994 471.914 44.2028 471.877 44.1361 471.804C44.0694 471.731 44.0361 471.627 44.0361 471.494V470.714H44.1261C44.0728 470.967 43.9694 471.184 43.8161 471.364C43.6694 471.544 43.4861 471.684 43.2661 471.784C43.0461 471.884 42.7994 471.934 42.5261 471.934ZM46.7188 471.914C46.5855 471.914 46.4855 471.877 46.4188 471.804C46.3522 471.731 46.3188 471.627 46.3188 471.494V467.324C46.3188 467.191 46.3522 467.091 46.4188 467.024C46.4855 466.951 46.5822 466.914 46.7088 466.914C46.8355 466.914 46.9322 466.951 46.9988 467.024C47.0722 467.091 47.1088 467.191 47.1088 467.324V468.204L46.9988 468.064C47.1255 467.691 47.3288 467.404 47.6088 467.204C47.8955 466.997 48.2355 466.894 48.6288 466.894C49.0422 466.894 49.3755 466.994 49.6288 467.194C49.8888 467.387 50.0622 467.691 50.1488 468.104H49.9988C50.1188 467.731 50.3322 467.437 50.6388 467.224C50.9522 467.004 51.3155 466.894 51.7288 466.894C52.0955 466.894 52.3955 466.964 52.6288 467.104C52.8688 467.244 53.0488 467.457 53.1688 467.744C53.2888 468.024 53.3488 468.381 53.3488 468.814V471.494C53.3488 471.627 53.3122 471.731 53.2388 471.804C53.1722 471.877 53.0722 471.914 52.9388 471.914C52.8122 471.914 52.7122 471.877 52.6388 471.804C52.5722 471.731 52.5388 471.627 52.5388 471.494V468.854C52.5388 468.407 52.4622 468.081 52.3088 467.874C52.1555 467.661 51.8955 467.554 51.5288 467.554C51.1288 467.554 50.8122 467.694 50.5788 467.974C50.3522 468.247 50.2388 468.621 50.2388 469.094V471.494C50.2388 471.627 50.2022 471.731 50.1288 471.804C50.0622 471.877 49.9622 471.914 49.8288 471.914C49.7022 471.914 49.6022 471.877 49.5288 471.804C49.4622 471.731 49.4288 471.627 49.4288 471.494V468.854C49.4288 468.407 49.3488 468.081 49.1888 467.874C49.0355 467.661 48.7788 467.554 48.4188 467.554C48.0188 467.554 47.7022 467.694 47.4688 467.974C47.2422 468.247 47.1288 468.621 47.1288 469.094V471.494C47.1288 471.774 46.9922 471.914 46.7188 471.914Z" fill="#030229"/>
<path opacity="0.7" d="M70.5504 471.844C70.4304 471.844 70.337 471.814 70.2704 471.754C70.2037 471.687 70.1704 471.597 70.1704 471.484C70.1704 471.371 70.2037 471.287 70.2704 471.234C70.337 471.174 70.4304 471.144 70.5504 471.144H71.8504V465.474H72.2804L70.8304 466.434C70.7437 466.481 70.6604 466.501 70.5804 466.494C70.507 466.487 70.4437 466.461 70.3904 466.414C70.3437 466.361 70.3104 466.301 70.2904 466.234C70.2704 466.161 70.2737 466.087 70.3004 466.014C70.327 465.934 70.3837 465.867 70.4704 465.814L71.8504 464.904C71.937 464.851 72.0204 464.807 72.1004 464.774C72.1804 464.741 72.2604 464.724 72.3404 464.724C72.4337 464.724 72.5104 464.754 72.5704 464.814C72.637 464.867 72.6704 464.954 72.6704 465.074V471.144H73.8704C73.9904 471.144 74.0837 471.174 74.1504 471.234C74.217 471.287 74.2504 471.371 74.2504 471.484C74.2504 471.604 74.217 471.694 74.1504 471.754C74.0837 471.814 73.9904 471.844 73.8704 471.844H70.5504ZM76.5465 471.844C76.4265 471.844 76.3331 471.814 76.2665 471.754C76.1998 471.687 76.1665 471.597 76.1665 471.484C76.1665 471.371 76.1998 471.287 76.2665 471.234C76.3331 471.174 76.4265 471.144 76.5465 471.144H77.8465V465.474H78.2765L76.8265 466.434C76.7398 466.481 76.6565 466.501 76.5765 466.494C76.5031 466.487 76.4398 466.461 76.3865 466.414C76.3398 466.361 76.3065 466.301 76.2865 466.234C76.2665 466.161 76.2698 466.087 76.2965 466.014C76.3231 465.934 76.3798 465.867 76.4665 465.814L77.8465 464.904C77.9331 464.851 78.0165 464.807 78.0965 464.774C78.1765 464.741 78.2565 464.724 78.3365 464.724C78.4298 464.724 78.5065 464.754 78.5665 464.814C78.6331 464.867 78.6665 464.954 78.6665 465.074V471.144H79.8665C79.9865 471.144 80.0798 471.174 80.1465 471.234C80.2131 471.287 80.2465 471.371 80.2465 471.484C80.2465 471.604 80.2131 471.694 80.1465 471.754C80.0798 471.814 79.9865 471.844 79.8665 471.844H76.5465ZM83.2826 471.934C82.9492 471.934 82.6492 471.871 82.3826 471.744C82.1226 471.611 81.9159 471.431 81.7626 471.204C81.6092 470.977 81.5326 470.724 81.5326 470.444C81.5326 470.084 81.6226 469.801 81.8026 469.594C81.9892 469.387 82.2926 469.241 82.7126 469.154C83.1392 469.067 83.7192 469.024 84.4526 469.024H84.9026V469.554H84.4626C83.9226 469.554 83.4959 469.581 83.1826 469.634C82.8759 469.681 82.6592 469.764 82.5326 469.884C82.4126 470.004 82.3526 470.174 82.3526 470.394C82.3526 470.667 82.4459 470.891 82.6326 471.064C82.8259 471.237 83.0859 471.324 83.4126 471.324C83.6792 471.324 83.9126 471.261 84.1126 471.134C84.3192 471.007 84.4792 470.834 84.5926 470.614C84.7126 470.394 84.7726 470.141 84.7726 469.854V468.714C84.7726 468.301 84.6892 468.004 84.5226 467.824C84.3559 467.637 84.0826 467.544 83.7026 467.544C83.4692 467.544 83.2359 467.574 83.0026 467.634C82.7692 467.694 82.5226 467.791 82.2626 467.924C82.1692 467.971 82.0892 467.987 82.0226 467.974C81.9559 467.954 81.9026 467.917 81.8626 467.864C81.8226 467.811 81.7992 467.751 81.7926 467.684C81.7859 467.611 81.7992 467.541 81.8326 467.474C81.8726 467.407 81.9326 467.354 82.0126 467.314C82.3059 467.167 82.5959 467.061 82.8826 466.994C83.1692 466.927 83.4426 466.894 83.7026 466.894C84.1226 466.894 84.4692 466.964 84.7426 467.104C85.0159 467.237 85.2192 467.444 85.3526 467.724C85.4859 467.997 85.5526 468.351 85.5526 468.784V471.494C85.5526 471.627 85.5192 471.731 85.4526 471.804C85.3926 471.877 85.3026 471.914 85.1826 471.914C85.0559 471.914 84.9592 471.877 84.8926 471.804C84.8259 471.731 84.7926 471.627 84.7926 471.494V470.714H84.8826C84.8292 470.967 84.7259 471.184 84.5726 471.364C84.4259 471.544 84.2426 471.684 84.0226 471.784C83.8026 471.884 83.5559 471.934 83.2826 471.934ZM87.4753 471.914C87.342 471.914 87.242 471.877 87.1753 471.804C87.1086 471.731 87.0753 471.627 87.0753 471.494V467.324C87.0753 467.191 87.1086 467.091 87.1753 467.024C87.242 466.951 87.3386 466.914 87.4653 466.914C87.592 466.914 87.6886 466.951 87.7553 467.024C87.8286 467.091 87.8653 467.191 87.8653 467.324V468.204L87.7553 468.064C87.882 467.691 88.0853 467.404 88.3653 467.204C88.652 466.997 88.992 466.894 89.3853 466.894C89.7986 466.894 90.132 466.994 90.3853 467.194C90.6453 467.387 90.8186 467.691 90.9053 468.104H90.7553C90.8753 467.731 91.0886 467.437 91.3953 467.224C91.7086 467.004 92.072 466.894 92.4853 466.894C92.852 466.894 93.152 466.964 93.3853 467.104C93.6253 467.244 93.8053 467.457 93.9253 467.744C94.0453 468.024 94.1053 468.381 94.1053 468.814V471.494C94.1053 471.627 94.0686 471.731 93.9953 471.804C93.9286 471.877 93.8286 471.914 93.6953 471.914C93.5686 471.914 93.4686 471.877 93.3953 471.804C93.3286 471.731 93.2953 471.627 93.2953 471.494V468.854C93.2953 468.407 93.2186 468.081 93.0653 467.874C92.912 467.661 92.652 467.554 92.2853 467.554C91.8853 467.554 91.5686 467.694 91.3353 467.974C91.1086 468.247 90.9953 468.621 90.9953 469.094V471.494C90.9953 471.627 90.9586 471.731 90.8853 471.804C90.8186 471.877 90.7186 471.914 90.5853 471.914C90.4586 471.914 90.3586 471.877 90.2853 471.804C90.2186 471.731 90.1853 471.627 90.1853 471.494V468.854C90.1853 468.407 90.1053 468.081 89.9453 467.874C89.792 467.661 89.5353 467.554 89.1753 467.554C88.7753 467.554 88.4586 467.694 88.2253 467.974C87.9986 468.247 87.8853 468.621 87.8853 469.094V471.494C87.8853 471.774 87.7486 471.914 87.4753 471.914Z" fill="#030229"/>
<path opacity="0.7" d="M111.55 471.844C111.43 471.844 111.336 471.814 111.27 471.754C111.203 471.687 111.17 471.597 111.17 471.484C111.17 471.371 111.203 471.287 111.27 471.234C111.336 471.174 111.43 471.144 111.55 471.144H112.85V465.474H113.28L111.83 466.434C111.743 466.481 111.66 466.501 111.58 466.494C111.506 466.487 111.443 466.461 111.39 466.414C111.343 466.361 111.31 466.301 111.29 466.234C111.27 466.161 111.273 466.087 111.3 466.014C111.326 465.934 111.383 465.867 111.47 465.814L112.85 464.904C112.936 464.851 113.02 464.807 113.1 464.774C113.18 464.741 113.26 464.724 113.34 464.724C113.433 464.724 113.51 464.754 113.57 464.814C113.636 464.867 113.67 464.954 113.67 465.074V471.144H114.87C114.99 471.144 115.083 471.174 115.15 471.234C115.216 471.287 115.25 471.371 115.25 471.484C115.25 471.604 115.216 471.694 115.15 471.754C115.083 471.814 114.99 471.844 114.87 471.844H111.55ZM117.286 471.844C117.139 471.844 117.029 471.811 116.956 471.744C116.889 471.671 116.856 471.574 116.856 471.454C116.856 471.381 116.873 471.311 116.906 471.244C116.946 471.171 116.999 471.097 117.066 471.024L119.306 468.624C119.646 468.257 119.889 467.921 120.036 467.614C120.189 467.301 120.266 466.984 120.266 466.664C120.266 466.264 120.143 465.961 119.896 465.754C119.656 465.541 119.303 465.434 118.836 465.434C118.536 465.434 118.253 465.481 117.986 465.574C117.719 465.667 117.463 465.811 117.216 466.004C117.129 466.071 117.049 466.101 116.976 466.094C116.909 466.087 116.849 466.061 116.796 466.014C116.743 465.967 116.706 465.907 116.686 465.834C116.666 465.761 116.666 465.687 116.686 465.614C116.713 465.541 116.766 465.474 116.846 465.414C117.106 465.201 117.419 465.031 117.786 464.904C118.153 464.771 118.526 464.704 118.906 464.704C119.379 464.704 119.779 464.777 120.106 464.924C120.433 465.071 120.679 465.287 120.846 465.574C121.013 465.854 121.096 466.197 121.096 466.604C121.096 466.884 121.049 467.161 120.956 467.434C120.869 467.701 120.733 467.974 120.546 468.254C120.366 468.534 120.129 468.824 119.836 469.124L117.706 471.374V471.144H121.076C121.203 471.144 121.296 471.174 121.356 471.234C121.423 471.287 121.456 471.371 121.456 471.484C121.456 471.604 121.423 471.694 121.356 471.754C121.296 471.814 121.203 471.844 121.076 471.844H117.286ZM124.282 471.934C123.949 471.934 123.649 471.871 123.382 471.744C123.122 471.611 122.915 471.431 122.762 471.204C122.609 470.977 122.532 470.724 122.532 470.444C122.532 470.084 122.622 469.801 122.802 469.594C122.989 469.387 123.292 469.241 123.712 469.154C124.139 469.067 124.719 469.024 125.452 469.024H125.902V469.554H125.462C124.922 469.554 124.495 469.581 124.182 469.634C123.875 469.681 123.659 469.764 123.532 469.884C123.412 470.004 123.352 470.174 123.352 470.394C123.352 470.667 123.445 470.891 123.632 471.064C123.825 471.237 124.085 471.324 124.412 471.324C124.679 471.324 124.912 471.261 125.112 471.134C125.319 471.007 125.479 470.834 125.592 470.614C125.712 470.394 125.772 470.141 125.772 469.854V468.714C125.772 468.301 125.689 468.004 125.522 467.824C125.355 467.637 125.082 467.544 124.702 467.544C124.469 467.544 124.235 467.574 124.002 467.634C123.769 467.694 123.522 467.791 123.262 467.924C123.169 467.971 123.089 467.987 123.022 467.974C122.955 467.954 122.902 467.917 122.862 467.864C122.822 467.811 122.799 467.751 122.792 467.684C122.785 467.611 122.799 467.541 122.832 467.474C122.872 467.407 122.932 467.354 123.012 467.314C123.305 467.167 123.595 467.061 123.882 466.994C124.169 466.927 124.442 466.894 124.702 466.894C125.122 466.894 125.469 466.964 125.742 467.104C126.015 467.237 126.219 467.444 126.352 467.724C126.485 467.997 126.552 468.351 126.552 468.784V471.494C126.552 471.627 126.519 471.731 126.452 471.804C126.392 471.877 126.302 471.914 126.182 471.914C126.055 471.914 125.959 471.877 125.892 471.804C125.825 471.731 125.792 471.627 125.792 471.494V470.714H125.882C125.829 470.967 125.725 471.184 125.572 471.364C125.425 471.544 125.242 471.684 125.022 471.784C124.802 471.884 124.555 471.934 124.282 471.934ZM128.475 471.914C128.341 471.914 128.241 471.877 128.175 471.804C128.108 471.731 128.075 471.627 128.075 471.494V467.324C128.075 467.191 128.108 467.091 128.175 467.024C128.241 466.951 128.338 466.914 128.465 466.914C128.591 466.914 128.688 466.951 128.755 467.024C128.828 467.091 128.865 467.191 128.865 467.324V468.204L128.755 468.064C128.881 467.691 129.085 467.404 129.365 467.204C129.651 466.997 129.991 466.894 130.385 466.894C130.798 466.894 131.131 466.994 131.385 467.194C131.645 467.387 131.818 467.691 131.905 468.104H131.755C131.875 467.731 132.088 467.437 132.395 467.224C132.708 467.004 133.071 466.894 133.485 466.894C133.851 466.894 134.151 466.964 134.385 467.104C134.625 467.244 134.805 467.457 134.925 467.744C135.045 468.024 135.105 468.381 135.105 468.814V471.494C135.105 471.627 135.068 471.731 134.995 471.804C134.928 471.877 134.828 471.914 134.695 471.914C134.568 471.914 134.468 471.877 134.395 471.804C134.328 471.731 134.295 471.627 134.295 471.494V468.854C134.295 468.407 134.218 468.081 134.065 467.874C133.911 467.661 133.651 467.554 133.285 467.554C132.885 467.554 132.568 467.694 132.335 467.974C132.108 468.247 131.995 468.621 131.995 469.094V471.494C131.995 471.627 131.958 471.731 131.885 471.804C131.818 471.877 131.718 471.914 131.585 471.914C131.458 471.914 131.358 471.877 131.285 471.804C131.218 471.731 131.185 471.627 131.185 471.494V468.854C131.185 468.407 131.105 468.081 130.945 467.874C130.791 467.661 130.535 467.554 130.175 467.554C129.775 467.554 129.458 467.694 129.225 467.974C128.998 468.247 128.885 468.621 128.885 469.094V471.494C128.885 471.774 128.748 471.914 128.475 471.914Z" fill="#030229"/>
<path opacity="0.7" d="M154 471.934C153.193 471.934 152.58 471.624 152.16 471.004C151.74 470.384 151.53 469.487 151.53 468.314C151.53 467.527 151.623 466.867 151.81 466.334C151.996 465.794 152.273 465.387 152.64 465.114C153.013 464.841 153.466 464.704 154 464.704C154.813 464.704 155.426 465.011 155.84 465.624C156.26 466.231 156.47 467.124 156.47 468.304C156.47 469.091 156.376 469.754 156.19 470.294C156.003 470.834 155.726 471.244 155.36 471.524C154.993 471.797 154.54 471.934 154 471.934ZM154 471.224C154.56 471.224 154.973 470.987 155.24 470.514C155.513 470.034 155.65 469.297 155.65 468.304C155.65 467.304 155.513 466.574 155.24 466.114C154.973 465.647 154.56 465.414 154 465.414C153.446 465.414 153.033 465.647 152.76 466.114C152.486 466.581 152.35 467.311 152.35 468.304C152.35 469.297 152.486 470.034 152.76 470.514C153.033 470.987 153.446 471.224 154 471.224ZM158.546 471.844C158.426 471.844 158.333 471.814 158.266 471.754C158.199 471.687 158.166 471.597 158.166 471.484C158.166 471.371 158.199 471.287 158.266 471.234C158.333 471.174 158.426 471.144 158.546 471.144H159.846V465.474H160.276L158.826 466.434C158.739 466.481 158.656 466.501 158.576 466.494C158.503 466.487 158.439 466.461 158.386 466.414C158.339 466.361 158.306 466.301 158.286 466.234C158.266 466.161 158.269 466.087 158.296 466.014C158.323 465.934 158.379 465.867 158.466 465.814L159.846 464.904C159.933 464.851 160.016 464.807 160.096 464.774C160.176 464.741 160.256 464.724 160.336 464.724C160.429 464.724 160.506 464.754 160.566 464.814C160.633 464.867 160.666 464.954 160.666 465.074V471.144H161.866C161.986 471.144 162.079 471.174 162.146 471.234C162.213 471.287 162.246 471.371 162.246 471.484C162.246 471.604 162.213 471.694 162.146 471.754C162.079 471.814 161.986 471.844 161.866 471.844H158.546ZM165.282 471.934C164.949 471.934 164.649 471.871 164.382 471.744C164.122 471.611 163.915 471.431 163.762 471.204C163.609 470.977 163.532 470.724 163.532 470.444C163.532 470.084 163.622 469.801 163.802 469.594C163.989 469.387 164.292 469.241 164.712 469.154C165.139 469.067 165.719 469.024 166.452 469.024H166.902V469.554H166.462C165.922 469.554 165.495 469.581 165.182 469.634C164.875 469.681 164.659 469.764 164.532 469.884C164.412 470.004 164.352 470.174 164.352 470.394C164.352 470.667 164.445 470.891 164.632 471.064C164.825 471.237 165.085 471.324 165.412 471.324C165.679 471.324 165.912 471.261 166.112 471.134C166.319 471.007 166.479 470.834 166.592 470.614C166.712 470.394 166.772 470.141 166.772 469.854V468.714C166.772 468.301 166.689 468.004 166.522 467.824C166.355 467.637 166.082 467.544 165.702 467.544C165.469 467.544 165.235 467.574 165.002 467.634C164.769 467.694 164.522 467.791 164.262 467.924C164.169 467.971 164.089 467.987 164.022 467.974C163.955 467.954 163.902 467.917 163.862 467.864C163.822 467.811 163.799 467.751 163.792 467.684C163.785 467.611 163.799 467.541 163.832 467.474C163.872 467.407 163.932 467.354 164.012 467.314C164.305 467.167 164.595 467.061 164.882 466.994C165.169 466.927 165.442 466.894 165.702 466.894C166.122 466.894 166.469 466.964 166.742 467.104C167.015 467.237 167.219 467.444 167.352 467.724C167.485 467.997 167.552 468.351 167.552 468.784V471.494C167.552 471.627 167.519 471.731 167.452 471.804C167.392 471.877 167.302 471.914 167.182 471.914C167.055 471.914 166.959 471.877 166.892 471.804C166.825 471.731 166.792 471.627 166.792 471.494V470.714H166.882C166.829 470.967 166.725 471.184 166.572 471.364C166.425 471.544 166.242 471.684 166.022 471.784C165.802 471.884 165.555 471.934 165.282 471.934ZM169.475 471.914C169.341 471.914 169.241 471.877 169.175 471.804C169.108 471.731 169.075 471.627 169.075 471.494V467.324C169.075 467.191 169.108 467.091 169.175 467.024C169.241 466.951 169.338 466.914 169.465 466.914C169.591 466.914 169.688 466.951 169.755 467.024C169.828 467.091 169.865 467.191 169.865 467.324V468.204L169.755 468.064C169.881 467.691 170.085 467.404 170.365 467.204C170.651 466.997 170.991 466.894 171.385 466.894C171.798 466.894 172.131 466.994 172.385 467.194C172.645 467.387 172.818 467.691 172.905 468.104H172.755C172.875 467.731 173.088 467.437 173.395 467.224C173.708 467.004 174.071 466.894 174.485 466.894C174.851 466.894 175.151 466.964 175.385 467.104C175.625 467.244 175.805 467.457 175.925 467.744C176.045 468.024 176.105 468.381 176.105 468.814V471.494C176.105 471.627 176.068 471.731 175.995 471.804C175.928 471.877 175.828 471.914 175.695 471.914C175.568 471.914 175.468 471.877 175.395 471.804C175.328 471.731 175.295 471.627 175.295 471.494V468.854C175.295 468.407 175.218 468.081 175.065 467.874C174.911 467.661 174.651 467.554 174.285 467.554C173.885 467.554 173.568 467.694 173.335 467.974C173.108 468.247 172.995 468.621 172.995 469.094V471.494C172.995 471.627 172.958 471.731 172.885 471.804C172.818 471.877 172.718 471.914 172.585 471.914C172.458 471.914 172.358 471.877 172.285 471.804C172.218 471.731 172.185 471.627 172.185 471.494V468.854C172.185 468.407 172.105 468.081 171.945 467.874C171.791 467.661 171.535 467.554 171.175 467.554C170.775 467.554 170.458 467.694 170.225 467.974C169.998 468.247 169.885 468.621 169.885 469.094V471.494C169.885 471.774 169.748 471.914 169.475 471.914Z" fill="#030229"/>
<path opacity="0.7" d="M194.999 471.934C194.192 471.934 193.579 471.624 193.159 471.004C192.739 470.384 192.529 469.487 192.529 468.314C192.529 467.527 192.622 466.867 192.809 466.334C192.996 465.794 193.272 465.387 193.639 465.114C194.012 464.841 194.466 464.704 194.999 464.704C195.812 464.704 196.426 465.011 196.839 465.624C197.259 466.231 197.469 467.124 197.469 468.304C197.469 469.091 197.376 469.754 197.189 470.294C197.002 470.834 196.726 471.244 196.359 471.524C195.992 471.797 195.539 471.934 194.999 471.934ZM194.999 471.224C195.559 471.224 195.972 470.987 196.239 470.514C196.512 470.034 196.649 469.297 196.649 468.304C196.649 467.304 196.512 466.574 196.239 466.114C195.972 465.647 195.559 465.414 194.999 465.414C194.446 465.414 194.032 465.647 193.759 466.114C193.486 466.581 193.349 467.311 193.349 468.304C193.349 469.297 193.486 470.034 193.759 470.514C194.032 470.987 194.446 471.224 194.999 471.224ZM199.285 471.844C199.138 471.844 199.028 471.811 198.955 471.744C198.888 471.671 198.855 471.574 198.855 471.454C198.855 471.381 198.872 471.311 198.905 471.244C198.945 471.171 198.998 471.097 199.065 471.024L201.305 468.624C201.645 468.257 201.888 467.921 202.035 467.614C202.188 467.301 202.265 466.984 202.265 466.664C202.265 466.264 202.142 465.961 201.895 465.754C201.655 465.541 201.302 465.434 200.835 465.434C200.535 465.434 200.252 465.481 199.985 465.574C199.718 465.667 199.462 465.811 199.215 466.004C199.128 466.071 199.048 466.101 198.975 466.094C198.908 466.087 198.848 466.061 198.795 466.014C198.742 465.967 198.705 465.907 198.685 465.834C198.665 465.761 198.665 465.687 198.685 465.614C198.712 465.541 198.765 465.474 198.845 465.414C199.105 465.201 199.418 465.031 199.785 464.904C200.152 464.771 200.525 464.704 200.905 464.704C201.378 464.704 201.778 464.777 202.105 464.924C202.432 465.071 202.678 465.287 202.845 465.574C203.012 465.854 203.095 466.197 203.095 466.604C203.095 466.884 203.048 467.161 202.955 467.434C202.868 467.701 202.732 467.974 202.545 468.254C202.365 468.534 202.128 468.824 201.835 469.124L199.705 471.374V471.144H203.075C203.202 471.144 203.295 471.174 203.355 471.234C203.422 471.287 203.455 471.371 203.455 471.484C203.455 471.604 203.422 471.694 203.355 471.754C203.295 471.814 203.202 471.844 203.075 471.844H199.285ZM206.281 471.934C205.948 471.934 205.648 471.871 205.381 471.744C205.121 471.611 204.914 471.431 204.761 471.204C204.608 470.977 204.531 470.724 204.531 470.444C204.531 470.084 204.621 469.801 204.801 469.594C204.988 469.387 205.291 469.241 205.711 469.154C206.138 469.067 206.718 469.024 207.451 469.024H207.901V469.554H207.461C206.921 469.554 206.494 469.581 206.181 469.634C205.874 469.681 205.658 469.764 205.531 469.884C205.411 470.004 205.351 470.174 205.351 470.394C205.351 470.667 205.444 470.891 205.631 471.064C205.824 471.237 206.084 471.324 206.411 471.324C206.678 471.324 206.911 471.261 207.111 471.134C207.318 471.007 207.478 470.834 207.591 470.614C207.711 470.394 207.771 470.141 207.771 469.854V468.714C207.771 468.301 207.688 468.004 207.521 467.824C207.354 467.637 207.081 467.544 206.701 467.544C206.468 467.544 206.234 467.574 206.001 467.634C205.768 467.694 205.521 467.791 205.261 467.924C205.168 467.971 205.088 467.987 205.021 467.974C204.954 467.954 204.901 467.917 204.861 467.864C204.821 467.811 204.798 467.751 204.791 467.684C204.784 467.611 204.798 467.541 204.831 467.474C204.871 467.407 204.931 467.354 205.011 467.314C205.304 467.167 205.594 467.061 205.881 466.994C206.168 466.927 206.441 466.894 206.701 466.894C207.121 466.894 207.468 466.964 207.741 467.104C208.014 467.237 208.218 467.444 208.351 467.724C208.484 467.997 208.551 468.351 208.551 468.784V471.494C208.551 471.627 208.518 471.731 208.451 471.804C208.391 471.877 208.301 471.914 208.181 471.914C208.054 471.914 207.958 471.877 207.891 471.804C207.824 471.731 207.791 471.627 207.791 471.494V470.714H207.881C207.828 470.967 207.724 471.184 207.571 471.364C207.424 471.544 207.241 471.684 207.021 471.784C206.801 471.884 206.554 471.934 206.281 471.934ZM210.474 471.914C210.341 471.914 210.241 471.877 210.174 471.804C210.107 471.731 210.074 471.627 210.074 471.494V467.324C210.074 467.191 210.107 467.091 210.174 467.024C210.241 466.951 210.337 466.914 210.464 466.914C210.591 466.914 210.687 466.951 210.754 467.024C210.827 467.091 210.864 467.191 210.864 467.324V468.204L210.754 468.064C210.881 467.691 211.084 467.404 211.364 467.204C211.651 466.997 211.991 466.894 212.384 466.894C212.797 466.894 213.131 466.994 213.384 467.194C213.644 467.387 213.817 467.691 213.904 468.104H213.754C213.874 467.731 214.087 467.437 214.394 467.224C214.707 467.004 215.071 466.894 215.484 466.894C215.851 466.894 216.151 466.964 216.384 467.104C216.624 467.244 216.804 467.457 216.924 467.744C217.044 468.024 217.104 468.381 217.104 468.814V471.494C217.104 471.627 217.067 471.731 216.994 471.804C216.927 471.877 216.827 471.914 216.694 471.914C216.567 471.914 216.467 471.877 216.394 471.804C216.327 471.731 216.294 471.627 216.294 471.494V468.854C216.294 468.407 216.217 468.081 216.064 467.874C215.911 467.661 215.651 467.554 215.284 467.554C214.884 467.554 214.567 467.694 214.334 467.974C214.107 468.247 213.994 468.621 213.994 469.094V471.494C213.994 471.627 213.957 471.731 213.884 471.804C213.817 471.877 213.717 471.914 213.584 471.914C213.457 471.914 213.357 471.877 213.284 471.804C213.217 471.731 213.184 471.627 213.184 471.494V468.854C213.184 468.407 213.104 468.081 212.944 467.874C212.791 467.661 212.534 467.554 212.174 467.554C211.774 467.554 211.457 467.694 211.224 467.974C210.997 468.247 210.884 468.621 210.884 469.094V471.494C210.884 471.774 210.747 471.914 210.474 471.914Z" fill="#030229"/>
<path opacity="0.7" d="M235.999 471.934C235.192 471.934 234.579 471.624 234.159 471.004C233.739 470.384 233.529 469.487 233.529 468.314C233.529 467.527 233.622 466.867 233.809 466.334C233.995 465.794 234.272 465.387 234.639 465.114C235.012 464.841 235.465 464.704 235.999 464.704C236.812 464.704 237.425 465.011 237.839 465.624C238.259 466.231 238.469 467.124 238.469 468.304C238.469 469.091 238.375 469.754 238.189 470.294C238.002 470.834 237.725 471.244 237.359 471.524C236.992 471.797 236.539 471.934 235.999 471.934ZM235.999 471.224C236.559 471.224 236.972 470.987 237.239 470.514C237.512 470.034 237.649 469.297 237.649 468.304C237.649 467.304 237.512 466.574 237.239 466.114C236.972 465.647 236.559 465.414 235.999 465.414C235.445 465.414 235.032 465.647 234.759 466.114C234.485 466.581 234.349 467.311 234.349 468.304C234.349 469.297 234.485 470.034 234.759 470.514C235.032 470.987 235.445 471.224 235.999 471.224ZM241.915 471.934C241.528 471.934 241.138 471.877 240.745 471.764C240.358 471.651 240.022 471.484 239.735 471.264C239.648 471.204 239.592 471.137 239.565 471.064C239.538 470.984 239.532 470.911 239.545 470.844C239.565 470.771 239.602 470.711 239.655 470.664C239.708 470.611 239.772 470.581 239.845 470.574C239.925 470.567 240.012 470.594 240.105 470.654C240.398 470.847 240.692 470.987 240.985 471.074C241.278 471.161 241.582 471.204 241.895 471.204C242.235 471.204 242.522 471.154 242.755 471.054C242.988 470.954 243.165 470.807 243.285 470.614C243.405 470.414 243.465 470.171 243.465 469.884C243.465 469.471 243.328 469.157 243.055 468.944C242.782 468.731 242.385 468.624 241.865 468.624H241.155C241.028 468.624 240.932 468.594 240.865 468.534C240.798 468.467 240.765 468.377 240.765 468.264C240.765 468.157 240.798 468.074 240.865 468.014C240.932 467.947 241.028 467.914 241.155 467.914H241.795C242.102 467.914 242.362 467.861 242.575 467.754C242.795 467.647 242.965 467.497 243.085 467.304C243.205 467.104 243.265 466.864 243.265 466.584C243.265 466.211 243.145 465.927 242.905 465.734C242.665 465.534 242.318 465.434 241.865 465.434C241.565 465.434 241.282 465.477 241.015 465.564C240.748 465.651 240.485 465.797 240.225 466.004C240.145 466.064 240.065 466.094 239.985 466.094C239.912 466.087 239.848 466.064 239.795 466.024C239.748 465.977 239.712 465.917 239.685 465.844C239.665 465.771 239.668 465.697 239.695 465.624C239.722 465.544 239.778 465.471 239.865 465.404C240.132 465.177 240.445 465.004 240.805 464.884C241.165 464.764 241.535 464.704 241.915 464.704C242.368 464.704 242.755 464.777 243.075 464.924C243.402 465.064 243.652 465.271 243.825 465.544C243.998 465.811 244.085 466.134 244.085 466.514C244.085 466.801 244.028 467.064 243.915 467.304C243.808 467.537 243.655 467.737 243.455 467.904C243.262 468.071 243.025 468.191 242.745 468.264V468.154C243.232 468.234 243.608 468.434 243.875 468.754C244.148 469.067 244.285 469.464 244.285 469.944C244.285 470.351 244.188 470.704 243.995 471.004C243.808 471.297 243.538 471.527 243.185 471.694C242.832 471.854 242.408 471.934 241.915 471.934ZM247.281 471.934C246.948 471.934 246.648 471.871 246.381 471.744C246.121 471.611 245.914 471.431 245.761 471.204C245.608 470.977 245.531 470.724 245.531 470.444C245.531 470.084 245.621 469.801 245.801 469.594C245.988 469.387 246.291 469.241 246.711 469.154C247.138 469.067 247.718 469.024 248.451 469.024H248.901V469.554H248.461C247.921 469.554 247.494 469.581 247.181 469.634C246.874 469.681 246.658 469.764 246.531 469.884C246.411 470.004 246.351 470.174 246.351 470.394C246.351 470.667 246.444 470.891 246.631 471.064C246.824 471.237 247.084 471.324 247.411 471.324C247.678 471.324 247.911 471.261 248.111 471.134C248.318 471.007 248.478 470.834 248.591 470.614C248.711 470.394 248.771 470.141 248.771 469.854V468.714C248.771 468.301 248.688 468.004 248.521 467.824C248.354 467.637 248.081 467.544 247.701 467.544C247.468 467.544 247.234 467.574 247.001 467.634C246.768 467.694 246.521 467.791 246.261 467.924C246.168 467.971 246.088 467.987 246.021 467.974C245.954 467.954 245.901 467.917 245.861 467.864C245.821 467.811 245.798 467.751 245.791 467.684C245.784 467.611 245.798 467.541 245.831 467.474C245.871 467.407 245.931 467.354 246.011 467.314C246.304 467.167 246.594 467.061 246.881 466.994C247.168 466.927 247.441 466.894 247.701 466.894C248.121 466.894 248.468 466.964 248.741 467.104C249.014 467.237 249.218 467.444 249.351 467.724C249.484 467.997 249.551 468.351 249.551 468.784V471.494C249.551 471.627 249.518 471.731 249.451 471.804C249.391 471.877 249.301 471.914 249.181 471.914C249.054 471.914 248.958 471.877 248.891 471.804C248.824 471.731 248.791 471.627 248.791 471.494V470.714H248.881C248.828 470.967 248.724 471.184 248.571 471.364C248.424 471.544 248.241 471.684 248.021 471.784C247.801 471.884 247.554 471.934 247.281 471.934ZM251.474 471.914C251.34 471.914 251.24 471.877 251.174 471.804C251.107 471.731 251.074 471.627 251.074 471.494V467.324C251.074 467.191 251.107 467.091 251.174 467.024C251.24 466.951 251.337 466.914 251.464 466.914C251.59 466.914 251.687 466.951 251.754 467.024C251.827 467.091 251.864 467.191 251.864 467.324V468.204L251.754 468.064C251.88 467.691 252.084 467.404 252.364 467.204C252.65 466.997 252.99 466.894 253.384 466.894C253.797 466.894 254.13 466.994 254.384 467.194C254.644 467.387 254.817 467.691 254.904 468.104H254.754C254.874 467.731 255.087 467.437 255.394 467.224C255.707 467.004 256.07 466.894 256.484 466.894C256.85 466.894 257.15 466.964 257.384 467.104C257.624 467.244 257.804 467.457 257.924 467.744C258.044 468.024 258.104 468.381 258.104 468.814V471.494C258.104 471.627 258.067 471.731 257.994 471.804C257.927 471.877 257.827 471.914 257.694 471.914C257.567 471.914 257.467 471.877 257.394 471.804C257.327 471.731 257.294 471.627 257.294 471.494V468.854C257.294 468.407 257.217 468.081 257.064 467.874C256.91 467.661 256.65 467.554 256.284 467.554C255.884 467.554 255.567 467.694 255.334 467.974C255.107 468.247 254.994 468.621 254.994 469.094V471.494C254.994 471.627 254.957 471.731 254.884 471.804C254.817 471.877 254.717 471.914 254.584 471.914C254.457 471.914 254.357 471.877 254.284 471.804C254.217 471.731 254.184 471.627 254.184 471.494V468.854C254.184 468.407 254.104 468.081 253.944 467.874C253.79 467.661 253.534 467.554 253.174 467.554C252.774 467.554 252.457 467.694 252.224 467.974C251.997 468.247 251.884 468.621 251.884 469.094V471.494C251.884 471.774 251.747 471.914 251.474 471.914Z" fill="#030229"/>
<path opacity="0.7" d="M277.001 471.934C276.194 471.934 275.581 471.624 275.161 471.004C274.741 470.384 274.531 469.487 274.531 468.314C274.531 467.527 274.624 466.867 274.811 466.334C274.997 465.794 275.274 465.387 275.641 465.114C276.014 464.841 276.467 464.704 277.001 464.704C277.814 464.704 278.427 465.011 278.841 465.624C279.261 466.231 279.471 467.124 279.471 468.304C279.471 469.091 279.377 469.754 279.191 470.294C279.004 470.834 278.727 471.244 278.361 471.524C277.994 471.797 277.541 471.934 277.001 471.934ZM277.001 471.224C277.561 471.224 277.974 470.987 278.241 470.514C278.514 470.034 278.651 469.297 278.651 468.304C278.651 467.304 278.514 466.574 278.241 466.114C277.974 465.647 277.561 465.414 277.001 465.414C276.447 465.414 276.034 465.647 275.761 466.114C275.487 466.581 275.351 467.311 275.351 468.304C275.351 469.297 275.487 470.034 275.761 470.514C276.034 470.987 276.447 471.224 277.001 471.224ZM284.177 471.914C284.05 471.914 283.95 471.877 283.877 471.804C283.803 471.731 283.767 471.627 283.767 471.494V470.334H280.897C280.763 470.334 280.657 470.304 280.577 470.244C280.503 470.177 280.467 470.084 280.467 469.964C280.467 469.891 280.483 469.817 280.517 469.744C280.55 469.664 280.61 469.564 280.697 469.444L283.747 465.004C283.807 464.911 283.873 464.841 283.947 464.794C284.02 464.747 284.107 464.724 284.207 464.724C284.313 464.724 284.403 464.757 284.477 464.824C284.557 464.891 284.597 464.997 284.597 465.144V469.634H285.327C285.453 469.634 285.55 469.664 285.617 469.724C285.683 469.784 285.717 469.871 285.717 469.984C285.717 470.097 285.683 470.184 285.617 470.244C285.55 470.304 285.453 470.334 285.327 470.334H284.597V471.494C284.597 471.627 284.56 471.731 284.487 471.804C284.413 471.877 284.31 471.914 284.177 471.914ZM283.767 469.634V465.754H284.007L281.207 469.854V469.634H283.767ZM288.283 471.934C287.949 471.934 287.649 471.871 287.383 471.744C287.123 471.611 286.916 471.431 286.763 471.204C286.609 470.977 286.533 470.724 286.533 470.444C286.533 470.084 286.623 469.801 286.803 469.594C286.989 469.387 287.293 469.241 287.713 469.154C288.139 469.067 288.719 469.024 289.453 469.024H289.903V469.554H289.463C288.923 469.554 288.496 469.581 288.183 469.634C287.876 469.681 287.659 469.764 287.533 469.884C287.413 470.004 287.353 470.174 287.353 470.394C287.353 470.667 287.446 470.891 287.633 471.064C287.826 471.237 288.086 471.324 288.413 471.324C288.679 471.324 288.913 471.261 289.113 471.134C289.319 471.007 289.479 470.834 289.593 470.614C289.713 470.394 289.773 470.141 289.773 469.854V468.714C289.773 468.301 289.689 468.004 289.523 467.824C289.356 467.637 289.083 467.544 288.703 467.544C288.469 467.544 288.236 467.574 288.003 467.634C287.769 467.694 287.523 467.791 287.263 467.924C287.169 467.971 287.089 467.987 287.023 467.974C286.956 467.954 286.903 467.917 286.863 467.864C286.823 467.811 286.799 467.751 286.793 467.684C286.786 467.611 286.799 467.541 286.833 467.474C286.873 467.407 286.933 467.354 287.013 467.314C287.306 467.167 287.596 467.061 287.883 466.994C288.169 466.927 288.443 466.894 288.703 466.894C289.123 466.894 289.469 466.964 289.743 467.104C290.016 467.237 290.219 467.444 290.353 467.724C290.486 467.997 290.553 468.351 290.553 468.784V471.494C290.553 471.627 290.519 471.731 290.453 471.804C290.393 471.877 290.303 471.914 290.183 471.914C290.056 471.914 289.959 471.877 289.893 471.804C289.826 471.731 289.793 471.627 289.793 471.494V470.714H289.883C289.829 470.967 289.726 471.184 289.573 471.364C289.426 471.544 289.243 471.684 289.023 471.784C288.803 471.884 288.556 471.934 288.283 471.934ZM292.475 471.914C292.342 471.914 292.242 471.877 292.175 471.804C292.109 471.731 292.075 471.627 292.075 471.494V467.324C292.075 467.191 292.109 467.091 292.175 467.024C292.242 466.951 292.339 466.914 292.465 466.914C292.592 466.914 292.689 466.951 292.755 467.024C292.829 467.091 292.865 467.191 292.865 467.324V468.204L292.755 468.064C292.882 467.691 293.085 467.404 293.365 467.204C293.652 466.997 293.992 466.894 294.385 466.894C294.799 466.894 295.132 466.994 295.385 467.194C295.645 467.387 295.819 467.691 295.905 468.104H295.755C295.875 467.731 296.089 467.437 296.395 467.224C296.709 467.004 297.072 466.894 297.485 466.894C297.852 466.894 298.152 466.964 298.385 467.104C298.625 467.244 298.805 467.457 298.925 467.744C299.045 468.024 299.105 468.381 299.105 468.814V471.494C299.105 471.627 299.069 471.731 298.995 471.804C298.929 471.877 298.829 471.914 298.695 471.914C298.569 471.914 298.469 471.877 298.395 471.804C298.329 471.731 298.295 471.627 298.295 471.494V468.854C298.295 468.407 298.219 468.081 298.065 467.874C297.912 467.661 297.652 467.554 297.285 467.554C296.885 467.554 296.569 467.694 296.335 467.974C296.109 468.247 295.995 468.621 295.995 469.094V471.494C295.995 471.627 295.959 471.731 295.885 471.804C295.819 471.877 295.719 471.914 295.585 471.914C295.459 471.914 295.359 471.877 295.285 471.804C295.219 471.731 295.185 471.627 295.185 471.494V468.854C295.185 468.407 295.105 468.081 294.945 467.874C294.792 467.661 294.535 467.554 294.175 467.554C293.775 467.554 293.459 467.694 293.225 467.974C292.999 468.247 292.885 468.621 292.885 469.094V471.494C292.885 471.774 292.749 471.914 292.475 471.914Z" fill="#030229"/>
<path opacity="0.7" d="M318 471.934C317.194 471.934 316.58 471.624 316.16 471.004C315.74 470.384 315.53 469.487 315.53 468.314C315.53 467.527 315.624 466.867 315.81 466.334C315.997 465.794 316.274 465.387 316.64 465.114C317.014 464.841 317.467 464.704 318 464.704C318.814 464.704 319.427 465.011 319.84 465.624C320.26 466.231 320.47 467.124 320.47 468.304C320.47 469.091 320.377 469.754 320.19 470.294C320.004 470.834 319.727 471.244 319.36 471.524C318.994 471.797 318.54 471.934 318 471.934ZM318 471.224C318.56 471.224 318.974 470.987 319.24 470.514C319.514 470.034 319.65 469.297 319.65 468.304C319.65 467.304 319.514 466.574 319.24 466.114C318.974 465.647 318.56 465.414 318 465.414C317.447 465.414 317.034 465.647 316.76 466.114C316.487 466.581 316.35 467.311 316.35 468.304C316.35 469.297 316.487 470.034 316.76 470.514C317.034 470.987 317.447 471.224 318 471.224ZM324.146 471.934C323.766 471.934 323.386 471.877 323.006 471.764C322.633 471.651 322.293 471.474 321.986 471.234C321.906 471.181 321.853 471.117 321.826 471.044C321.8 470.971 321.796 470.897 321.816 470.824C321.836 470.751 321.873 470.691 321.926 470.644C321.98 470.591 322.043 470.561 322.116 470.554C322.196 470.547 322.28 470.574 322.366 470.634C322.64 470.827 322.923 470.971 323.216 471.064C323.51 471.157 323.816 471.204 324.136 471.204C324.463 471.204 324.743 471.144 324.976 471.024C325.216 470.897 325.396 470.724 325.516 470.504C325.643 470.277 325.706 470.014 325.706 469.714C325.706 469.254 325.573 468.877 325.306 468.584C325.04 468.291 324.673 468.144 324.206 468.144C323.92 468.144 323.656 468.197 323.416 468.304C323.176 468.411 322.956 468.581 322.756 468.814C322.71 468.867 322.653 468.914 322.586 468.954C322.526 468.987 322.456 469.004 322.376 469.004C322.263 469.004 322.173 468.974 322.106 468.914C322.046 468.847 322.016 468.761 322.016 468.654V465.174C322.016 465.047 322.05 464.954 322.116 464.894C322.183 464.827 322.276 464.794 322.396 464.794H325.796C325.923 464.794 326.016 464.824 326.076 464.884C326.143 464.944 326.176 465.031 326.176 465.144C326.176 465.257 326.143 465.344 326.076 465.404C326.016 465.464 325.923 465.494 325.796 465.494H322.826V468.304H322.606C322.78 468.024 323.02 467.811 323.326 467.664C323.633 467.511 323.976 467.434 324.356 467.434C324.803 467.434 325.186 467.527 325.506 467.714C325.833 467.901 326.083 468.164 326.256 468.504C326.436 468.837 326.526 469.227 326.526 469.674C326.526 470.114 326.43 470.504 326.236 470.844C326.043 471.184 325.77 471.451 325.416 471.644C325.063 471.837 324.64 471.934 324.146 471.934ZM329.283 471.934C328.949 471.934 328.649 471.871 328.383 471.744C328.123 471.611 327.916 471.431 327.763 471.204C327.609 470.977 327.533 470.724 327.533 470.444C327.533 470.084 327.623 469.801 327.803 469.594C327.989 469.387 328.293 469.241 328.713 469.154C329.139 469.067 329.719 469.024 330.453 469.024H330.903V469.554H330.463C329.923 469.554 329.496 469.581 329.183 469.634C328.876 469.681 328.659 469.764 328.533 469.884C328.413 470.004 328.353 470.174 328.353 470.394C328.353 470.667 328.446 470.891 328.633 471.064C328.826 471.237 329.086 471.324 329.413 471.324C329.679 471.324 329.913 471.261 330.113 471.134C330.319 471.007 330.479 470.834 330.593 470.614C330.713 470.394 330.773 470.141 330.773 469.854V468.714C330.773 468.301 330.689 468.004 330.523 467.824C330.356 467.637 330.083 467.544 329.703 467.544C329.469 467.544 329.236 467.574 329.003 467.634C328.769 467.694 328.523 467.791 328.263 467.924C328.169 467.971 328.089 467.987 328.023 467.974C327.956 467.954 327.903 467.917 327.863 467.864C327.823 467.811 327.799 467.751 327.793 467.684C327.786 467.611 327.799 467.541 327.833 467.474C327.873 467.407 327.933 467.354 328.013 467.314C328.306 467.167 328.596 467.061 328.883 466.994C329.169 466.927 329.443 466.894 329.703 466.894C330.123 466.894 330.469 466.964 330.743 467.104C331.016 467.237 331.219 467.444 331.353 467.724C331.486 467.997 331.553 468.351 331.553 468.784V471.494C331.553 471.627 331.519 471.731 331.453 471.804C331.393 471.877 331.303 471.914 331.183 471.914C331.056 471.914 330.959 471.877 330.893 471.804C330.826 471.731 330.793 471.627 330.793 471.494V470.714H330.883C330.829 470.967 330.726 471.184 330.573 471.364C330.426 471.544 330.243 471.684 330.023 471.784C329.803 471.884 329.556 471.934 329.283 471.934ZM333.475 471.914C333.342 471.914 333.242 471.877 333.175 471.804C333.109 471.731 333.075 471.627 333.075 471.494V467.324C333.075 467.191 333.109 467.091 333.175 467.024C333.242 466.951 333.339 466.914 333.465 466.914C333.592 466.914 333.689 466.951 333.755 467.024C333.829 467.091 333.865 467.191 333.865 467.324V468.204L333.755 468.064C333.882 467.691 334.085 467.404 334.365 467.204C334.652 466.997 334.992 466.894 335.385 466.894C335.799 466.894 336.132 466.994 336.385 467.194C336.645 467.387 336.819 467.691 336.905 468.104H336.755C336.875 467.731 337.089 467.437 337.395 467.224C337.709 467.004 338.072 466.894 338.485 466.894C338.852 466.894 339.152 466.964 339.385 467.104C339.625 467.244 339.805 467.457 339.925 467.744C340.045 468.024 340.105 468.381 340.105 468.814V471.494C340.105 471.627 340.069 471.731 339.995 471.804C339.929 471.877 339.829 471.914 339.695 471.914C339.569 471.914 339.469 471.877 339.395 471.804C339.329 471.731 339.295 471.627 339.295 471.494V468.854C339.295 468.407 339.219 468.081 339.065 467.874C338.912 467.661 338.652 467.554 338.285 467.554C337.885 467.554 337.569 467.694 337.335 467.974C337.109 468.247 336.995 468.621 336.995 469.094V471.494C336.995 471.627 336.959 471.731 336.885 471.804C336.819 471.877 336.719 471.914 336.585 471.914C336.459 471.914 336.359 471.877 336.285 471.804C336.219 471.731 336.185 471.627 336.185 471.494V468.854C336.185 468.407 336.105 468.081 335.945 467.874C335.792 467.661 335.535 467.554 335.175 467.554C334.775 467.554 334.459 467.694 334.225 467.974C333.999 468.247 333.885 468.621 333.885 469.094V471.494C333.885 471.774 333.749 471.914 333.475 471.914Z" fill="#030229"/>
<path opacity="0.7" d="M358.999 471.934C358.193 471.934 357.579 471.624 357.159 471.004C356.739 470.384 356.529 469.487 356.529 468.314C356.529 467.527 356.623 466.867 356.809 466.334C356.996 465.794 357.273 465.387 357.639 465.114C358.013 464.841 358.466 464.704 358.999 464.704C359.813 464.704 360.426 465.011 360.839 465.624C361.259 466.231 361.469 467.124 361.469 468.304C361.469 469.091 361.376 469.754 361.189 470.294C361.003 470.834 360.726 471.244 360.359 471.524C359.993 471.797 359.539 471.934 358.999 471.934ZM358.999 471.224C359.559 471.224 359.973 470.987 360.239 470.514C360.513 470.034 360.649 469.297 360.649 468.304C360.649 467.304 360.513 466.574 360.239 466.114C359.973 465.647 359.559 465.414 358.999 465.414C358.446 465.414 358.033 465.647 357.759 466.114C357.486 466.581 357.349 467.311 357.349 468.304C357.349 469.297 357.486 470.034 357.759 470.514C358.033 470.987 358.446 471.224 358.999 471.224ZM365.235 471.934C364.682 471.934 364.209 471.801 363.815 471.534C363.429 471.261 363.135 470.867 362.935 470.354C362.735 469.841 362.635 469.221 362.635 468.494C362.635 467.881 362.699 467.341 362.825 466.874C362.952 466.407 363.139 466.014 363.385 465.694C363.632 465.367 363.932 465.121 364.285 464.954C364.639 464.787 365.039 464.704 365.485 464.704C365.792 464.704 366.105 464.764 366.425 464.884C366.752 465.004 367.039 465.174 367.285 465.394C367.359 465.447 367.402 465.514 367.415 465.594C367.435 465.667 367.435 465.741 367.415 465.814C367.395 465.881 367.359 465.937 367.305 465.984C367.259 466.031 367.199 466.057 367.125 466.064C367.052 466.064 366.975 466.034 366.895 465.974C366.669 465.781 366.435 465.644 366.195 465.564C365.955 465.477 365.712 465.434 365.465 465.434C365.032 465.434 364.662 465.541 364.355 465.754C364.055 465.967 363.825 466.291 363.665 466.724C363.512 467.151 363.435 467.687 363.435 468.334V469.264H363.345C363.385 468.884 363.495 468.557 363.675 468.284C363.862 468.004 364.099 467.791 364.385 467.644C364.672 467.497 364.995 467.424 365.355 467.424C365.769 467.424 366.135 467.517 366.455 467.704C366.775 467.891 367.025 468.154 367.205 468.494C367.385 468.827 367.475 469.211 367.475 469.644C367.475 470.084 367.382 470.477 367.195 470.824C367.009 471.171 366.745 471.444 366.405 471.644C366.065 471.837 365.675 471.934 365.235 471.934ZM365.185 471.234C365.479 471.234 365.739 471.171 365.965 471.044C366.192 470.911 366.369 470.727 366.495 470.494C366.622 470.254 366.685 469.981 366.685 469.674C366.685 469.367 366.622 469.097 366.495 468.864C366.369 468.631 366.192 468.447 365.965 468.314C365.739 468.181 365.479 468.114 365.185 468.114C364.892 468.114 364.632 468.181 364.405 468.314C364.179 468.447 364.002 468.631 363.875 468.864C363.749 469.097 363.685 469.367 363.685 469.674C363.685 469.981 363.749 470.254 363.875 470.494C364.002 470.727 364.179 470.911 364.405 471.044C364.632 471.171 364.892 471.234 365.185 471.234ZM370.281 471.934C369.948 471.934 369.648 471.871 369.381 471.744C369.121 471.611 368.915 471.431 368.761 471.204C368.608 470.977 368.531 470.724 368.531 470.444C368.531 470.084 368.621 469.801 368.801 469.594C368.988 469.387 369.291 469.241 369.711 469.154C370.138 469.067 370.718 469.024 371.451 469.024H371.901V469.554H371.461C370.921 469.554 370.495 469.581 370.181 469.634C369.875 469.681 369.658 469.764 369.531 469.884C369.411 470.004 369.351 470.174 369.351 470.394C369.351 470.667 369.445 470.891 369.631 471.064C369.825 471.237 370.085 471.324 370.411 471.324C370.678 471.324 370.911 471.261 371.111 471.134C371.318 471.007 371.478 470.834 371.591 470.614C371.711 470.394 371.771 470.141 371.771 469.854V468.714C371.771 468.301 371.688 468.004 371.521 467.824C371.355 467.637 371.081 467.544 370.701 467.544C370.468 467.544 370.235 467.574 370.001 467.634C369.768 467.694 369.521 467.791 369.261 467.924C369.168 467.971 369.088 467.987 369.021 467.974C368.955 467.954 368.901 467.917 368.861 467.864C368.821 467.811 368.798 467.751 368.791 467.684C368.785 467.611 368.798 467.541 368.831 467.474C368.871 467.407 368.931 467.354 369.011 467.314C369.305 467.167 369.595 467.061 369.881 466.994C370.168 466.927 370.441 466.894 370.701 466.894C371.121 466.894 371.468 466.964 371.741 467.104C372.015 467.237 372.218 467.444 372.351 467.724C372.485 467.997 372.551 468.351 372.551 468.784V471.494C372.551 471.627 372.518 471.731 372.451 471.804C372.391 471.877 372.301 471.914 372.181 471.914C372.055 471.914 371.958 471.877 371.891 471.804C371.825 471.731 371.791 471.627 371.791 471.494V470.714H371.881C371.828 470.967 371.725 471.184 371.571 471.364C371.425 471.544 371.241 471.684 371.021 471.784C370.801 471.884 370.555 471.934 370.281 471.934ZM374.474 471.914C374.341 471.914 374.241 471.877 374.174 471.804C374.107 471.731 374.074 471.627 374.074 471.494V467.324C374.074 467.191 374.107 467.091 374.174 467.024C374.241 466.951 374.337 466.914 374.464 466.914C374.591 466.914 374.687 466.951 374.754 467.024C374.827 467.091 374.864 467.191 374.864 467.324V468.204L374.754 468.064C374.881 467.691 375.084 467.404 375.364 467.204C375.651 466.997 375.991 466.894 376.384 466.894C376.797 466.894 377.131 466.994 377.384 467.194C377.644 467.387 377.817 467.691 377.904 468.104H377.754C377.874 467.731 378.087 467.437 378.394 467.224C378.707 467.004 379.071 466.894 379.484 466.894C379.851 466.894 380.151 466.964 380.384 467.104C380.624 467.244 380.804 467.457 380.924 467.744C381.044 468.024 381.104 468.381 381.104 468.814V471.494C381.104 471.627 381.067 471.731 380.994 471.804C380.927 471.877 380.827 471.914 380.694 471.914C380.567 471.914 380.467 471.877 380.394 471.804C380.327 471.731 380.294 471.627 380.294 471.494V468.854C380.294 468.407 380.217 468.081 380.064 467.874C379.911 467.661 379.651 467.554 379.284 467.554C378.884 467.554 378.567 467.694 378.334 467.974C378.107 468.247 377.994 468.621 377.994 469.094V471.494C377.994 471.627 377.957 471.731 377.884 471.804C377.817 471.877 377.717 471.914 377.584 471.914C377.457 471.914 377.357 471.877 377.284 471.804C377.217 471.731 377.184 471.627 377.184 471.494V468.854C377.184 468.407 377.104 468.081 376.944 467.874C376.791 467.661 376.534 467.554 376.174 467.554C375.774 467.554 375.457 467.694 375.224 467.974C374.997 468.247 374.884 468.621 374.884 469.094V471.494C374.884 471.774 374.747 471.914 374.474 471.914Z" fill="#030229"/>
<path opacity="0.7" d="M400 471.934C399.193 471.934 398.58 471.624 398.16 471.004C397.74 470.384 397.53 469.487 397.53 468.314C397.53 467.527 397.623 466.867 397.81 466.334C397.997 465.794 398.273 465.387 398.64 465.114C399.013 464.841 399.467 464.704 400 464.704C400.813 464.704 401.427 465.011 401.84 465.624C402.26 466.231 402.47 467.124 402.47 468.304C402.47 469.091 402.377 469.754 402.19 470.294C402.003 470.834 401.727 471.244 401.36 471.524C400.993 471.797 400.54 471.934 400 471.934ZM400 471.224C400.56 471.224 400.973 470.987 401.24 470.514C401.513 470.034 401.65 469.297 401.65 468.304C401.65 467.304 401.513 466.574 401.24 466.114C400.973 465.647 400.56 465.414 400 465.414C399.447 465.414 399.033 465.647 398.76 466.114C398.487 466.581 398.35 467.311 398.35 468.304C398.35 469.297 398.487 470.034 398.76 470.514C399.033 470.987 399.447 471.224 400 471.224ZM404.676 471.914C404.583 471.914 404.503 471.891 404.436 471.844C404.369 471.797 404.326 471.734 404.306 471.654C404.293 471.567 404.313 471.474 404.366 471.374L407.576 465.144V465.504H403.976C403.856 465.504 403.763 465.474 403.696 465.414C403.629 465.347 403.596 465.257 403.596 465.144C403.596 465.031 403.629 464.944 403.696 464.884C403.763 464.824 403.856 464.794 403.976 464.794H407.946C408.066 464.794 408.163 464.824 408.236 464.884C408.309 464.944 408.346 465.031 408.346 465.144C408.346 465.237 408.333 465.321 408.306 465.394C408.286 465.461 408.256 465.537 408.216 465.624L405.136 471.634C405.089 471.727 405.029 471.797 404.956 471.844C404.883 471.891 404.789 471.914 404.676 471.914ZM411.282 471.934C410.949 471.934 410.649 471.871 410.382 471.744C410.122 471.611 409.916 471.431 409.762 471.204C409.609 470.977 409.532 470.724 409.532 470.444C409.532 470.084 409.622 469.801 409.802 469.594C409.989 469.387 410.292 469.241 410.712 469.154C411.139 469.067 411.719 469.024 412.452 469.024H412.902V469.554H412.462C411.922 469.554 411.496 469.581 411.182 469.634C410.876 469.681 410.659 469.764 410.532 469.884C410.412 470.004 410.352 470.174 410.352 470.394C410.352 470.667 410.446 470.891 410.632 471.064C410.826 471.237 411.086 471.324 411.412 471.324C411.679 471.324 411.912 471.261 412.112 471.134C412.319 471.007 412.479 470.834 412.592 470.614C412.712 470.394 412.772 470.141 412.772 469.854V468.714C412.772 468.301 412.689 468.004 412.522 467.824C412.356 467.637 412.082 467.544 411.702 467.544C411.469 467.544 411.236 467.574 411.002 467.634C410.769 467.694 410.522 467.791 410.262 467.924C410.169 467.971 410.089 467.987 410.022 467.974C409.956 467.954 409.902 467.917 409.862 467.864C409.822 467.811 409.799 467.751 409.792 467.684C409.786 467.611 409.799 467.541 409.832 467.474C409.872 467.407 409.932 467.354 410.012 467.314C410.306 467.167 410.596 467.061 410.882 466.994C411.169 466.927 411.442 466.894 411.702 466.894C412.122 466.894 412.469 466.964 412.742 467.104C413.016 467.237 413.219 467.444 413.352 467.724C413.486 467.997 413.552 468.351 413.552 468.784V471.494C413.552 471.627 413.519 471.731 413.452 471.804C413.392 471.877 413.302 471.914 413.182 471.914C413.056 471.914 412.959 471.877 412.892 471.804C412.826 471.731 412.792 471.627 412.792 471.494V470.714H412.882C412.829 470.967 412.726 471.184 412.572 471.364C412.426 471.544 412.242 471.684 412.022 471.784C411.802 471.884 411.556 471.934 411.282 471.934ZM415.475 471.914C415.342 471.914 415.242 471.877 415.175 471.804C415.108 471.731 415.075 471.627 415.075 471.494V467.324C415.075 467.191 415.108 467.091 415.175 467.024C415.242 466.951 415.338 466.914 415.465 466.914C415.592 466.914 415.688 466.951 415.755 467.024C415.828 467.091 415.865 467.191 415.865 467.324V468.204L415.755 468.064C415.882 467.691 416.085 467.404 416.365 467.204C416.652 466.997 416.992 466.894 417.385 466.894C417.798 466.894 418.132 466.994 418.385 467.194C418.645 467.387 418.818 467.691 418.905 468.104H418.755C418.875 467.731 419.088 467.437 419.395 467.224C419.708 467.004 420.072 466.894 420.485 466.894C420.852 466.894 421.152 466.964 421.385 467.104C421.625 467.244 421.805 467.457 421.925 467.744C422.045 468.024 422.105 468.381 422.105 468.814V471.494C422.105 471.627 422.068 471.731 421.995 471.804C421.928 471.877 421.828 471.914 421.695 471.914C421.568 471.914 421.468 471.877 421.395 471.804C421.328 471.731 421.295 471.627 421.295 471.494V468.854C421.295 468.407 421.218 468.081 421.065 467.874C420.912 467.661 420.652 467.554 420.285 467.554C419.885 467.554 419.568 467.694 419.335 467.974C419.108 468.247 418.995 468.621 418.995 469.094V471.494C418.995 471.627 418.958 471.731 418.885 471.804C418.818 471.877 418.718 471.914 418.585 471.914C418.458 471.914 418.358 471.877 418.285 471.804C418.218 471.731 418.185 471.627 418.185 471.494V468.854C418.185 468.407 418.105 468.081 417.945 467.874C417.792 467.661 417.535 467.554 417.175 467.554C416.775 467.554 416.458 467.694 416.225 467.974C415.998 468.247 415.885 468.621 415.885 469.094V471.494C415.885 471.774 415.748 471.914 415.475 471.914Z" fill="#030229"/>
</g>
<path d="M38 158L42.6075 173.883C47.2419 189.172 56.5917 221.828 65.7528 245.133C74.9408 269.328 84.075 284.172 93.5056 253C102.667 221.828 111.828 141.672 121.258 142.117C130.392 141.672 139.581 221.828 148.742 245.133C158.091 269.328 167.333 236.672 176.494 253C185.817 269.328 195.086 331.672 204.247 308.367C213.516 284.172 222.839 174.328 232 181.75C241.242 189.172 250.592 247.103 259.753 309.892C268.941 373.275 278.075 373.275 287.506 333.642C297.947 295.706 303.045 280.867 314.274 259.972C326.119 240.798 333.581 269.328 342.742 237.117C352.091 205.5 361.333 110.5 370.494 94.6172C379.817 79.3281 389.086 141.672 398.247 150.133C407.516 158 416.839 110.5 421.419 86.75L426 63V443H421.392C416.758 443 407.408 443 398.247 443C389.059 443 379.925 443 370.494 443C361.333 443 352.172 443 342.742 443C333.607 443 324.419 443 315.258 443C305.909 443 296.667 443 287.506 443C278.183 443 268.914 443 259.753 443C250.484 443 241.161 443 232 443C222.758 443 213.408 443 204.247 443C195.059 443 185.925 443 176.494 443C167.333 443 158.172 443 148.742 443C139.607 443 130.419 443 121.258 443C111.909 443 102.667 443 93.5056 443C84.1828 443 74.9139 443 65.7528 443C56.4839 443 47.1611 443 42.5806 443H38V158Z" fill="url(#paint0_linear_1_12)"/>
<g filter="url(#filter0_d_1_12)">
<path d="M38 156.302L42.6075 172.403C47.2419 187.901 56.5917 221.005 65.7528 244.629C74.9408 269.156 84.075 284.204 93.5056 252.604C102.667 221.005 111.828 139.75 121.258 140.202C130.392 139.75 139.581 221.005 148.742 244.629C158.091 269.156 167.333 236.053 176.494 252.604C185.817 269.156 195.086 332.355 204.247 308.731C213.516 284.204 222.839 172.854 232 180.378C241.242 187.901 250.592 246.627 259.753 310.277C268.941 374.528 278.075 374.528 287.506 334.352C297.947 295.896 303.045 280.853 314.274 259.673C326.119 240.235 333.581 269.156 342.742 236.504C352.091 204.453 361.333 108.151 370.494 92.0506C379.817 76.552 389.086 139.75 398.247 148.327C407.516 156.302 416.839 108.151 421.419 84.0756L426 60" stroke="url(#paint1_linear_1_12)" stroke-width="1.91736" stroke-linecap="round"/>
</g>
<g filter="url(#filter1_d_1_12)">
<circle cx="121" cy="141" r="5" fill="white"/>
<circle cx="121" cy="141" r="3.88717" stroke="#AE8FF7" stroke-width="2.22565"/>
</g>
<g filter="url(#filter2_d_1_12)">
<circle cx="171" cy="249" r="5" fill="white"/>
<circle cx="171" cy="249" r="3.88717" stroke="#AE8FF7" stroke-width="2.22565"/>
</g>
<g filter="url(#filter3_d_1_12)">
<circle cx="232" cy="181" r="5" fill="white"/>
<circle cx="232" cy="181" r="3.88717" stroke="#AE8FF7" stroke-width="2.22565"/>
</g>
<g filter="url(#filter4_d_1_12)">
<circle cx="321" cy="253" r="5" fill="white"/>
<circle cx="321" cy="253" r="3.88717" stroke="#AE8FF7" stroke-width="2.22565"/>
</g>
<g filter="url(#filter5_d_1_12)">
<circle cx="373" cy="92" r="5" fill="white"/>
<circle cx="373" cy="92" r="3.88717" stroke="#AE8FF7" stroke-width="2.22565"/>
</g>
<g filter="url(#filter6_d_1_12)">
<path fill-rule="evenodd" clip-rule="evenodd" d="M187.954 116C183.009 116 179 120.009 179 124.954V159.046C179 163.991 183.009 168 187.954 168H228.266C228.276 168.149 228.325 168.299 228.419 168.438L230.885 172.08C231.24 172.604 232.013 172.604 232.368 172.08L234.834 168.438C234.928 168.299 234.977 168.149 234.987 168H275.046C279.991 168 284 163.991 284 159.046V124.954C284 120.009 279.991 116 275.046 116H187.954Z" fill="#2CA6E9"/>
</g>
<path opacity="0.8" d="M192 138V130.368H189.048V129.6H195.84V130.368H192.888V138H192ZM198.99 138.06C198.382 138.06 197.834 137.924 197.346 137.652C196.866 137.372 196.486 136.992 196.206 136.512C195.926 136.024 195.786 135.468 195.786 134.844C195.786 134.212 195.926 133.656 196.206 133.176C196.486 132.696 196.866 132.32 197.346 132.048C197.826 131.776 198.374 131.64 198.99 131.64C199.614 131.64 200.166 131.776 200.646 132.048C201.134 132.32 201.514 132.696 201.786 133.176C202.066 133.656 202.206 134.212 202.206 134.844C202.206 135.468 202.066 136.024 201.786 136.512C201.514 136.992 201.134 137.372 200.646 137.652C200.158 137.924 199.606 138.06 198.99 138.06ZM198.99 137.304C199.446 137.304 199.85 137.204 200.202 137.004C200.554 136.796 200.83 136.508 201.03 136.14C201.238 135.764 201.342 135.332 201.342 134.844C201.342 134.348 201.238 133.916 201.03 133.548C200.83 133.18 200.554 132.896 200.202 132.696C199.85 132.488 199.45 132.384 199.002 132.384C198.554 132.384 198.154 132.488 197.802 132.696C197.45 132.896 197.17 133.18 196.962 133.548C196.754 133.916 196.65 134.348 196.65 134.844C196.65 135.332 196.754 135.764 196.962 136.14C197.17 136.508 197.45 136.796 197.802 137.004C198.154 137.204 198.55 137.304 198.99 137.304ZM205.938 138.06C205.346 138.06 204.89 137.9 204.57 137.58C204.25 137.26 204.09 136.808 204.09 136.224V130.308H204.942V136.176C204.942 136.544 205.034 136.828 205.218 137.028C205.41 137.228 205.682 137.328 206.034 137.328C206.41 137.328 206.722 137.22 206.97 137.004L207.27 137.616C207.102 137.768 206.898 137.88 206.658 137.952C206.426 138.024 206.186 138.06 205.938 138.06ZM202.962 132.408V131.7H206.862V132.408H202.962ZM212.769 138V136.608L212.733 136.38V134.052C212.733 133.516 212.581 133.104 212.277 132.816C211.981 132.528 211.537 132.384 210.945 132.384C210.537 132.384 210.149 132.452 209.781 132.588C209.413 132.724 209.101 132.904 208.845 133.128L208.461 132.492C208.781 132.22 209.165 132.012 209.613 131.868C210.061 131.716 210.533 131.64 211.029 131.64C211.845 131.64 212.473 131.844 212.913 132.252C213.361 132.652 213.585 133.264 213.585 134.088V138H212.769ZM210.597 138.06C210.125 138.06 209.713 137.984 209.361 137.832C209.017 137.672 208.753 137.456 208.569 137.184C208.385 136.904 208.293 136.584 208.293 136.224C208.293 135.896 208.369 135.6 208.521 135.336C208.681 135.064 208.937 134.848 209.289 134.688C209.649 134.52 210.129 134.436 210.729 134.436H212.901V135.072H210.753C210.145 135.072 209.721 135.18 209.481 135.396C209.249 135.612 209.133 135.88 209.133 136.2C209.133 136.56 209.273 136.848 209.553 137.064C209.833 137.28 210.225 137.388 210.729 137.388C211.209 137.388 211.621 137.28 211.965 137.064C212.317 136.84 212.573 136.52 212.733 136.104L212.925 136.692C212.765 137.108 212.485 137.44 212.085 137.688C211.693 137.936 211.197 138.06 210.597 138.06ZM215.899 138V129.096H216.751V138H215.899ZM222.442 138V129.6H226.066C227.002 129.6 227.726 129.788 228.238 130.164C228.758 130.54 229.018 131.072 229.018 131.76C229.018 132.216 228.91 132.6 228.694 132.912C228.486 133.224 228.198 133.46 227.83 133.62C227.47 133.78 227.074 133.86 226.642 133.86L226.846 133.572C227.382 133.572 227.842 133.656 228.226 133.824C228.618 133.984 228.922 134.228 229.138 134.556C229.354 134.876 229.462 135.276 229.462 135.756C229.462 136.468 229.198 137.02 228.67 137.412C228.15 137.804 227.362 138 226.306 138H222.442ZM223.33 137.268H226.294C227.03 137.268 227.594 137.144 227.986 136.896C228.378 136.64 228.574 136.236 228.574 135.684C228.574 135.14 228.378 134.744 227.986 134.496C227.594 134.24 227.03 134.112 226.294 134.112H223.234V133.38H226.006C226.678 133.38 227.198 133.252 227.566 132.996C227.942 132.74 228.13 132.36 228.13 131.856C228.13 131.344 227.942 130.964 227.566 130.716C227.198 130.46 226.678 130.332 226.006 130.332H223.33V137.268ZM233.877 138.06C233.269 138.06 232.721 137.924 232.233 137.652C231.753 137.372 231.373 136.992 231.093 136.512C230.813 136.024 230.673 135.468 230.673 134.844C230.673 134.212 230.813 133.656 231.093 133.176C231.373 132.696 231.753 132.32 232.233 132.048C232.713 131.776 233.261 131.64 233.877 131.64C234.501 131.64 235.053 131.776 235.533 132.048C236.021 132.32 236.401 132.696 236.673 133.176C236.953 133.656 237.093 134.212 237.093 134.844C237.093 135.468 236.953 136.024 236.673 136.512C236.401 136.992 236.021 137.372 235.533 137.652C235.045 137.924 234.493 138.06 233.877 138.06ZM233.877 137.304C234.333 137.304 234.737 137.204 235.089 137.004C235.441 136.796 235.717 136.508 235.917 136.14C236.125 135.764 236.229 135.332 236.229 134.844C236.229 134.348 236.125 133.916 235.917 133.548C235.717 133.18 235.441 132.896 235.089 132.696C234.737 132.488 234.337 132.384 233.889 132.384C233.441 132.384 233.041 132.488 232.689 132.696C232.337 132.896 232.057 133.18 231.849 133.548C231.641 133.916 231.537 134.348 231.537 134.844C231.537 135.332 231.641 135.764 231.849 136.14C232.057 136.508 232.337 136.796 232.689 137.004C233.041 137.204 233.437 137.304 233.877 137.304ZM241.401 138.06C240.793 138.06 240.245 137.924 239.757 137.652C239.277 137.372 238.897 136.992 238.617 136.512C238.337 136.024 238.197 135.468 238.197 134.844C238.197 134.212 238.337 133.656 238.617 133.176C238.897 132.696 239.277 132.32 239.757 132.048C240.237 131.776 240.785 131.64 241.401 131.64C242.025 131.64 242.577 131.776 243.057 132.048C243.545 132.32 243.925 132.696 244.197 133.176C244.477 133.656 244.617 134.212 244.617 134.844C244.617 135.468 244.477 136.024 244.197 136.512C243.925 136.992 243.545 137.372 243.057 137.652C242.569 137.924 242.017 138.06 241.401 138.06ZM241.401 137.304C241.857 137.304 242.261 137.204 242.613 137.004C242.965 136.796 243.241 136.508 243.441 136.14C243.649 135.764 243.753 135.332 243.753 134.844C243.753 134.348 243.649 133.916 243.441 133.548C243.241 133.18 242.965 132.896 242.613 132.696C242.261 132.488 241.861 132.384 241.413 132.384C240.965 132.384 240.565 132.488 240.213 132.696C239.861 132.896 239.581 133.18 239.373 133.548C239.165 133.916 239.061 134.348 239.061 134.844C239.061 135.332 239.165 135.764 239.373 136.14C239.581 136.508 239.861 136.796 240.213 137.004C240.565 137.204 240.961 137.304 241.401 137.304ZM247.028 136.368L247.052 135.276L250.976 131.7H252.02L249.248 134.352L248.768 134.76L247.028 136.368ZM246.356 138V129.096H247.208V138H246.356ZM251.24 138L248.612 134.724L249.164 134.064L252.284 138H251.24ZM253.563 138V131.7H254.415V138H253.563ZM253.995 130.308C253.819 130.308 253.671 130.248 253.551 130.128C253.431 130.008 253.371 129.864 253.371 129.696C253.371 129.528 253.431 129.388 253.551 129.276C253.671 129.156 253.819 129.096 253.995 129.096C254.171 129.096 254.319 129.152 254.439 129.264C254.559 129.376 254.619 129.516 254.619 129.684C254.619 129.86 254.559 130.008 254.439 130.128C254.327 130.248 254.179 130.308 253.995 130.308ZM260.002 131.64C260.514 131.64 260.962 131.74 261.346 131.94C261.738 132.132 262.042 132.428 262.258 132.828C262.482 133.228 262.594 133.732 262.594 134.34V138H261.742V134.424C261.742 133.76 261.574 133.26 261.238 132.924C260.91 132.58 260.446 132.408 259.846 132.408C259.398 132.408 259.006 132.5 258.67 132.684C258.342 132.86 258.086 133.12 257.902 133.464C257.726 133.8 257.638 134.208 257.638 134.688V138H256.786V131.7H257.602V133.428L257.47 133.104C257.67 132.648 257.99 132.292 258.43 132.036C258.87 131.772 259.394 131.64 260.002 131.64ZM267.583 140.388C267.007 140.388 266.455 140.304 265.927 140.136C265.399 139.968 264.971 139.728 264.643 139.416L265.075 138.768C265.371 139.032 265.735 139.24 266.167 139.392C266.607 139.552 267.071 139.632 267.559 139.632C268.359 139.632 268.947 139.444 269.323 139.068C269.699 138.7 269.887 138.124 269.887 137.34V135.768L270.007 134.688L269.923 133.608V131.7H270.739V137.232C270.739 138.32 270.471 139.116 269.935 139.62C269.407 140.132 268.623 140.388 267.583 140.388ZM267.427 137.76C266.827 137.76 266.287 137.632 265.807 137.376C265.327 137.112 264.947 136.748 264.667 136.284C264.395 135.82 264.259 135.288 264.259 134.688C264.259 134.088 264.395 133.56 264.667 133.104C264.947 132.64 265.327 132.28 265.807 132.024C266.287 131.768 266.827 131.64 267.427 131.64C267.987 131.64 268.491 131.756 268.939 131.988C269.387 132.22 269.743 132.564 270.007 133.02C270.271 133.476 270.403 134.032 270.403 134.688C270.403 135.344 270.271 135.9 270.007 136.356C269.743 136.812 269.387 137.16 268.939 137.4C268.491 137.64 267.987 137.76 267.427 137.76ZM267.511 137.004C267.975 137.004 268.387 136.908 268.747 136.716C269.107 136.516 269.391 136.244 269.599 135.9C269.807 135.548 269.911 135.144 269.911 134.688C269.911 134.232 269.807 133.832 269.599 133.488C269.391 133.144 269.107 132.876 268.747 132.684C268.387 132.484 267.975 132.384 267.511 132.384C267.055 132.384 266.643 132.484 266.275 132.684C265.915 132.876 265.631 133.144 265.423 133.488C265.223 133.832 265.123 134.232 265.123 134.688C265.123 135.144 265.223 135.548 265.423 135.9C265.631 136.244 265.915 136.516 266.275 136.716C266.643 136.908 267.055 137.004 267.511 137.004ZM274.802 138.06C274.282 138.06 273.79 137.988 273.326 137.844C272.862 137.692 272.498 137.504 272.234 137.28L272.618 136.608C272.874 136.8 273.202 136.968 273.602 137.112C274.002 137.248 274.422 137.316 274.862 137.316C275.462 137.316 275.894 137.224 276.158 137.04C276.422 136.848 276.554 136.596 276.554 136.284C276.554 136.052 276.478 135.872 276.326 135.744C276.182 135.608 275.99 135.508 275.75 135.444C275.51 135.372 275.242 135.312 274.946 135.264C274.65 135.216 274.354 135.16 274.058 135.096C273.77 135.032 273.506 134.94 273.266 134.82C273.026 134.692 272.83 134.52 272.678 134.304C272.534 134.088 272.462 133.8 272.462 133.44C272.462 133.096 272.558 132.788 272.75 132.516C272.942 132.244 273.222 132.032 273.59 131.88C273.966 131.72 274.422 131.64 274.958 131.64C275.366 131.64 275.774 131.696 276.182 131.808C276.59 131.912 276.926 132.052 277.19 132.228L276.818 132.912C276.538 132.72 276.238 132.584 275.918 132.504C275.598 132.416 275.278 132.372 274.958 132.372C274.39 132.372 273.97 132.472 273.698 132.672C273.434 132.864 273.302 133.112 273.302 133.416C273.302 133.656 273.374 133.844 273.518 133.98C273.67 134.116 273.866 134.224 274.106 134.304C274.354 134.376 274.622 134.436 274.91 134.484C275.206 134.532 275.498 134.592 275.786 134.664C276.082 134.728 276.35 134.82 276.59 134.94C276.838 135.052 277.034 135.216 277.178 135.432C277.33 135.64 277.406 135.916 277.406 136.26C277.406 136.628 277.302 136.948 277.094 137.22C276.894 137.484 276.598 137.692 276.206 137.844C275.822 137.988 275.354 138.06 274.802 138.06Z" fill="white"/>
<path d="M218.528 157V155.32L222.848 151.24C223.189 150.931 223.44 150.653 223.6 150.408C223.76 150.163 223.867 149.939 223.92 149.736C223.984 149.533 224.016 149.347 224.016 149.176C224.016 148.728 223.861 148.387 223.552 148.152C223.253 147.907 222.811 147.784 222.224 147.784C221.755 147.784 221.317 147.875 220.912 148.056C220.517 148.237 220.181 148.52 219.904 148.904L218.016 147.688C218.443 147.048 219.04 146.541 219.808 146.168C220.576 145.795 221.461 145.608 222.464 145.608C223.296 145.608 224.021 145.747 224.64 146.024C225.269 146.291 225.755 146.669 226.096 147.16C226.448 147.651 226.624 148.237 226.624 148.92C226.624 149.283 226.576 149.645 226.48 150.008C226.395 150.36 226.213 150.733 225.936 151.128C225.669 151.523 225.275 151.965 224.752 152.456L221.168 155.832L220.672 154.888H226.992V157H218.528ZM227.965 157V155.32L232.286 151.24C232.627 150.931 232.878 150.653 233.038 150.408C233.198 150.163 233.304 149.939 233.358 149.736C233.422 149.533 233.454 149.347 233.454 149.176C233.454 148.728 233.299 148.387 232.99 148.152C232.691 147.907 232.248 147.784 231.661 147.784C231.192 147.784 230.755 147.875 230.35 148.056C229.955 148.237 229.619 148.52 229.342 148.904L227.454 147.688C227.88 147.048 228.478 146.541 229.246 146.168C230.014 145.795 230.899 145.608 231.902 145.608C232.734 145.608 233.459 145.747 234.078 146.024C234.707 146.291 235.192 146.669 235.534 147.16C235.886 147.651 236.062 148.237 236.062 148.92C236.062 149.283 236.014 149.645 235.918 150.008C235.832 150.36 235.651 150.733 235.374 151.128C235.107 151.523 234.712 151.965 234.19 152.456L230.606 155.832L230.11 154.888H236.43V157H227.965ZM242.299 157.192C241.382 157.192 240.56 156.968 239.835 156.52C239.11 156.061 238.539 155.4 238.123 154.536C237.707 153.672 237.499 152.627 237.499 151.4C237.499 150.173 237.707 149.128 238.123 148.264C238.539 147.4 239.11 146.744 239.835 146.296C240.56 145.837 241.382 145.608 242.299 145.608C243.227 145.608 244.048 145.837 244.763 146.296C245.488 146.744 246.059 147.4 246.475 148.264C246.891 149.128 247.099 150.173 247.099 151.4C247.099 152.627 246.891 153.672 246.475 154.536C246.059 155.4 245.488 156.061 244.763 156.52C244.048 156.968 243.227 157.192 242.299 157.192ZM242.299 155C242.736 155 243.115 154.877 243.435 154.632C243.766 154.387 244.022 153.997 244.203 153.464C244.395 152.931 244.491 152.243 244.491 151.4C244.491 150.557 244.395 149.869 244.203 149.336C244.022 148.803 243.766 148.413 243.435 148.168C243.115 147.923 242.736 147.8 242.299 147.8C241.872 147.8 241.494 147.923 241.163 148.168C240.843 148.413 240.587 148.803 240.395 149.336C240.214 149.869 240.123 150.557 240.123 151.4C240.123 152.243 240.214 152.931 240.395 153.464C240.587 153.997 240.843 154.387 241.163 154.632C241.494 154.877 241.872 155 242.299 155Z" fill="white"/>
<path d="M231 438L232 184" stroke="#605BFF" stroke-width="0.741884" stroke-dasharray="1.48 5.19"/>
<defs>
<filter id="filter0_d_1_12" x="34.0735" y="59.0411" width="395.853" height="309.853" filterUnits="userSpaceOnUse" color-interpolation-filters="sRGB">
<feFlood flood-opacity="0" result="BackgroundImageFix"/>
<feColorMatrix in="SourceAlpha" type="matrix" values="0 0 0 0 0 0 0 0 0 0 0 0 0 0 0 0 0 0 127 0" result="hardAlpha"/>
<feOffset dy="2.96754"/>
<feGaussianBlur stdDeviation="1.48377"/>
<feColorMatrix type="matrix" values="0 0 0 0 0.376471 0 0 0 0 0.356863 0 0 0 0 1 0 0 0 0.17 0"/>
<feBlend mode="normal" in2="BackgroundImageFix" result="effect1_dropShadow_1_12"/>
<feBlend mode="normal" in="SourceGraphic" in2="effect1_dropShadow_1_12" result="shape"/>
</filter>
<filter id="filter1_d_1_12" x="113.032" y="136" width="15.9351" height="15.9351" filterUnits="userSpaceOnUse" color-interpolation-filters="sRGB">
<feFlood flood-opacity="0" result="BackgroundImageFix"/>
<feColorMatrix in="SourceAlpha" type="matrix" values="0 0 0 0 0 0 0 0 0 0 0 0 0 0 0 0 0 0 127 0" result="hardAlpha"/>
<feOffset dy="2.96754"/>
<feGaussianBlur stdDeviation="1.48377"/>
<feColorMatrix type="matrix" values="0 0 0 0 0.376471 0 0 0 0 0.356863 0 0 0 0 1 0 0 0 0.17 0"/>
<feBlend mode="normal" in2="BackgroundImageFix" result="effect1_dropShadow_1_12"/>
<feBlend mode="normal" in="SourceGraphic" in2="effect1_dropShadow_1_12" result="shape"/>
</filter>
<filter id="filter2_d_1_12" x="163.032" y="244" width="15.9351" height="15.9351" filterUnits="userSpaceOnUse" color-interpolation-filters="sRGB">
<feFlood flood-opacity="0" result="BackgroundImageFix"/>
<feColorMatrix in="SourceAlpha" type="matrix" values="0 0 0 0 0 0 0 0 0 0 0 0 0 0 0 0 0 0 127 0" result="hardAlpha"/>
<feOffset dy="2.96754"/>
<feGaussianBlur stdDeviation="1.48377"/>
<feColorMatrix type="matrix" values="0 0 0 0 0.376471 0 0 0 0 0.356863 0 0 0 0 1 0 0 0 0.17 0"/>
<feBlend mode="normal" in2="BackgroundImageFix" result="effect1_dropShadow_1_12"/>
<feBlend mode="normal" in="SourceGraphic" in2="effect1_dropShadow_1_12" result="shape"/>
</filter>
<filter id="filter3_d_1_12" x="224.032" y="176" width="15.9351" height="15.9351" filterUnits="userSpaceOnUse" color-interpolation-filters="sRGB">
<feFlood flood-opacity="0" result="BackgroundImageFix"/>
<feColorMatrix in="SourceAlpha" type="matrix" values="0 0 0 0 0 0 0 0 0 0 0 0 0 0 0 0 0 0 127 0" result="hardAlpha"/>
<feOffset dy="2.96754"/>
<feGaussianBlur stdDeviation="1.48377"/>
<feColorMatrix type="matrix" values="0 0 0 0 0.376471 0 0 0 0 0.356863 0 0 0 0 1 0 0 0 0.17 0"/>
<feBlend mode="normal" in2="BackgroundImageFix" result="effect1_dropShadow_1_12"/>
<feBlend mode="normal" in="SourceGraphic" in2="effect1_dropShadow_1_12" result="shape"/>
</filter>
<filter id="filter4_d_1_12" x="313.032" y="248" width="15.9351" height="15.9351" filterUnits="userSpaceOnUse" color-interpolation-filters="sRGB">
<feFlood flood-opacity="0" result="BackgroundImageFix"/>
<feColorMatrix in="SourceAlpha" type="matrix" values="0 0 0 0 0 0 0 0 0 0 0 0 0 0 0 0 0 0 127 0" result="hardAlpha"/>
<feOffset dy="2.96754"/>
<feGaussianBlur stdDeviation="1.48377"/>
<feColorMatrix type="matrix" values="0 0 0 0 0.376471 0 0 0 0 0.356863 0 0 0 0 1 0 0 0 0.17 0"/>
<feBlend mode="normal" in2="BackgroundImageFix" result="effect1_dropShadow_1_12"/>
<feBlend mode="normal" in="SourceGraphic" in2="effect1_dropShadow_1_12" result="shape"/>
</filter>
<filter id="filter5_d_1_12" x="365.032" y="87" width="15.9351" height="15.9351" filterUnits="userSpaceOnUse" color-interpolation-filters="sRGB">
<feFlood flood-opacity="0" result="BackgroundImageFix"/>
<feColorMatrix in="SourceAlpha" type="matrix" values="0 0 0 0 0 0 0 0 0 0 0 0 0 0 0 0 0 0 127 0" result="hardAlpha"/>
<feOffset dy="2.96754"/>
<feGaussianBlur stdDeviation="1.48377"/>
<feColorMatrix type="matrix" values="0 0 0 0 0.376471 0 0 0 0 0.356863 0 0 0 0 1 0 0 0 0.17 0"/>
<feBlend mode="normal" in2="BackgroundImageFix" result="effect1_dropShadow_1_12"/>
<feBlend mode="normal" in="SourceGraphic" in2="effect1_dropShadow_1_12" result="shape"/>
</filter>
<filter id="filter6_d_1_12" x="172.732" y="113.314" width="117.535" height="69.0086" filterUnits="userSpaceOnUse" color-interpolation-filters="sRGB">
<feFlood flood-opacity="0" result="BackgroundImageFix"/>
<feColorMatrix in="SourceAlpha" type="matrix" values="0 0 0 0 0 0 0 0 0 0 0 0 0 0 0 0 0 0 127 0" result="hardAlpha"/>
<feOffset dy="3.58151"/>
<feGaussianBlur stdDeviation="3.13382"/>
<feColorMatrix type="matrix" values="0 0 0 0 0.0117647 0 0 0 0 0.00784314 0 0 0 0 0.160784 0 0 0 0.07 0"/>
<feBlend mode="normal" in2="BackgroundImageFix" result="effect1_dropShadow_1_12"/>
<feBlend mode="normal" in="SourceGraphic" in2="effect1_dropShadow_1_12" result="shape"/>
</filter>
<linearGradient id="paint0_linear_1_12" x1="33.9323" y1="81.3871" x2="426.002" y2="81.0995" gradientUnits="userSpaceOnUse">
<stop stop-color="#5EC3FF" stop-opacity="0.04"/>
<stop offset="1" stop-color="#FD5DEF" stop-opacity="0.04"/>
</linearGradient>
<linearGradient id="paint1_linear_1_12" x1="32.3677" y1="60" x2="431.632" y2="60" gradientUnits="userSpaceOnUse">
<stop stop-color="#2CA6E9"/>
<stop offset="1" stop-color="#08138C"/>
</linearGradient>
</defs>
</svg>
