<svg width="81" height="16" viewBox="0 0 81 16" fill="none" xmlns="http://www.w3.org/2000/svg">
<path d="M4.13281 12V1.824H0.196813V0.799999H9.25281V1.824H5.31681V12H4.13281ZM13.4533 12.08C12.6426 12.08 11.912 11.8987 11.2613 11.536C10.6213 11.1627 10.1146 10.656 9.74131 10.016C9.36798 9.36533 9.18131 8.624 9.18131 7.792C9.18131 6.94933 9.36798 6.208 9.74131 5.568C10.1146 4.928 10.6213 4.42667 11.2613 4.064C11.9013 3.70133 12.632 3.52 13.4533 3.52C14.2853 3.52 15.0213 3.70133 15.6613 4.064C16.312 4.42667 16.8186 4.928 17.1813 5.568C17.5546 6.208 17.7413 6.94933 17.7413 7.792C17.7413 8.624 17.5546 9.36533 17.1813 10.016C16.8186 10.656 16.312 11.1627 15.6613 11.536C15.0106 11.8987 14.2746 12.08 13.4533 12.08ZM13.4533 11.072C14.0613 11.072 14.6 10.9387 15.0693 10.672C15.5386 10.3947 15.9066 10.0107 16.1733 9.52C16.4506 9.01867 16.5893 8.44267 16.5893 7.792C16.5893 7.13067 16.4506 6.55467 16.1733 6.064C15.9066 5.57333 15.5386 5.19467 15.0693 4.928C14.6 4.65067 14.0666 4.512 13.4693 4.512C12.872 4.512 12.3386 4.65067 11.8693 4.928C11.4 5.19467 11.0266 5.57333 10.7493 6.064C10.472 6.55467 10.3333 7.13067 10.3333 7.792C10.3333 8.44267 10.472 9.01867 10.7493 9.52C11.0266 10.0107 11.4 10.3947 11.8693 10.672C12.3386 10.9387 12.8666 11.072 13.4533 11.072ZM23.4046 12.08C22.6046 12.08 21.8846 11.8987 21.2446 11.536C20.6152 11.1733 20.1192 10.672 19.7566 10.032C19.3939 9.38133 19.2126 8.63467 19.2126 7.792C19.2126 6.93867 19.3939 6.192 19.7566 5.552C20.1192 4.912 20.6152 4.416 21.2446 4.064C21.8846 3.70133 22.6046 3.52 23.4046 3.52C24.1406 3.52 24.7966 3.68533 25.3726 4.016C25.9592 4.34667 26.4232 4.832 26.7646 5.472C27.1166 6.10133 27.2926 6.87467 27.2926 7.792C27.2926 8.69867 27.1219 9.472 26.7806 10.112C26.4392 10.752 25.9752 11.2427 25.3886 11.584C24.8126 11.9147 24.1512 12.08 23.4046 12.08ZM23.4846 11.072C24.0819 11.072 24.6152 10.9387 25.0846 10.672C25.5646 10.3947 25.9379 10.0107 26.2046 9.52C26.4819 9.01867 26.6206 8.44267 26.6206 7.792C26.6206 7.13067 26.4819 6.55467 26.2046 6.064C25.9379 5.57333 25.5646 5.19467 25.0846 4.928C24.6152 4.65067 24.0819 4.512 23.4846 4.512C22.8979 4.512 22.3699 4.65067 21.9006 4.928C21.4312 5.19467 21.0579 5.57333 20.7806 6.064C20.5032 6.55467 20.3646 7.13067 20.3646 7.792C20.3646 8.44267 20.5032 9.01867 20.7806 9.52C21.0579 10.0107 21.4312 10.3947 21.9006 10.672C22.3699 10.9387 22.8979 11.072 23.4846 11.072ZM26.6526 12V9.472L26.7646 7.776L26.6046 6.08V0.127999H27.7406V12H26.6526ZM36.1683 12V10.144L36.1203 9.84V6.736C36.1203 6.02133 35.9176 5.472 35.5123 5.088C35.1176 4.704 34.5256 4.512 33.7363 4.512C33.1923 4.512 32.675 4.60267 32.1843 4.784C31.6936 4.96533 31.2776 5.20533 30.9363 5.504L30.4243 4.656C30.851 4.29333 31.363 4.016 31.9603 3.824C32.5576 3.62133 33.187 3.52 33.8483 3.52C34.9363 3.52 35.7736 3.792 36.3603 4.336C36.9576 4.86933 37.2563 5.68533 37.2563 6.784V12H36.1683ZM33.2723 12.08C32.643 12.08 32.0936 11.9787 31.6243 11.776C31.1656 11.5627 30.8136 11.2747 30.5683 10.912C30.323 10.5387 30.2003 10.112 30.2003 9.632C30.2003 9.19467 30.3016 8.8 30.5043 8.448C30.7176 8.08533 31.059 7.79733 31.5283 7.584C32.0083 7.36 32.6483 7.248 33.4483 7.248H36.3443V8.096H33.4803C32.6696 8.096 32.1043 8.24 31.7843 8.528C31.475 8.816 31.3203 9.17333 31.3203 9.6C31.3203 10.08 31.507 10.464 31.8803 10.752C32.2536 11.04 32.7763 11.184 33.4483 11.184C34.0883 11.184 34.6376 11.04 35.0963 10.752C35.5656 10.4533 35.907 10.0267 36.1203 9.472L36.3763 10.256C36.163 10.8107 35.7896 11.2533 35.2563 11.584C34.7336 11.9147 34.0723 12.08 33.2723 12.08ZM40.2496 15.184C39.8549 15.184 39.4762 15.12 39.1136 14.992C38.7616 14.864 38.4576 14.672 38.2016 14.416L38.7296 13.568C38.9429 13.7707 39.1722 13.9253 39.4176 14.032C39.6736 14.1493 39.9562 14.208 40.2656 14.208C40.6389 14.208 40.9589 14.1013 41.2256 13.888C41.5029 13.6853 41.7642 13.3227 42.0096 12.8L42.5536 11.568L42.6816 11.392L46.1376 3.6H47.2576L43.0496 13.008C42.8149 13.552 42.5536 13.984 42.2656 14.304C41.9882 14.624 41.6842 14.848 41.3536 14.976C41.0229 15.1147 40.6549 15.184 40.2496 15.184ZM42.4896 12.24L38.6176 3.6H39.8016L43.2256 11.312L42.4896 12.24ZM59.1684 15.104C58.5818 14.1333 58.1231 13.0133 57.7924 11.744C57.4724 10.464 57.3124 9.088 57.3124 7.616C57.3124 6.144 57.4724 4.768 57.7924 3.488C58.1231 2.19733 58.5818 1.07733 59.1684 0.127999H60.2564C59.6271 1.22667 59.1631 2.39467 58.8644 3.632C58.5764 4.85867 58.4324 6.18667 58.4324 7.616C58.4324 9.04533 58.5764 10.3787 58.8644 11.616C59.1631 12.8427 59.6271 14.0053 60.2564 15.104H59.1684ZM63.8543 12V1.28L64.3663 1.824H61.2143V0.799999H65.0063V12H63.8543ZM72.2756 12.096C71.2836 12.096 70.4462 11.8773 69.7636 11.44C69.0809 10.992 68.5636 10.352 68.2116 9.52C67.8596 8.67733 67.6836 7.66933 67.6836 6.496C67.6836 5.22667 67.8969 4.16533 68.3236 3.312C68.7609 2.448 69.3636 1.79733 70.1316 1.36C70.8996 0.922666 71.7902 0.704 72.8036 0.704C73.3049 0.704 73.7849 0.752 74.2436 0.848C74.7022 0.944 75.1076 1.09867 75.4596 1.312L74.9956 2.24C74.7076 2.048 74.3769 1.91467 74.0036 1.84C73.6302 1.75467 73.2356 1.712 72.8196 1.712C71.6142 1.712 70.6489 2.096 69.9236 2.864C69.2089 3.632 68.8516 4.77867 68.8516 6.304C68.8516 6.53867 68.8622 6.832 68.8836 7.184C68.9156 7.52533 68.9796 7.86667 69.0756 8.208L68.6756 7.904C68.7929 7.34933 69.0222 6.88 69.3636 6.496C69.7049 6.10133 70.1316 5.80267 70.6436 5.6C71.1556 5.39733 71.7156 5.296 72.3236 5.296C73.0702 5.296 73.7262 5.43467 74.2916 5.712C74.8569 5.98933 75.2996 6.37867 75.6196 6.88C75.9396 7.38133 76.0996 7.97333 76.0996 8.656C76.0996 9.34933 75.9342 9.95733 75.6036 10.48C75.2729 10.992 74.8142 11.392 74.2276 11.68C73.6516 11.9573 73.0009 12.096 72.2756 12.096ZM72.2276 11.12C72.7609 11.12 73.2302 11.024 73.6356 10.832C74.0516 10.6293 74.3769 10.3467 74.6116 9.984C74.8462 9.61067 74.9636 9.17867 74.9636 8.688C74.9636 7.952 74.7076 7.36533 74.1956 6.928C73.6942 6.49067 73.0116 6.272 72.1476 6.272C71.5716 6.272 71.0702 6.37867 70.6436 6.592C70.2169 6.80533 69.8809 7.09867 69.6356 7.472C69.3902 7.83467 69.2676 8.25067 69.2676 8.72C69.2676 9.12533 69.3796 9.51467 69.6036 9.888C69.8276 10.2507 70.1582 10.5493 70.5956 10.784C71.0436 11.008 71.5876 11.12 72.2276 11.12ZM78.3296 15.104H77.2416C77.8816 14.0053 78.3456 12.8427 78.6336 11.616C78.9322 10.3787 79.0816 9.04533 79.0816 7.616C79.0816 6.18667 78.9322 4.85867 78.6336 3.632C78.3456 2.39467 77.8816 1.22667 77.2416 0.127999H78.3296C78.9376 1.07733 79.4016 2.19733 79.7216 3.488C80.0416 4.768 80.2016 6.144 80.2016 7.616C80.2016 9.088 80.0416 10.464 79.7216 11.744C79.4016 13.0133 78.9376 14.1333 78.3296 15.104Z" fill="#08138C"/>
</svg>
