<svg width="194" height="14" viewBox="0 0 194 14" fill="none" xmlns="http://www.w3.org/2000/svg">
<path d="M4.25431 11V7.36L4.49231 8.004L0.334313 1.2H1.44031L5.09431 7.178H4.50631L8.16031 1.2H9.19631L5.03831 8.004L5.27631 7.36V11H4.25431ZM12.755 11.07C12.0457 11.07 11.4064 10.9113 10.837 10.594C10.277 10.2673 9.83371 9.824 9.50705 9.264C9.18038 8.69467 9.01705 8.046 9.01705 7.318C9.01705 6.58067 9.18038 5.932 9.50705 5.372C9.83371 4.812 10.277 4.37333 10.837 4.056C11.397 3.73867 12.0364 3.58 12.755 3.58C13.483 3.58 14.127 3.73867 14.687 4.056C15.2564 4.37333 15.6997 4.812 16.017 5.372C16.3437 5.932 16.507 6.58067 16.507 7.318C16.507 8.046 16.3437 8.69467 16.017 9.264C15.6997 9.824 15.2564 10.2673 14.687 10.594C14.1177 10.9113 13.4737 11.07 12.755 11.07ZM12.755 10.188C13.287 10.188 13.7584 10.0713 14.169 9.838C14.5797 9.59533 14.9017 9.25933 15.135 8.83C15.3777 8.39133 15.499 7.88733 15.499 7.318C15.499 6.73933 15.3777 6.23533 15.135 5.806C14.9017 5.37667 14.5797 5.04533 14.169 4.812C13.7584 4.56933 13.2917 4.448 12.769 4.448C12.2464 4.448 11.7797 4.56933 11.369 4.812C10.9584 5.04533 10.6317 5.37667 10.389 5.806C10.1464 6.23533 10.025 6.73933 10.025 7.318C10.025 7.88733 10.1464 8.39133 10.389 8.83C10.6317 9.25933 10.9584 9.59533 11.369 9.838C11.7797 10.0713 12.2417 10.188 12.755 10.188ZM21.5744 11.07C20.9491 11.07 20.4031 10.9533 19.9364 10.72C19.4697 10.4867 19.1057 10.1367 18.8444 9.67C18.5924 9.20333 18.4664 8.62 18.4664 7.92V3.65H19.4604V7.808C19.4604 8.592 19.6517 9.18467 20.0344 9.586C20.4264 9.978 20.9724 10.174 21.6724 10.174C22.1857 10.174 22.6291 10.0713 23.0024 9.866C23.3851 9.65133 23.6744 9.34333 23.8704 8.942C24.0757 8.54067 24.1784 8.06 24.1784 7.5V3.65H25.1724V11H24.2204V8.984L24.3744 9.348C24.1411 9.88933 23.7771 10.314 23.2824 10.622C22.7971 10.9207 22.2277 11.07 21.5744 11.07ZM27.3406 4.028L27.9566 1.452L28.0686 2.04C27.854 2.04 27.672 1.97467 27.5226 1.844C27.3826 1.704 27.3126 1.522 27.3126 1.298C27.3126 1.074 27.3826 0.892 27.5226 0.751999C27.672 0.611999 27.8493 0.541999 28.0546 0.541999C28.2693 0.541999 28.442 0.616666 28.5726 0.766C28.7126 0.906 28.7826 1.08333 28.7826 1.298C28.7826 1.37267 28.778 1.44733 28.7686 1.522C28.7593 1.59667 28.7406 1.68067 28.7126 1.774C28.694 1.858 28.6613 1.96533 28.6146 2.096L28.0126 4.028H27.3406ZM33.0455 11L29.7835 3.65H30.8195L33.8155 10.468H33.3255L36.3635 3.65H37.3435L34.0675 11H33.0455ZM41.6603 11.07C40.895 11.07 40.223 10.9113 39.6443 10.594C39.0657 10.2673 38.613 9.824 38.2863 9.264C37.9597 8.69467 37.7963 8.046 37.7963 7.318C37.7963 6.59 37.9503 5.946 38.2583 5.386C38.5757 4.826 39.005 4.38733 39.5463 4.07C40.097 3.74333 40.713 3.58 41.3943 3.58C42.085 3.58 42.6963 3.73867 43.2283 4.056C43.7697 4.364 44.1943 4.80267 44.5023 5.372C44.8103 5.932 44.9643 6.58067 44.9643 7.318C44.9643 7.36467 44.9597 7.416 44.9503 7.472C44.9503 7.51867 44.9503 7.57 44.9503 7.626H38.5523V6.884H44.4183L44.0263 7.178C44.0263 6.646 43.9097 6.17467 43.6763 5.764C43.4523 5.344 43.1443 5.01733 42.7523 4.784C42.3603 4.55067 41.9077 4.434 41.3943 4.434C40.8903 4.434 40.4377 4.55067 40.0363 4.784C39.635 5.01733 39.3223 5.344 39.0983 5.764C38.8743 6.184 38.7623 6.66467 38.7623 7.206V7.36C38.7623 7.92 38.8837 8.41467 39.1263 8.844C39.3783 9.264 39.7237 9.59533 40.1623 9.838C40.6103 10.0713 41.119 10.188 41.6883 10.188C42.1363 10.188 42.5517 10.1087 42.9343 9.95C43.3263 9.79133 43.6623 9.54867 43.9423 9.222L44.5023 9.866C44.1757 10.258 43.765 10.5567 43.2703 10.762C42.785 10.9673 42.2483 11.07 41.6603 11.07ZM52.9196 11.084C52.2103 11.084 51.5383 10.972 50.9036 10.748C50.2783 10.5147 49.7743 10.2067 49.3916 9.824L49.8816 9.026C50.199 9.35267 50.6236 9.62333 51.1556 9.838C51.697 10.0527 52.285 10.16 52.9196 10.16C53.7316 10.16 54.3523 9.98267 54.7816 9.628C55.2203 9.27333 55.4396 8.79733 55.4396 8.2C55.4396 7.60267 55.225 7.12667 54.7956 6.772C54.3756 6.41733 53.7083 6.24 52.7936 6.24H52.0936V5.498L55.1176 1.704L55.2576 2.096H49.7976V1.2H56.0976V1.914L53.0736 5.708L52.5836 5.386H52.9616C54.1376 5.386 55.015 5.64733 55.5936 6.17C56.1816 6.69267 56.4756 7.36467 56.4756 8.186C56.4756 8.73667 56.345 9.23133 56.0836 9.67C55.8223 10.1087 55.4256 10.454 54.8936 10.706C54.371 10.958 53.713 11.084 52.9196 11.084ZM61.802 11.084C61.046 11.084 60.374 10.888 59.786 10.496C59.198 10.0947 58.736 9.52533 58.4 8.788C58.064 8.04133 57.896 7.14533 57.896 6.1C57.896 5.05467 58.064 4.16333 58.4 3.426C58.736 2.67933 59.198 2.11 59.786 1.718C60.374 1.31667 61.046 1.116 61.802 1.116C62.558 1.116 63.23 1.31667 63.818 1.718C64.406 2.11 64.868 2.67933 65.204 3.426C65.5493 4.16333 65.722 5.05467 65.722 6.1C65.722 7.14533 65.5493 8.04133 65.204 8.788C64.868 9.52533 64.406 10.0947 63.818 10.496C63.23 10.888 62.558 11.084 61.802 11.084ZM61.802 10.16C62.3806 10.16 62.8846 10.006 63.314 9.698C63.7433 9.38067 64.0793 8.92333 64.322 8.326C64.5646 7.71933 64.686 6.97733 64.686 6.1C64.686 5.22267 64.5646 4.48533 64.322 3.888C64.0793 3.28133 63.7433 2.824 63.314 2.516C62.8846 2.19867 62.3806 2.04 61.802 2.04C61.242 2.04 60.7426 2.19867 60.304 2.516C59.8653 2.824 59.5246 3.28133 59.282 3.888C59.0393 4.48533 58.918 5.22267 58.918 6.1C58.918 6.97733 59.0393 7.71933 59.282 8.326C59.5246 8.92333 59.8653 9.38067 60.304 9.698C60.7426 10.006 61.242 10.16 61.802 10.16ZM75.2816 11.07C74.6469 11.07 74.0729 10.9253 73.5596 10.636C73.0462 10.3373 72.6356 9.91267 72.3276 9.362C72.0289 8.802 71.8796 8.12067 71.8796 7.318C71.8796 6.51533 72.0289 5.83867 72.3276 5.288C72.6262 4.728 73.0322 4.30333 73.5456 4.014C74.0589 3.72467 74.6376 3.58 75.2816 3.58C75.9816 3.58 76.6069 3.73867 77.1576 4.056C77.7176 4.364 78.1562 4.80267 78.4736 5.372C78.7909 5.932 78.9496 6.58067 78.9496 7.318C78.9496 8.06467 78.7909 8.718 78.4736 9.278C78.1562 9.838 77.7176 10.2767 77.1576 10.594C76.6069 10.9113 75.9816 11.07 75.2816 11.07ZM71.4876 13.716V3.65H72.4396V5.862L72.3416 7.332L72.4816 8.816V13.716H71.4876ZM75.2116 10.188C75.7342 10.188 76.2009 10.0713 76.6116 9.838C77.0222 9.59533 77.3489 9.25933 77.5916 8.83C77.8342 8.39133 77.9556 7.88733 77.9556 7.318C77.9556 6.74867 77.8342 6.24933 77.5916 5.82C77.3489 5.39067 77.0222 5.05467 76.6116 4.812C76.2009 4.56933 75.7342 4.448 75.2116 4.448C74.6889 4.448 74.2176 4.56933 73.7976 4.812C73.3869 5.05467 73.0602 5.39067 72.8176 5.82C72.5842 6.24933 72.4676 6.74867 72.4676 7.318C72.4676 7.88733 72.5842 8.39133 72.8176 8.83C73.0602 9.25933 73.3869 9.59533 73.7976 9.838C74.2176 10.0713 74.6889 10.188 75.2116 10.188ZM84.0978 11.07C83.3325 11.07 82.6605 10.9113 82.0818 10.594C81.5032 10.2673 81.0505 9.824 80.7238 9.264C80.3972 8.69467 80.2338 8.046 80.2338 7.318C80.2338 6.59 80.3878 5.946 80.6958 5.386C81.0132 4.826 81.4425 4.38733 81.9838 4.07C82.5345 3.74333 83.1505 3.58 83.8318 3.58C84.5225 3.58 85.1338 3.73867 85.6658 4.056C86.2072 4.364 86.6318 4.80267 86.9398 5.372C87.2478 5.932 87.4018 6.58067 87.4018 7.318C87.4018 7.36467 87.3972 7.416 87.3878 7.472C87.3878 7.51867 87.3878 7.57 87.3878 7.626H80.9898V6.884H86.8558L86.4638 7.178C86.4638 6.646 86.3472 6.17467 86.1138 5.764C85.8898 5.344 85.5818 5.01733 85.1898 4.784C84.7978 4.55067 84.3452 4.434 83.8318 4.434C83.3278 4.434 82.8752 4.55067 82.4738 4.784C82.0725 5.01733 81.7598 5.344 81.5358 5.764C81.3118 6.184 81.1998 6.66467 81.1998 7.206V7.36C81.1998 7.92 81.3212 8.41467 81.5638 8.844C81.8158 9.264 82.1612 9.59533 82.5998 9.838C83.0478 10.0713 83.5565 10.188 84.1258 10.188C84.5738 10.188 84.9892 10.1087 85.3718 9.95C85.7638 9.79133 86.0998 9.54867 86.3798 9.222L86.9398 9.866C86.6132 10.258 86.2025 10.5567 85.7078 10.762C85.2225 10.9673 84.6858 11.07 84.0978 11.07ZM93.1771 3.58C93.7744 3.58 94.2971 3.69667 94.7451 3.93C95.2024 4.154 95.5571 4.49933 95.8091 4.966C96.0704 5.43267 96.2011 6.02067 96.2011 6.73V11H95.2071V6.828C95.2071 6.05333 95.0111 5.47 94.6191 5.078C94.2364 4.67667 93.6951 4.476 92.9951 4.476C92.4724 4.476 92.0151 4.58333 91.6231 4.798C91.2404 5.00333 90.9417 5.30667 90.7271 5.708C90.5217 6.1 90.4191 6.576 90.4191 7.136V11H89.4251V3.65H90.3771V5.666L90.2231 5.288C90.4564 4.756 90.8297 4.34067 91.3431 4.042C91.8564 3.734 92.4677 3.58 93.1771 3.58ZM101.812 11.07C101.112 11.07 100.482 10.9113 99.922 10.594C99.3713 10.2767 98.9373 9.838 98.62 9.278C98.3027 8.70867 98.144 8.05533 98.144 7.318C98.144 6.57133 98.3027 5.918 98.62 5.358C98.9373 4.798 99.3713 4.364 99.922 4.056C100.482 3.73867 101.112 3.58 101.812 3.58C102.456 3.58 103.03 3.72467 103.534 4.014C104.047 4.30333 104.453 4.728 104.752 5.288C105.06 5.83867 105.214 6.51533 105.214 7.318C105.214 8.11133 105.065 8.788 104.766 9.348C104.467 9.908 104.061 10.3373 103.548 10.636C103.044 10.9253 102.465 11.07 101.812 11.07ZM101.882 10.188C102.405 10.188 102.871 10.0713 103.282 9.838C103.702 9.59533 104.029 9.25933 104.262 8.83C104.505 8.39133 104.626 7.88733 104.626 7.318C104.626 6.73933 104.505 6.23533 104.262 5.806C104.029 5.37667 103.702 5.04533 103.282 4.812C102.871 4.56933 102.405 4.448 101.882 4.448C101.369 4.448 100.907 4.56933 100.496 4.812C100.085 5.04533 99.7587 5.37667 99.516 5.806C99.2733 6.23533 99.152 6.73933 99.152 7.318C99.152 7.88733 99.2733 8.39133 99.516 8.83C99.7587 9.25933 100.085 9.59533 100.496 9.838C100.907 10.0713 101.369 10.188 101.882 10.188ZM104.654 11V8.788L104.752 7.304L104.612 5.82V0.611999H105.606V11H104.654ZM108.374 11V3.65H109.368V11H108.374ZM108.878 2.026C108.673 2.026 108.5 1.956 108.36 1.816C108.22 1.676 108.15 1.508 108.15 1.312C108.15 1.116 108.22 0.952666 108.36 0.821999C108.5 0.681999 108.673 0.611999 108.878 0.611999C109.084 0.611999 109.256 0.677333 109.396 0.807999C109.536 0.938666 109.606 1.102 109.606 1.298C109.606 1.50333 109.536 1.676 109.396 1.816C109.266 1.956 109.093 2.026 108.878 2.026ZM115.886 3.58C116.483 3.58 117.006 3.69667 117.454 3.93C117.911 4.154 118.266 4.49933 118.518 4.966C118.779 5.43267 118.91 6.02067 118.91 6.73V11H117.916V6.828C117.916 6.05333 117.72 5.47 117.328 5.078C116.945 4.67667 116.404 4.476 115.704 4.476C115.181 4.476 114.724 4.58333 114.332 4.798C113.949 5.00333 113.651 5.30667 113.436 5.708C113.231 6.1 113.128 6.576 113.128 7.136V11H112.134V3.65H113.086V5.666L112.932 5.288C113.165 4.756 113.539 4.34067 114.052 4.042C114.565 3.734 115.177 3.58 115.886 3.58ZM124.731 13.786C124.059 13.786 123.415 13.688 122.799 13.492C122.183 13.296 121.684 13.016 121.301 12.652L121.805 11.896C122.15 12.204 122.575 12.4467 123.079 12.624C123.592 12.8107 124.134 12.904 124.703 12.904C125.636 12.904 126.322 12.6847 126.761 12.246C127.2 11.8167 127.419 11.1447 127.419 10.23V8.396L127.559 7.136L127.461 5.876V3.65H128.413V10.104C128.413 11.3733 128.1 12.302 127.475 12.89C126.859 13.4873 125.944 13.786 124.731 13.786ZM124.549 10.72C123.849 10.72 123.219 10.5707 122.659 10.272C122.099 9.964 121.656 9.53933 121.329 8.998C121.012 8.45667 120.853 7.836 120.853 7.136C120.853 6.436 121.012 5.82 121.329 5.288C121.656 4.74667 122.099 4.32667 122.659 4.028C123.219 3.72933 123.849 3.58 124.549 3.58C125.202 3.58 125.79 3.71533 126.313 3.986C126.836 4.25667 127.251 4.658 127.559 5.19C127.867 5.722 128.021 6.37067 128.021 7.136C128.021 7.90133 127.867 8.55 127.559 9.082C127.251 9.614 126.836 10.02 126.313 10.3C125.79 10.58 125.202 10.72 124.549 10.72ZM124.647 9.838C125.188 9.838 125.669 9.726 126.089 9.502C126.509 9.26867 126.84 8.95133 127.083 8.55C127.326 8.13933 127.447 7.668 127.447 7.136C127.447 6.604 127.326 6.13733 127.083 5.736C126.84 5.33467 126.509 5.022 126.089 4.798C125.669 4.56467 125.188 4.448 124.647 4.448C124.115 4.448 123.634 4.56467 123.205 4.798C122.785 5.022 122.454 5.33467 122.211 5.736C121.978 6.13733 121.861 6.604 121.861 7.136C121.861 7.668 121.978 8.13933 122.211 8.55C122.454 8.95133 122.785 9.26867 123.205 9.502C123.634 9.726 124.115 9.838 124.647 9.838ZM138.637 11.07C137.993 11.07 137.414 10.9253 136.901 10.636C136.388 10.3373 135.982 9.908 135.683 9.348C135.384 8.788 135.235 8.11133 135.235 7.318C135.235 6.51533 135.384 5.83867 135.683 5.288C135.991 4.728 136.402 4.30333 136.915 4.014C137.428 3.72467 138.002 3.58 138.637 3.58C139.337 3.58 139.962 3.73867 140.513 4.056C141.073 4.364 141.512 4.798 141.829 5.358C142.146 5.918 142.305 6.57133 142.305 7.318C142.305 8.05533 142.146 8.70867 141.829 9.278C141.512 9.838 141.073 10.2767 140.513 10.594C139.962 10.9113 139.337 11.07 138.637 11.07ZM134.843 11V0.611999H135.837V5.82L135.697 7.304L135.795 8.788V11H134.843ZM138.567 10.188C139.09 10.188 139.556 10.0713 139.967 9.838C140.378 9.59533 140.704 9.25933 140.947 8.83C141.19 8.39133 141.311 7.88733 141.311 7.318C141.311 6.73933 141.19 6.23533 140.947 5.806C140.704 5.37667 140.378 5.04533 139.967 4.812C139.556 4.56933 139.09 4.448 138.567 4.448C138.044 4.448 137.573 4.56933 137.153 4.812C136.742 5.04533 136.416 5.37667 136.173 5.806C135.94 6.23533 135.823 6.73933 135.823 7.318C135.823 7.88733 135.94 8.39133 136.173 8.83C136.416 9.25933 136.742 9.59533 137.153 9.838C137.573 10.0713 138.044 10.188 138.567 10.188ZM147.327 11.07C146.618 11.07 145.979 10.9113 145.409 10.594C144.849 10.2673 144.406 9.824 144.079 9.264C143.753 8.69467 143.589 8.046 143.589 7.318C143.589 6.58067 143.753 5.932 144.079 5.372C144.406 4.812 144.849 4.37333 145.409 4.056C145.969 3.73867 146.609 3.58 147.327 3.58C148.055 3.58 148.699 3.73867 149.259 4.056C149.829 4.37333 150.272 4.812 150.589 5.372C150.916 5.932 151.079 6.58067 151.079 7.318C151.079 8.046 150.916 8.69467 150.589 9.264C150.272 9.824 149.829 10.2673 149.259 10.594C148.69 10.9113 148.046 11.07 147.327 11.07ZM147.327 10.188C147.859 10.188 148.331 10.0713 148.741 9.838C149.152 9.59533 149.474 9.25933 149.707 8.83C149.95 8.39133 150.071 7.88733 150.071 7.318C150.071 6.73933 149.95 6.23533 149.707 5.806C149.474 5.37667 149.152 5.04533 148.741 4.812C148.331 4.56933 147.864 4.448 147.341 4.448C146.819 4.448 146.352 4.56933 145.941 4.812C145.531 5.04533 145.204 5.37667 144.961 5.806C144.719 6.23533 144.597 6.73933 144.597 7.318C144.597 7.88733 144.719 8.39133 144.961 8.83C145.204 9.25933 145.531 9.59533 145.941 9.838C146.352 10.0713 146.814 10.188 147.327 10.188ZM156.105 11.07C155.395 11.07 154.756 10.9113 154.187 10.594C153.627 10.2673 153.183 9.824 152.857 9.264C152.53 8.69467 152.367 8.046 152.367 7.318C152.367 6.58067 152.53 5.932 152.857 5.372C153.183 4.812 153.627 4.37333 154.187 4.056C154.747 3.73867 155.386 3.58 156.105 3.58C156.833 3.58 157.477 3.73867 158.037 4.056C158.606 4.37333 159.049 4.812 159.367 5.372C159.693 5.932 159.857 6.58067 159.857 7.318C159.857 8.046 159.693 8.69467 159.367 9.264C159.049 9.824 158.606 10.2673 158.037 10.594C157.467 10.9113 156.823 11.07 156.105 11.07ZM156.105 10.188C156.637 10.188 157.108 10.0713 157.519 9.838C157.929 9.59533 158.251 9.25933 158.485 8.83C158.727 8.39133 158.849 7.88733 158.849 7.318C158.849 6.73933 158.727 6.23533 158.485 5.806C158.251 5.37667 157.929 5.04533 157.519 4.812C157.108 4.56933 156.641 4.448 156.119 4.448C155.596 4.448 155.129 4.56933 154.719 4.812C154.308 5.04533 153.981 5.37667 153.739 5.806C153.496 6.23533 153.375 6.73933 153.375 7.318C153.375 7.88733 153.496 8.39133 153.739 8.83C153.981 9.25933 154.308 9.59533 154.719 9.838C155.129 10.0713 155.591 10.188 156.105 10.188ZM162.67 9.096L162.698 7.822L167.276 3.65H168.494L165.26 6.744L164.7 7.22L162.67 9.096ZM161.886 11V0.611999H162.88V11H161.886ZM167.584 11L164.518 7.178L165.162 6.408L168.802 11H167.584ZM170.294 11V3.65H171.288V11H170.294ZM170.798 2.026C170.593 2.026 170.42 1.956 170.28 1.816C170.14 1.676 170.07 1.508 170.07 1.312C170.07 1.116 170.14 0.952666 170.28 0.821999C170.42 0.681999 170.593 0.611999 170.798 0.611999C171.004 0.611999 171.176 0.677333 171.316 0.807999C171.456 0.938666 171.526 1.102 171.526 1.298C171.526 1.50333 171.456 1.676 171.316 1.816C171.186 1.956 171.013 2.026 170.798 2.026ZM177.806 3.58C178.403 3.58 178.926 3.69667 179.374 3.93C179.831 4.154 180.186 4.49933 180.438 4.966C180.699 5.43267 180.83 6.02067 180.83 6.73V11H179.836V6.828C179.836 6.05333 179.64 5.47 179.248 5.078C178.865 4.67667 178.324 4.476 177.624 4.476C177.101 4.476 176.644 4.58333 176.252 4.798C175.869 5.00333 175.571 5.30667 175.356 5.708C175.151 6.1 175.048 6.576 175.048 7.136V11H174.054V3.65H175.006V5.666L174.852 5.288C175.085 4.756 175.459 4.34067 175.972 4.042C176.485 3.734 177.097 3.58 177.806 3.58ZM186.651 13.786C185.979 13.786 185.335 13.688 184.719 13.492C184.103 13.296 183.604 13.016 183.221 12.652L183.725 11.896C184.07 12.204 184.495 12.4467 184.999 12.624C185.512 12.8107 186.054 12.904 186.623 12.904C187.556 12.904 188.242 12.6847 188.681 12.246C189.12 11.8167 189.339 11.1447 189.339 10.23V8.396L189.479 7.136L189.381 5.876V3.65H190.333V10.104C190.333 11.3733 190.02 12.302 189.395 12.89C188.779 13.4873 187.864 13.786 186.651 13.786ZM186.469 10.72C185.769 10.72 185.139 10.5707 184.579 10.272C184.019 9.964 183.576 9.53933 183.249 8.998C182.932 8.45667 182.773 7.836 182.773 7.136C182.773 6.436 182.932 5.82 183.249 5.288C183.576 4.74667 184.019 4.32667 184.579 4.028C185.139 3.72933 185.769 3.58 186.469 3.58C187.122 3.58 187.71 3.71533 188.233 3.986C188.756 4.25667 189.171 4.658 189.479 5.19C189.787 5.722 189.941 6.37067 189.941 7.136C189.941 7.90133 189.787 8.55 189.479 9.082C189.171 9.614 188.756 10.02 188.233 10.3C187.71 10.58 187.122 10.72 186.469 10.72ZM186.567 9.838C187.108 9.838 187.589 9.726 188.009 9.502C188.429 9.26867 188.76 8.95133 189.003 8.55C189.246 8.13933 189.367 7.668 189.367 7.136C189.367 6.604 189.246 6.13733 189.003 5.736C188.76 5.33467 188.429 5.022 188.009 4.798C187.589 4.56467 187.108 4.448 186.567 4.448C186.035 4.448 185.554 4.56467 185.125 4.798C184.705 5.022 184.374 5.33467 184.131 5.736C183.898 6.13733 183.781 6.604 183.781 7.136C183.781 7.668 183.898 8.13933 184.131 8.55C184.374 8.95133 184.705 9.26867 185.125 9.502C185.554 9.726 186.035 9.838 186.567 9.838ZM193.197 11.07C192.992 11.07 192.814 10.9953 192.665 10.846C192.525 10.6967 192.455 10.5147 192.455 10.3C192.455 10.076 192.525 9.894 192.665 9.754C192.814 9.614 192.992 9.544 193.197 9.544C193.402 9.544 193.575 9.614 193.715 9.754C193.864 9.894 193.939 10.076 193.939 10.3C193.939 10.5147 193.864 10.6967 193.715 10.846C193.575 10.9953 193.402 11.07 193.197 11.07Z" fill="#08138C"/>
</svg>
